<svg xmlns="http://www.w3.org/2000/svg" viewBox="0 0 611.64 886.15"><defs><style>.a{fill:#51585a;}.b{fill:#e3b885;}.c{fill:#fff;}.d{fill:#777e7e;}.e{fill:#008059;}.f{fill:#00a372;}.g{fill:#500002;}.h{fill:#d5b38a;}.i{fill:#af6c49;}.j{fill:#b9966d;}.k{fill:#fefefe;}.l{fill:#440002;}.m{fill:#e9bb85;}.n{fill:#ebba82;}.o{fill:#b37452;}.p{fill:#daeaf5;}.q{fill:#d6e8f4;}.r{fill:#e1eff7;}.s{fill:#e5f1f7;}.t{fill:#e3eff6;}.u{fill:#ddecf5;}.v{fill:#d8e9f5;}.w{fill:#2f3435;}.x{fill:#7b8283;}.y{fill:#513b22;}.z{fill:#523b23;}.aa{fill:#513a22;}.ab{fill:#523c23;}.ac{fill:#5a4228;}.ad{fill:#664d31;}.ae{fill:#b49167;}.af{fill:#b59167;}.ag{fill:#9f7e58;}.ah{fill:#c58763;}.ai{fill:#bf7b52;}.aj{fill:#85c8e9;}.ak{fill:#360001;}.al{fill:#3c96ce;}.am{fill:#3e0102;}.an{fill:#853b2a;}.ao{fill:#803726;}.ap{fill:#3a93cc;}.aq{fill:#370001;}.ar{fill:#bc7a53;}.as{fill:#c08b6b;}.at{fill:#6f2b1e;}.au{fill:#6f2c1e;}.av{fill:#e4ba89;}.aw{fill:#e3b37c;}.ax{fill:#e9c79e;}.ay{fill:#e5be8f;}.az{fill:#f0d9bd;}.ba{fill:#f5e9d9;}.bb{fill:#e8c297;}.bc{fill:#2e5c9f;}.bd{fill:#86c9ea;}</style></defs><path class="a" d="M155.16,886.15c-2.93-26.13-4.26-52.37-2.91-78.62,1.08-21.15,5.84-41.7,13.23-61.59.4-2.91,2.62-3,4.82-3.1,4.29-.11,8.58,0,12.88-.08h1.91q96.33,0,192.63,0c2.77,0,5.69-.68,8.23,1.15-.64,3.73-3.69,2.56-5.8,2.58-15.45.14-30.91.07-46.37.07l-12.46,0c-43.17-.1-86.34.1-129.51-.09-.14,0-.28.18-.34.26a429.52,429.52,0,0,0,53.34,10.32c17.15,2.1,34.33,3.83,51.6,4.71,6.8.34,13.58,1,20.4,1,1.83,0,3.69.21,4.93,1.91,1.07,2,1,4.17,1,6.32q0,54,0,108c0,2.47.21,5-1.62,7.1Z"/><path class="b" d="M588.1,744.09c-33.46,0-66.93.14-100.4,0-4.58,0-6,1.06-6,5.74.22,45.44.18,90.89.21,136.33h-1c-.91-1.56-.48-3.26-.48-4.89q0-68.32,0-136.65a2.26,2.26,0,0,1,.62-1.83c2-1.31,4.25-1,6.42-1q46.83,0,93.64,0C583.56,741.83,586.67,740.73,588.1,744.09Z"/><path class="c" d="M31.93,504.36C25,500.65,21,494.59,18.26,487.53c-.89-2.26-2.1-4.4-3.17-6.59-.21-9.95,2.15-13,10.91-14,3.43-1.51,5.4.17,6.81,3.07q.09,15.81.17,31.64C33,502.64,33.13,503.76,31.93,504.36Z"/><path class="d" d="M321.12,886.15q0-60.85.05-121.71l.61-.72a4.44,4.44,0,0,1,1.77-.57c20.13.57,40.24,1,60.37-.29,8.95-.55,17.95-.65,26.9-1.24.49-.06,1.06-.24,1.46,0,5.59,3.24,10.77,2,15.77-1.39a42.16,42.16,0,0,1,6.14-.62c5.64,2.6,11,3.34,16.1-1.43,2.11-1.95,4.58-.86,6.82.71,7.36,5.15,12.22,3.49,15.9-4.81,1.57-3.56,1.26-8,4.76-10.7,1.87-.49,3.63-.57,4.91,1.25.62,2,.38,4,.38,6q0,64.39,0,128.79c0,2.28.57,4.69-1,6.77Z"/><path class="b" d="M483.05,744.07a4,4,0,0,0-1,.06l-5.06.13c-4.25,2.13-5-.7-5.2-3.84a248.25,248.25,0,0,0-4.33-28.6c-1.69-8.5-3.77-9.91-12.39-8.36-3.49.62-4.11-1.28-4.28-3.82-.28-4.13-2.33-6.88-6.2-8.18-3.61-1.22-7.46.42-9.44,4.52-1.69,3.51-3,4.46-6.62,1.85-5.94-4.31-12.4-1.41-13.76,5.93-.66,3.58-1.08,7.24-1.39,10.88-.21,2.63-1.26,4.35-4,5-3.7.81-6,3.38-7.75,6.56a97.31,97.31,0,0,0-5.89,12.11,16.32,16.32,0,0,1-7,8.78,1.44,1.44,0,0,1-2-.11c-.68-.66-.21-1.82-1.05-2.41-23.11-.1-46.23-.28-69.34-.3q-62.88-.08-125.75,0c-2.16,0-4.32-.11-6.48-.17,1.15-2.65,3.48-1.24,5.15-1.25q57.73-.15,115.46-.08,37.49,0,75,0c1.6,0,3.27-.33,4.81.3-1.69-.69-3.53-.32-5.28-.33-57,0-114-.35-170.94.08-55.46.42-110.93.31-166.39.41-1.67,0-3.34,0-5,0-2.43,0-3.73-1.09-3.76-3.6,0-1.67,0-3.33,0-5-.08-35.32.17-70.64-.13-105.95.72-1.16,1.88-1.18,3.06-1.21,9.41-.31,16.72-4.83,23-11.45,2.38-2.51,3.29-5.45,2.07-8.72-1.34-3.57.24-5.31,3.39-6.39,6.77-2.32,13.72-4,20.58-6.06a47.58,47.58,0,0,0,7.08-2.4c4.3-2.06,6.18-5.66,5.14-9.67-1.11-4.26-4.71-6.7-9.62-5.86C80,578.16,72.69,581,65.2,583.19c-8.81,2.59-17.62,5-26.94,4.4a12.66,12.66,0,0,1-4.42-.63c-1.49-.65-2.5-1.73-2.2-3.49s1.84-1.76,3.13-1.68c20.86,1.31,39.66-7.63,59.37-11.95,6-1.33,8.49-7,6.13-11.92-1.92-4-5.44-4.43-9.29-4.21-5.92.34-5.92.32-5.35-5.48.7-7.08-3.25-10.58-10.58-10.13-11.58.71-23.12,2.51-34.81.62-8.66-1.41-9.12-1.44-9.48-10-.05-1.33-.19-2.65-.32-4,.77-7.09-.31-14.24.69-21.32,1.79-2.55.9-5.45.83-8.14-.24-8.36,1-16.76-.73-25.07-1.1-5.63-.25-11.24.21-16.85,1.19-5.5.29-11.07.61-16.6.1-1.89-.64-4,.94-5.61a11,11,0,0,1,4.9-.63q281.31.23,562.6.1c3.16,0,6.28-.78,9.45-.32l1,1.16a7.15,7.15,0,0,1,.08,2q-.09,151.05,0,302.11c0,9.8,0,8-8,8.11-4.49.06-9,.06-13.47,0a10,10,0,0,0-5.31-1q-50.43,0-100.85,0a9.51,9.51,0,0,0-.95-.06c-.3.71.65.16.66.61C483.12,743.5,483.09,743.79,483.05,744.07Z"/><path class="e" d="M56.44,393.45c-1.69-4.46,1.12-8.08,2.74-11.61C66.56,365.77,74.45,350,82,333.94c5.3-11.27,10.5-22.59,18-32.65,9.35-12.58,22-19.5,37.46-21.1,15.05-1.56,29.91-4.29,44.84-6.59,15.51-2.4,29.7-9.2,44.79-12.94.94-.23,1.93-.3,2.9-.45,3.5,2.32,6.1,5.6,9,8.56q31.87,32.73,77.28,37.33a13,13,0,0,1,2.45.46c1.39.55,2.8,1.05,3.42,2.61,1,5.42.41,10.89.45,16.33.1,12.74.05,25.48,0,38.21,0,2.29.37,4.67-1.11,6.73-2.69,1.9-5.79,1.2-8.72,1.2q-114.12.06-228.24.05c-2.47,0-5-.39-7.4.53-5.87,6.34-9.86,14.11-15.64,20.52C59.82,393.46,58.26,394.35,56.44,393.45Z"/><path class="f" d="M321.14,308.3c-1.05-.08-2.16.12-3-.77,1.56-2.15,3.9-1.54,6-1.54,26.46,0,49.3-9.46,69.35-26.36,5.1-4.3,10.05-8.7,14.15-14,1.29-1.67,2.69-3.45,5.11-3.68,10.39.36,19.4,5.51,29,8.61,13.63,4.43,27,9.62,40.46,14.58a188.51,188.51,0,0,1,34.51,16.34,46,46,0,0,1,19.22,24.36c5.16,14.65,8.22,29.74,7.12,45.42-1.78,1.68-4,1.4-6.16,1.4q-104.21,0-208.42,0c-6.62,0-6.78-.25-6.78-6.66,0-16.83-.05-33.66,0-50.48,0-6.92-1.57-6.9,7.29-6.65C326.21,308.41,323.6,309.31,321.14,308.3Z"/><path class="g" d="M291,4.22c18.1-5.85,36.37-5.26,54.46-.42,32.9,8.8,54.47,31,69.75,60.36,12.34,23.77,14.9,48.69,11.29,75A432.36,432.36,0,0,1,400.06,241c-1.9,4.76-3.85,9.49-5.77,14.24-.85,6.72-4.94,12.05-8,17.78-1.63,3.08-2.55,6.92-6.25,8.58a1.74,1.74,0,0,1-1.63-1.28c-.07-5.1,1.74-10,2.16-15.24-3.26,4.09-6,8.23-10.13,11.17-.91.66-1.95,1.65-3.12,1-1.44-.83-1-2.32-.64-3.59,1.39-4.44,3.5-8.61,5.21-12.92,1.83-4.62,3.48-9.32,5.5-13.87.57-1.22,1.17-2.44,1.91-3.78a33.38,33.38,0,0,0-1.87,3.38c-1.14,1.94-2.4,3.72-4.83,4.15A2.78,2.78,0,0,1,371,248c-.14-2.21.68-4.25,1.17-6.35,2.88-16.18,6.34-32.25,9.28-48.41,1.51-8.31,2.89-16.66,4.3-25a42.62,42.62,0,0,0,1.17-9.2c2.82-15.57,6.39-31,6.74-46.93-1.19-15.36-5.31-29.62-14.85-42.11-6.89-9-16.62-14.09-26-19.76a3.52,3.52,0,0,0-4.23.09c-6.75,5.51-15,4.53-22.81,5.22a44.61,44.61,0,0,1-4.48,0c-24.62.65-44.83,10.29-60.82,29.13-6.27,7.39-10.54,16-16.28,23.75a1.71,1.71,0,0,1-1.49-.2,6.88,6.88,0,0,1-1.87-5C239.36,70.75,248.77,42,271.18,18A59.2,59.2,0,0,1,291,4.22Z"/><path class="h" d="M609.94,430.31c-1.72,2.55-4.36,1.92-6.79,1.92H40.29c-2.48,0-5,.34-7.3-1.07q8-12.35,17.18-23.92c3.15-2.09,6.72-1.63,10.19-1.63q131,0,261.89,0H585.14a27.78,27.78,0,0,1,7.93.69C598.85,414.18,605.07,421.77,609.94,430.31Z"/><path class="h" d="M61,392c4.63-6.65,9.1-13.41,14.34-19.61,1.16-1.27,2.72-1.1,4.2-1.1,80.52.05,161-.15,241.55.09a23,23,0,0,0,6.46.4q105.2,0,210.38,0c1.78,0,3.66-.56,5.36.51,7.33,0,14.65.06,22,.06,1.87,0,3.68,0,4.92,1.74q7,10,14,20c-1.32,1.61-3.2,1.61-5,1.72-2,.13-4,.07-6,.07H71.35c-2.83,0-5.69.28-8.47-.37C61.1,395.1,58.89,394.6,61,392Z"/><path class="i" d="M373.11,250.3c1.22-1.56,2.19-3.33,4-4.33a.67.67,0,0,1,.88.39c-1,7.49-5.05,13.9-7.41,20.91-1,3.08-2.47,6-4.25,10.27C373.6,273.2,377.1,267.24,382,261c0,7.32-1.67,13.24-3,19.21-.36,1.13-.3,1.82,1.13,1.1l14.14-26.15c6.32,1.76,12.79,3.12,18.42,6.75-13.36,16.05-28.95,29.16-48.4,37.34-14.8,6.23-30.24,8.55-46.17,8.25-34.42-2.7-62.52-17.92-85.49-43.24-1.1-1.22-2.47-2.29-2.73-4.08,8.55-4.36,18-5.84,27-8.79,2,.26,2.56,1.92,3.26,3.36,3.7,7.67,8.41,14.83,11.68,22.72a16.3,16.3,0,0,0,1.19,2.8,35.31,35.31,0,0,0-1.83-4.22c-3.28-7.16-4.71-14.85-6.25-22.5-.24-1.2-.88-2.87.77-3.51s2.85.76,3.51,2.08c2.44,4.88,6,8.93,9,13.07-3.44-6.32-5.85-13.42-9-20.17a3.78,3.78,0,0,1,0-3.82,8.81,8.81,0,0,1,3.77-3.28c3.63.64,4.37,4.17,6.36,6.37.36.48-.43.65.09.25s-.36-.42-.35-.78c-1.72-3.19-4.26-6.06-3.45-10.09,2.95-5.07,2.22-10.46,1.35-15.86-.34-2.07-1.4-4.1-.36-6.25a1.31,1.31,0,0,1,2.14.11c5,6.47,11.93,8.6,19.69,9a50.94,50.94,0,0,0,31.13,4.58c6-1.61,11.71-4.36,18-4.8a35.57,35.57,0,0,0,7-2,16.61,16.61,0,0,0,6.36-4.37c.89-.91,1.52-2.79,3.46-1.61,1.08,1.71.69,3.53.3,5.31-1.79,8.21-.68,15.52,6.24,21.17a4.63,4.63,0,0,1,1.93,3.36l-.93,5.9C371.58,249.36,370.87,250.59,373.11,250.3Z"/><path class="j" d="M61,392c.06.74-.65,1.82.5,2.1a14.92,14.92,0,0,0,3.48.15H580.68c1.16,0,2.33-.08,3.49-.12q4.46,6.08,8.9,12.17c-1.31,1.52-3.09,1-4.69,1q-269.1,0-538.21,0a60.84,60.84,0,0,0,6.27-13.79Z"/><path class="k" d="M31.27,525.3c1.26,1.44,1,3.26.68,4.78-1,5.18,1.77,6.43,6.18,7.11,12,1.87,23.93.66,35.83-.33,11.12-.92,16.21,5.4,11.81,16.13a69.2,69.2,0,0,1,6.87-.89c5.59-.17,9.08,2.81,10.06,8.33.71,4.06-2.29,9.34-6.66,10.53-15.56,4.23-31.13,8.44-46.83,12.11-4.25,1-9,0-13.44.09-1.16,0-3.42-1.61-3.46,1,0,1.92,2.08,1.71,3.53,1.86,9.29.91,18.2-1,27-3.65,7.32-2.23,14.65-4.41,22-6.59,6.94-2.06,12.11.05,14,5.68s-1.22,10.78-8.28,13c-8.41,2.63-16.87,5.07-25.33,7.57-2.46.73-4.77.89-2.58,4.75,1.62,2.87.82,6.26-1.56,9.25-5.36,6.74-12.89,9.76-20.46,12.83-2.21.91-4.23-.25-6.29-.79-.84-.25-1.49-.63-1.21-1.68a8.58,8.58,0,0,0-4-4.21c-.81-1.6-1.08-3.41-2-5l-2-5c-1.35-2.14-1.19-4.72-2-7l0,0c-2.27-.9-4.72-1.17-7-2-3.12-.26-3.88-2.87-5-5.08a10.89,10.89,0,0,1,0-6.93,2,2,0,0,0,1-1.92,8.62,8.62,0,0,1,3-3.07,2.09,2.09,0,0,0,2-1c1.62-1,2-2.33,1-4-.77-.29-1.64-1-2.29-.82-5.35,1.31-7.6-1.58-8.7-6.16a8.33,8.33,0,0,1,0-6c.34-.68.68-1.35,1-2a9.22,9.22,0,0,1,3-3c1.3-.7,4.14.13,3-3-.85-1.24,0-3.3-2-4-2.76-2.1-5.42-4.28-6-8a6,6,0,0,1,0-5c1.17-.7,1-1.87,1-3-.5-2.93,1.74-4.27,3.6-5.41,6.11-3.74,12.69-6.59,19.08-9.81A1.39,1.39,0,0,1,31.27,525.3Z"/><path class="l" d="M271.26,278.12,257,251.42c-4.59-10.26-9.32-20.47-13.75-30.8-11.56-26.93-20.52-54.61-25.74-83.57C208.24,85.82,235.17,34.69,267,14.69c7.46-4.7,15.18-8.9,24-10.47.57,2.06-1.38,1.76-2.27,2.25-11.94,6.47-20.82,16-28.34,27.18-10.23,15.16-15.58,32.1-17.9,49.91-1,8.1-1.41,16.56.73,24.75.09.51,0,1.14-.39,1.33-7,3-7.6,9.2-7.29,15.51a54.49,54.49,0,0,0,8.86,27.2c1.78,2.76,4.57,4.31,6.83,6.5a3.07,3.07,0,0,1,.53,1.43c1.27,9.47,4.67,18.34,7.56,27.35a435.34,435.34,0,0,0,16.31,42.9,10.85,10.85,0,0,1,.75,3.89c.41,3.61,2.78,6.46,3.79,9.83.37,1.06-.11,1.25-1,1-2.18-2.08-3.35-5.06-5.94-6.78-5.69-6-9.43-13.21-12.87-20.58-1.38-2.94-3-5.77-4.1-8.83,5,10.56,9.62,21.28,13.8,32.18.87,7.41,5.34,13.42,7.81,20.21.88,2.42,2.14,4.71,2.88,7.23-6.07-5.1-10.12-11.69-14.47-18.18.86,8.9,3.2,17.35,5.92,25.73C272.74,277.29,273,278.18,271.26,278.12Z"/><path class="i" d="M31.27,525.3c-5.87,3-11.73,6.12-17.62,9.11-2.7,1.37-5.23,2.87-6.45,5.85-4.87-4.71-5.5-11.09-6.52-17.21-2.68-16.24,2.62-31.66,14.5-42,3.73,8.68,7.29,17.42,16,22.35A56.48,56.48,0,0,1,31.27,525.3Z"/><path class="m" d="M33.14,626.41l1.21,1.68c-.06,14.41-.14,28.83-.16,43.24,0,21.65.15,43.31-.12,65-.06,5,1.52,6,6.2,6q170.15-.19,340.3-.1h6.27c-2.48,1.51-4.29,1-6,1q-95.44,0-190.89.06c-1.92,0-4-.69-5.76.81l-1.1,0c-7.61-.94-15.25-.32-22.87-.34-40.89-.1-81.78,0-122.67-.07-1.79,0-3.66.49-5.37-.49Q32.11,686.3,32,629.46C32,628.33,31.82,627.09,33.14,626.41Z"/><path class="n" d="M589.05,743.18c5.83,0,11.66-.08,17.48,0,2.55,0,3.73-.88,3.53-3.49-.11-1.32,0-2.66,0-4q0-148.63,0-297.26c0-2.07-.79-4.35.89-6.21,1.07,1.69.53,3.57.53,5.35q0,105.75,0,211.5,0,44.89,0,89.79c0,1.77.57,3.66-.56,5.33l-21.9-.09c-.29-.22-.39-.43-.29-.64S589,743.18,589.05,743.18Z"/><path class="f" d="M543.31,372.31c-2,.05-4,.16-6,.16H326.62c-1.83,0-3.66-.1-5.48-.15a1.42,1.42,0,0,1,0-2.07l0-61.95h12.15c-.85,1.22-1.71.93-2.45.95-8.72.26-8.72.26-8.72,9.24,0,15.48.19,31-.12,46.44-.1,4.91,1,6.47,6.26,6.45q107.36-.28,214.73-.13Z"/><path class="b" d="M32.2,743.15q72.59,0,145.17.06c1.92,0,4-.71,5.74.84-4.45.08-8.9.2-13.36.22-1.68,0-3.31-.07-4.27,1.67-1.28-2.7-3.76-1.63-5.73-1.63q-61-.09-122-.1C35.88,744.21,33.69,745.21,32.2,743.15Z"/><path class="b" d="M589.05,743.18c0,.32,0,.64,0,1l-.47,0-.47-.09c-1.18-1.32-2.77-.89-4.21-.89q-50.39,0-100.75,0H478.3l0-.84c1.32-.07,2.63-.19,3.95-.19q50.84,0,101.67,0C585.63,742.21,587.58,741.55,589.05,743.18Z"/><path class="o" d="M31.44,453.37c1,5.63,1.35,11.25-.21,16.85-5.7-1.44-6.41-4.46-3.27-9.21C29.48,458.71,30.3,455.93,31.44,453.37Z"/><path class="p" d="M23.18,605.19c1.46,2.11,1.68,4.58,2,7C22.88,610.33,23.19,607.72,23.18,605.19Z"/><path class="p" d="M16.2,603.21c2.54-.06,5,.28,7,2C20.67,605.25,18.23,604.93,16.2,603.21Z"/><path class="q" d="M11.21,591.2c0,2.31,0,4.62,0,6.93A5.69,5.69,0,0,1,11.21,591.2Z"/><path class="r" d="M27.2,617.23a5.65,5.65,0,0,1,2,5A5.7,5.7,0,0,1,27.2,617.23Z"/><path class="q" d="M7.17,568.23l0,6A4.55,4.55,0,0,1,7.17,568.23Z"/><path class="s" d="M15.18,586.21a6.83,6.83,0,0,1-3,3.07A2.82,2.82,0,0,1,15.18,586.21Z"/><path class="p" d="M18.19,581.21c1.38,1.76,1.86,3.3-1,4A6.68,6.68,0,0,0,18.19,581.21Z"/><path class="t" d="M11.19,563.21a6.18,6.18,0,0,1-3,3A2.81,2.81,0,0,1,11.19,563.21Z"/><path class="u" d="M12.19,556.22c2.67.33,1.84,2.4,2,4Z"/><path class="v" d="M6.19,543.22c0,1.66,0,3.32,0,5A3.38,3.38,0,0,1,6.19,543.22Z"/><path class="e" d="M321.17,764.44c-8.42-.6-16.87-.5-25.31-1.09-19.62-1.36-39.17-3.07-58.66-5.87a309.27,309.27,0,0,1-41.26-8.35c-2.67-.77-5.5-1.22-7.82-2.94,1-.74,2.24-.49,3.38-.49H318.59a8.54,8.54,0,0,1,2.47.24c2.45,6.08,2.1,12.19.12,18.3Z"/><path class="w" d="M214.68,788.15c9.81,0,19.63,0,29.44,0,5.42,0,6.06.93,6,7.77,0,6.21-.78,7.2-6.1,7.21-19.29,0-38.59,0-57.88.07-4.58,0-6.41-1.92-6.06-6.32a15.72,15.72,0,0,0,0-3c-.51-4.28,1.17-6,5.62-5.84C195.38,788.33,205,788.15,214.68,788.15Z"/><path class="e" d="M321.11,746.17l-133,0c-.17,0-.38,0-.48-.1a3.56,3.56,0,0,1-.46-.62,22.57,22.57,0,0,1,2.82-.33l131,.05c.32.19.45.39.37.62S321.21,746.17,321.11,746.17Z"/><path class="f" d="M321.11,746.17a3.6,3.6,0,0,0-.11-1q29.72,0,59.44-.13c1.78,0,3.66.56,5.35-.54,1.15,0,1.44.64,1.32,1.65-2.2,2.09-5,1.56-7.59,1.57-16.32.07-32.64,0-49,0-6.45,0-6.68.38-6.86,6.76-.09,3.27.74,6.72-1.57,9.64l-.47,0h-.47Q321.15,755.2,321.11,746.17Z"/><path class="k" d="M387.7,746.82c7.49-6.17,8.92-16,14-23.55,1.85-2.74,4.12-4.88,7.62-5,1.95,0,2.57-.94,2.7-2.74.21-2.81.83-5.61.91-8.42.15-5.33,1.41-10,6.82-12.25,5.1-2.16,8.85.64,12.36,4,2.82-6.87,6.7-10,11.41-9.29,5.68.83,8.21,4.5,8.92,13,1.35.86,2-.54,3-.9,5.89-2.17,11.3.56,12.62,6.72,2.25,10.55,4.43,21.15,4.88,32,.12,3,.91,4.41,4,4-.34,5.08-2.35,9.68-4.58,14.11a9.43,9.43,0,0,1-15.22,2.22c-3.12-3.17-5.16-3-8.2,0-4.28,4.17-8.9,3.82-14.77-.46-2.3-.5-4.57-.75-6.51,1-5.65,5.09-9.34,5.37-15.6,1.19-3.92-3.67-8-4.35-12.94-1.62-3,1.65-6.37.5-8.58-2.08C387.75,755.27,385.79,751.46,387.7,746.82Z"/><path class="f" d="M387.7,746.82a60.81,60.81,0,0,0,1.7,7.78,7.7,7.7,0,0,0,11,4.52c7.27-3.73,7.82-3.58,11.78,3.19C408.26,764,404,763.73,400,764c-23.66,1.44-47.35,1.32-71,1.07a57.4,57.4,0,0,1-6.86-.86c0-4,.38-8-.1-11.92-.65-5.34,1.6-6.26,6.42-6.2,19.56.26,39.12.1,58.67.1A1.22,1.22,0,0,0,387.7,746.82Z"/><path class="w" d="M429.25,788.1c9.82,0,19.65.1,29.47-.05,3.76-.06,5.55,1.13,5.42,5.14C464,797,464.46,801,459,801q-30.22.09-60.45,0c-4.91,0-5.36-3.31-5.4-7.17s1.48-5.82,5.61-5.77C408.93,788.18,419.09,788.1,429.25,788.1Z"/><path class="x" d="M397.43,786.31h63.31v.49h-63.5Z"/><path class="f" d="M427.74,761.12c1.57-4.16,3.71-4.65,6.51-1C432.31,761.9,429.94,761,427.74,761.12Z"/><path class="y" d="M241,549.31q2.79,21.29,5.59,42.56c.13,1,.34,2,.43,3,.14,1.59,0,3.17-2,3.36s-2.41-1.42-2.61-3c-.93-7.43-1.83-14.86-2.75-22.29-1.49-12.05-3-24.1-4.44-36.16-.2-1.66-1-4,1.6-4.56,2.15-.49,2.6,1.63,3.46,3C249.45,549.5,257,564.73,264.33,580c2.56-1.23,1-3.21.9-4.93-1.32-13.73-1.79-27.56-4.69-41.12-.37-1.74-1.23-4.07,1.16-4.72,3-.82,2.87,2,3.26,3.83,3.18,14.53,3.26,29.41,5.11,44.09a120.83,120.83,0,0,1,.93,12.45c0,2.09,1.68,5.22-1.53,6-2.77.7-3.14-2.49-4.06-4.26-6.79-13-13.45-26-20.19-39-.92-1.77-2.05-3.43-3.08-5.14C239.86,546.86,240.73,548.26,241,549.31Z"/><path class="y" d="M432,531.31q2.61,20.78,5.19,41.57c.22,1.84,1.29,4.5-1.82,4.7-2.56.16-2.22-2.36-2.44-4.12q-3.62-28.69-7.26-57.4c-.23-1.83-1-3.89,1.5-4.57,2.11-.58,2.73,1.45,3.55,2.83C438.32,527,446,539.69,451.8,553.39a34.57,34.57,0,0,0,3.95,6.83c.56-9.48-1.17-18.72-2.07-28-.62-6.44-.75-13-2.53-19.27-.45-1.6-1.1-4.07,1.55-4.46s2.43,2.22,2.82,3.86c2.84,12,2.85,24.42,4.43,36.61.93,7.25,1.26,14.58,1.86,21.87.13,1.65.59,3.58-1.55,4.2s-2.76-1.22-3.52-2.73q-10.12-19.75-20.31-39.49c-1-1.92-2.24-3.69-3.37-5.53-.45,0-1-1.28-1.29-.11A5.48,5.48,0,0,0,432,531.31Z"/><path class="y" d="M281,543.19c0-4.25.3-8.33,2.68-12.05a12,12,0,0,1,11.44-5.75c4.77.27,8,2.91,9.81,7.33a45,45,0,0,1,3,15.61c.52,13,2.23,25.85,3.69,38.75.21,1.87.87,4-1.82,4.23-2.25.21-2.34-1.87-2.62-3.52-1.58-9.2-1.58-9.2-10.89-8.35-7.39.68-7.45.74-6.83,8,.07.83.25,1.65.36,2.47.2,1.61.08,3.16-1.93,3.38s-2.51-1.25-2.61-2.88c-.23-3.82-.28-7.65-.65-11.46C283.42,567,282.16,555.1,281,543.19Z"/><path class="y" d="M186.44,580.54a65.06,65.06,0,0,1-1.08,11.88c-2.11,10.35-10,13.84-19.31,14.93-3.14.37-4.44-1.48-4.75-4.43q-2.56-24.79-5.23-49.58c-.27-2.48-.17-5.1-1-7.39-1.64-4.56,1-5.68,4.46-6.23a18.05,18.05,0,0,1,19.18,9.68A64.7,64.7,0,0,1,186.44,580.54Z"/><path class="z" d="M416.15,559.71a42.43,42.43,0,0,1-1.41,13.38c-2.62,8.85-9.7,10.53-16.23,4-3.8-3.81-5.69-8.5-6.79-13.65-2.91-13.61-5-27.17.29-40.73,2.33-5.94,5.71-8.64,11-8.3,4.94.31,8.1,3.27,9.07,9.63C413.88,535.87,415.46,547.75,416.15,559.71Z"/><path class="y" d="M225.47,580.22c0,4.67-.07,9.34-1.43,13.86-2.46,8.18-9.45,9.92-15.67,4-6.69-6.34-7.53-14.91-9-23.22-1.88-10.62-1.91-21.15,2-31.42,1.39-3.69,3.25-7,7.5-8,6.15-1.49,10.87,1.12,12.27,7.67C223.72,555.36,224.49,567.81,225.47,580.22Z"/><path class="z" d="M476.78,521.32c-.45,7.06,4,12.23,10.44,16.34,8.16,5.23,12.06,12.66,10.86,22.4-1.05,8.53-8.17,14.24-15.4,12.59a10.37,10.37,0,0,1-7.63-10.87c.16-1.3.64-2.27,2-2.4s2.06.87,2.3,2.1c.74,3.7,1.31,7.56,6.58,6.85,5-.68,6.93-4.47,7.64-8.69,1.42-8.43-2.62-14.43-9.51-18.73-6.26-3.9-10.5-9.13-11.61-16.57-.73-4.84-.72-9.62,1.85-14.05a9.5,9.5,0,0,1,9.52-5.09c4.19.27,7.13,2.42,9.34,5.8.8,1.23,1.05,2.52-.23,3.57a1.88,1.88,0,0,1-3-.48c-2.24-3.23-5.07-5.87-9.1-3.89S476.7,516.28,476.78,521.32Z"/><path class="aa" d="M516.9,482.93c12.6-3.84,17.3-2.3,24.49,8.59,1.39,2.11,2.35,1.58,3.93.67a17.27,17.27,0,0,1,10.5-2.51c12.2,1.24,18.66,11.39,14.53,23-3.08,8.66-9,15.08-16.83,19.69a49.81,49.81,0,0,1-8.52,4.1c-20.55,7.26-15.1,8.54-28.32-9-4-5.26-7.28-11.13-7.71-18.06a53.94,53.94,0,0,1,0-14.36c-.11-2.74,1.31-4.88,2.77-7,1-.4,1.43.15,1.8.92.27,2.45-1.23,4.46-1.62,6.75a34.13,34.13,0,0,0,0,12.86c2.4,10,8.19,18.09,14.58,25.86,2.09,2.55,4.24,3.06,7.41,2,10.26-3.29,20.06-7.14,27.31-15.7a27.76,27.76,0,0,0,5.8-10.35c1.39-4.91,1.29-9.81-2.95-13.33a14.39,14.39,0,0,0-15.91-2.23,21.45,21.45,0,0,0-3.81,2.37c-2.24,1.6-4.14,1.48-5.11-1.27-3.44-9.72-10.44-12.75-20.11-11a3,3,0,0,1-1.47-.25C517,484.35,516.5,483.83,516.9,482.93Z"/><path class="z" d="M363.71,522.11c-1.92.08-4,.63-4.45-1.57-.54-2.72,2-2.67,3.65-3,3.59-.66,7.23-1.11,10.85-1.54,1.33-.16,2.87-.15,3.14,1.61s-.91,2.5-2.38,2.57c-2.48.11-2.94,1.14-2.5,3.53,3,15.89,3.34,32.06,5.15,48.07.38,3.35-1,8.19,5.29,7.73.8,0,1.38.87,1.48,1.77a1.62,1.62,0,0,1-1.21,1.92c-4.59.74-9.18,1.41-13.79,2a1.73,1.73,0,0,1-1.92-1.84,2,2,0,0,1,2.1-2.27c4.54,0,4.29-2.9,3.95-6.11-1.72-16.2-3.3-32.41-5.07-48.6C367.73,524,367.92,520.32,363.71,522.11Z"/><path class="aa" d="M133.77,651.4c-14.1-1.16-26.64-3.37-35.78-14-4.37-5.06-6.75-10.85-4.25-17.48,2.28-6,7.49-10.18,13.41-9.34,7.12,1,9.38-1.84,12.79-7.23,6.36-10,19.56-8.94,25.36,1.46,5.19,9.32,4.85,19.18,1.39,29C145.2,638,143,642,141.36,646.16S137.28,652.49,133.77,651.4Z"/><path class="ab" d="M322.21,527.62c-1.48.25-2.73-.06-3-1.73s.84-2.43,2.3-2.6q12.11-1.45,24.22-2.83A2,2,0,0,1,348,522a2,2,0,0,1-1.62,2.63,57.4,57.4,0,0,1-8.32,1.42c-2.53.16-3,1.23-2.74,3.49,2.1,17.81,2.83,35.76,5.43,53.52.28,1.86,1.18,4.51-1.71,4.84s-2.6-2.47-2.79-4.33c-1.71-16.85-3.62-33.68-4.87-50.57-.38-5.09-1.75-7-6.73-5.66A18.18,18.18,0,0,1,322.21,527.62Z"/><path class="ac" d="M513.2,489.54l-1.45-1.49a10.35,10.35,0,0,1,5.15-5.12l1.52,1.5A6,6,0,0,1,513.2,489.54Z"/><path class="ad" d="M509,495.06q0,7.19,0,14.36A23.62,23.62,0,0,1,509,495.06Z"/><path class="ae" d="M432,531.31c-1.16-1.93-1.06-4-.76-6.15,1.38.16,1.5,1.2,1.81,2.1C431.53,528.3,432.46,530,432,531.31Z"/><path class="af" d="M265.23,575.1a6.31,6.31,0,0,1,.77,5.55c-.88,2.31-1.25.12-1.67-.62C265.77,578.59,264.68,576.7,265.23,575.1Z"/><path class="ag" d="M241,549.31c-.89-1.07-1.35-2.44-.35-3.4.61-.57,1.29.49,1.51,1.3C241.16,547.58,241.26,548.55,241,549.31Z"/><path class="e" d="M321.11,370.25l0,2.07c-1.16.06-2.33.18-3.49.18H78.35c-1,0-2-.09-3-.13-1.09-1.35,0-1.81,1-1.95a31.85,31.85,0,0,1,4.48-.16Z"/><path class="ah" d="M321.13,54.46c5-.32,9.94-.76,14.92-.91,4.66-.14,8.92-1.12,12.22-4.65,1.21-1.29,2.27-1.39,3.92-.59,26.36,12.78,41.21,33.3,42.52,63-2.18,12.29-6.57,24-9.57,36.06-1.25,5-2.64,5.51-7.54,3.14C363.26,143.55,349.2,136,335,128.73c-4.71-2.42-9.35-5.07-14.62-6.22-1.2-.26-2.79-.48-2.41-2.46,1.46-2.75,1.53-5.72,1.53-8.73q0-24.64,0-49.28C319.57,59.43,319.11,56.67,321.13,54.46Z"/><path class="ai" d="M321.13,54.46c0,20.31-.06,40.63.05,60.94,0,2.72-.59,4.74-2.94,6.13a1.7,1.7,0,0,1-.2,2.16c-17.47,8.12-34.72,16.67-51.66,25.87l-1.31.71c-8.4,4.45-9.08,4.21-11.58-5.06-3.2-11.87-6.71-23.64-9.81-35.53a2.61,2.61,0,0,1,.31-1.5c15-30.07,37.16-50.53,72.18-53.69C317.81,54.35,319.48,54.46,321.13,54.46Z"/><path class="aj" d="M318,123l.21-1.49c3.89-.79,7.17.89,10.45,2.56,16.61,8.46,33.29,16.81,49.79,25.51,3.79,2,4.6.88,5.52-2.61,2.87-10.93,6.06-21.79,9.05-32.7a7.19,7.19,0,0,1,1.66-3c1.11,12.36-2.39,24.22-4.07,36.27-.54,3.9-1.57,7.74-2.37,11.6-5.17,15.51-13.8,29.36-20.87,44-3,6.31-6.21,12.49-12.35,16.46a17.84,17.84,0,0,1-7,1.88c-9.76.87-19.51,2.53-29.33.62a3.06,3.06,0,0,1-1.38-1.33,11.19,11.19,0,0,1-.79-4.89q-.07-31.23,0-62.46a16.8,16.8,0,0,1,.33-3.47c2.43-4,4.07-4.62,9-2.43,8.82,3.88,17.75,7.51,26.5,11.53,3.17,1.46,6.44,2.68,9.58,4.2,2.29,1.1,4.47,1.27,6.36-.77,3.07-.62-.52-2.57.69-3.56,2.6-3.25-.27-3.93-2.34-4.78-13-5.41-25.88-11.25-38.84-16.84-3.34-1.44-6.95-2.17-10.09-4.11A10.34,10.34,0,0,1,318,123Z"/><path class="ak" d="M373,242.35c-9.4-6.38-12.34-15-9.24-25.9a30.53,30.53,0,0,0,.6-4.42c-1-2.2.53-3.91,1.36-5.57,5.93-11.91,12.31-23.58,18.22-35.5.64-1.3,1.22-2.81,3.06-2.92-1.36,8.81-2.54,17.65-4.14,26.42C380,209.91,377,225.3,374,240.71A5.53,5.53,0,0,1,373,242.35Z"/><path class="i" d="M244,108.18a1,1,0,0,1,.13.6c2,8.75,2,17.74,3.15,26.59.82,6.43,2,12.77,3.45,19.07.36,1.59,1,3.21,0,4.79-6.05-2.22-8.51-7.58-11.09-12.8a52,52,0,0,1-5.3-24.6c.15-6.26,1.75-11.78,8.92-13.52A7,7,0,0,0,244,108.18Z"/><path class="al" d="M387,168q-11.33,22-22.64,44c-2.81,2.86-5,6.47-9.3,7.53C369,202,376.6,180.81,387,161.21c.38-.71.87-1.36,1.3-2.05A26.22,26.22,0,0,1,387,168Z"/><path class="am" d="M378,246.36a1.8,1.8,0,0,1-.88-.39,13.16,13.16,0,0,1,3.92-6.69A10.24,10.24,0,0,1,378,246.36Z"/><path class="an" d="M380.15,281.34c-.15,1-.55,2.54-1.4,2.08-1.42-.76-.63-2.15.27-3.18Z"/><path class="ao" d="M373.11,250.3c-.29.74-1,1.75-1.55,1.18-.94-1-.52-2.27.5-3.23C372.22,249,372.21,249.9,373.11,250.3Z"/><path class="ap" d="M250.68,159.23c-5.05-16.44-6.61-33.34-6.56-50.45,4.83,12.58,7.73,25.73,11.13,38.72,1.12,4.26,2.11,5.31,6.44,3,15.55-8.27,31.34-16.1,47-24.08,3-1.51,5.86-3.19,9.3-3.4.74,3.46-1,7.18,1.09,10.5-.35,2.31-2.5,2.47-4,3.17-12.08,5.51-24.34,10.62-36.48,16-2,.9-4.39,1.35-6,3.81,2.56.51,4.28-.63,6-1.4,11.35-5.12,22.93-9.69,34.22-14.94,1.75-.82,3.58-1.92,5.66-.83a3.43,3.43,0,0,1,.52,2.83c-.71,2.21-2.74,2.72-4.54,3.54-10.28,4.7-20.73,9-31.11,13.54-2.22,1-4.7,1.63-6.76,4.13,2.83.66,4.76-.72,6.72-1.58,10-4.46,20.07-8.89,30.22-13.06,1.48-.61,3-1.72,4.65-.43q0,36.42,0,72.84c-6.61,3.26-13.3,1.8-20,.33-9,.74-16-2.71-21.06-10.15a4,4,0,0,1-2.44-2.34c-7.38-15-16.07-29.43-22.63-44.89-.51-1.2-1.3-2.34-1-3.77C250.9,160,250.79,159.6,250.68,159.23Z"/><path class="ak" d="M251,160.32l26.1,51c.92,5.31,2.61,10.49,2.1,16-.25,2.7-.73,5.19-2.83,7.09-5.52-9.44-8.82-19.86-12.86-29.92s-7.07-20.58-10.09-31C252.2,169.24,250,165,251,160.32Z"/><path class="aq" d="M270,241.25c-.32-.08-.85-.08-.93-.26-4.81-11.14-9.59-22.29-13.79-33.71,5,8,8.74,16.6,14,24.38,1.47,2.17,3.48,4.05,3.91,6.82Z"/><path class="ar" d="M298.16,221.47l20-.33,0,.37c4.32.73,7.54,4.22,11.93,4.78C318.87,228.63,308.16,227.4,298.16,221.47Z"/><path class="as" d="M330.12,226.29c-1.47,0-2.95.1-4.4,0-2-.18-5,1.14-4.36-3.12.18-1.32-2.43-.36-3.17-1.63l29.86,0Z"/><path class="at" d="M271.26,278.12c.3-.62.61-1.25.91-1.88,1.41,1.9,1.87,4.11,2.35,7A9.94,9.94,0,0,1,271.26,278.12Z"/><path class="au" d="M279.14,245.26l1-1a3.87,3.87,0,0,1,1.54,3.27C280.12,247.5,279.67,246.34,279.14,245.26Z"/><path class="av" d="M64.16,557.34l4-.14c.34.22.45.44.33.65s-.23.31-.34.31a92.71,92.71,0,0,1-32.76,4.05c-1.23-.06-3.06.43-3.13-1.46s1.79-1.59,3-1.5c7.64.58,15.14-1.46,22.76-1.13C60,557.15,62.21,558.32,64.16,557.34Z"/><path class="aw" d="M45.38,608.52c-1.2,1.62-2.29,3.13-4.11,1.94-.28-.18-.26-.81-.38-1.23Z"/><path class="ax" d="M64.16,557.34c-1.88,1.56-4.07.69-6.13.78C59.93,556.78,62.08,557.33,64.16,557.34Z"/><path class="ax" d="M68.17,558.16c0-.32,0-.64,0-1,1-.36,1.9-1.17,3.12-.56C71,558.66,69.38,558,68.17,558.16Z"/><path class="ay" d="M452,718.35c.65,7.42,1.34,14.84,1.94,22.27.09,1.21.67,3-1.15,3.33-2,.31-1.55-1.64-1.82-2.83-1.53-6.9-.73-13.9-.8-20.86C451,719.85,449.94,717.62,452,718.35Z"/><path class="az" d="M429.21,742.21c.09-2.39-.78-4.89.93-7.44,1.41,1.49.84,3.07.82,4.53C429.9,740,431.61,742.33,429.21,742.21Z"/><path class="ba" d="M452,718.35l-1.83,1.91c0-.8-.12-1.6-.07-2.4s-.11-2.33,1.23-2.06C452.35,716,452,717.4,452,718.35Z"/><path class="bb" d="M429.21,742.21,431,739.3c0,1.12.09,2.23.09,3.34,0,.69-.36,1.37-1.08,1.09C429.59,743.58,429.46,742.74,429.21,742.21Z"/><path class="b" d="M286.07,545.06c0-2.66-.37-5.38.09-8,.68-3.87,2.83-6.7,7.19-7.09s6.68,2,7.94,5.93c2,6.28,1.88,12.81,2.58,19.23.56,5.12.67,10.3,1.33,15.4.42,3.19-.92,4.2-3.73,4.31-3,.13-6.05,0-9,.57s-3.87-.4-4.12-3.09c-.85-9.09-1.8-18.18-2.71-27.27Z"/><path class="b" d="M182.15,580.63a38.91,38.91,0,0,1-1.78,12.77c-1.58,5.08-7.2,9.12-12.43,9.26-3.07.08-2.34-2.44-2.51-3.87-1.23-10.22-2.25-20.46-3.31-30.69-.71-6.77-1.3-13.55-2.12-20.3-.36-3,.75-3.79,3.58-3.55,5.73.48,9.48,3.46,11.88,8.53A65.48,65.48,0,0,1,182.15,580.63Z"/><path class="b" d="M411.69,556.76c.29,5.36.15,10.67-1.6,15.77-1.59,4.62-4.13,5.05-7.76,1.79a18.84,18.84,0,0,1-5.78-10.24c-2.94-13.19-5.47-26.4-.38-39.69,1.14-3,2.44-5.42,6.25-5.31,4.06.12,5,3.14,5.4,6C409.28,535.65,410.42,546.21,411.69,556.76Z"/><path class="b" d="M203,564.39a43.23,43.23,0,0,1,3.29-21.14c1.09-2.69,3.23-3.72,5.95-3.59a4.49,4.49,0,0,1,4.38,4.1c2.37,15.41,5.7,30.75,3.6,46.49-.37,2.81-.87,6-4.14,6.75-3.08.69-4.69-2.06-6.26-4.15-5.15-6.86-5.57-15.12-6.53-23.19C203.1,567.68,203.11,565.68,203,564.39Z"/><path class="b" d="M513.2,489.54l5.22-5.11c11-3.52,17.22.08,23.05,13.39a56.79,56.79,0,0,1,5.72-3.86c6.07-3.12,11.92-2.43,17.29,1.7,4.44,3.41,5.89,9,3.79,15.41-3.39,10.29-10.84,16.89-20.29,21.5a122.44,122.44,0,0,1-15.89,5.86c-2.24.73-3.57.45-5.12-1.39-7-8.34-13.51-16.9-16-27.82a46.21,46.21,0,0,1,.05-14C511.1,493.08,512.18,491.32,513.2,489.54Z"/><path class="ad" d="M511,495.23q0,7-.05,14A21,21,0,0,1,511,495.23Z"/><path class="b" d="M146.94,620.59c-.72,9.73-4.36,18.26-8.82,26.52a3.11,3.11,0,0,1-3.18,1.92c-10.82-.94-21.63-1.84-30.65-9a29.89,29.89,0,0,1-6.16-6.5c-3.72-5.39-4-11.09-.71-15.34,3.92-5.11,10.5-7.21,16.5-4.4,3.71,1.75,4.61,1.17,5.17-2.73,1-6.66,5.69-11.13,11.72-11.86s10.55,2.39,13.48,8.93C146.09,612.19,146.42,616.51,146.94,620.59Z"/><path class="bc" d="M318.23,139.41c-13.11,5.66-26.16,11.45-39.38,16.84-2.2.89-5.59,4.92-7.42.52-1.53-3.67,3.26-3.67,5.34-4.61,14-6.4,28.22-12.47,42.35-18.64,3.65-.93,6.36,1.51,9.32,2.76,13.74,5.81,27.4,11.8,41.06,17.78,1.11.49,3,.57,2.85,2.25a3,3,0,0,1-3.22,3.07c-1.79.72-3.19-.36-4.68-1-13-5.65-26-11.4-39.08-17C323.06,140.36,320.57,140.21,318.23,139.41Z"/><path class="bc" d="M318.13,148.3l-33,14c-2.14.91-4.32,1.74-6.39,2.77-1.85.92-3,.75-3.92-1.29-1.11-2.44.84-2.36,2.07-2.9q18.93-8.31,37.87-16.59c1.21-.52,2.55-.8,3.36-2,2.29-1.84,4.75-1.27,7.08-.26,13.27,5.77,26.58,11.47,39.81,17.34,1.5.67,3.09,1.33,3.83,3-.44,4.18-2.64,4.2-5.88,2.75-11.83-5.28-23.68-10.5-35.59-15.57C324.51,148.31,321.6,145.71,318.13,148.3Z"/><path class="bd" d="M368.86,162.35c-14.18-6.14-28.39-12.24-42.53-18.48a15.73,15.73,0,0,0-8.19-1.6l.09-2.86a4.28,4.28,0,0,1,4.62-.45c15.44,6.78,31.1,13,46.28,20.42.55.56,1.32,1,1.61,1.71a6.07,6.07,0,0,1,.1,2.27Z"/></svg>