<svg xmlns="http://www.w3.org/2000/svg" xmlns:xlink="http://www.w3.org/1999/xlink" viewBox="0 0 960 540"><defs><style>.a{fill:none;}.b{opacity:0.3;}.c{clip-path:url(#a);}.d{fill:#83d2cf;}.e{fill:#fed904;}.f{opacity:0.1;}.g{fill:#ffa35c;}.h{fill:#f09956;}.i{fill:#0081be;}.j{opacity:0.06;}.k{fill:#f57800;}.l{fill:#945b2c;}.m{fill:#7c4518;}.n{fill:#00a384;}.o{fill:#ffbb87;}.p{fill:#f5ac76;}.q{fill:#f93a2f;}.r{fill:#273e52;}.s{fill:#dd374d;}</style><clipPath id="a"><rect class="a" y="0.65" width="960" height="540"/></clipPath></defs><g class="b"><g class="c"><rect class="d" x="-0.16" y="0.6" width="960" height="540"/><rect class="e" x="-53.14" y="380.19" width="1098.57" height="159.81"/><path class="e" d="M413.55,338c108-26.06,202.65-70.75,317.83-86.29,76.38-10.3,198.35-12.35,314.41,47.23v85.75H-52.78V319.94c31.48,8.73,94.58,24,174.43,32.41C218.93,362.6,321.54,360.2,413.55,338Z"/><path class="f" d="M787.54,395.66l-11-72.16a1.91,1.91,0,0,0-1.93-1.65c-.86,0-1.73,0-2.61,0l-.92,0c0-1.06,0-2.11.1-3.13,0-.45.06-.91.1-1.35s.12-1,.2-1.55a23.93,23.93,0,0,1,1.58-5.56h0a30.08,30.08,0,0,1,3.5-6c.56-.77,1.16-1.53,1.78-2.29.94-1.15,1.94-2.3,3-3.49l1.07-1.2a80.61,80.61,0,0,0,6.31-8.21l.34-.51a81,81,0,0,0,8.63-16.25c.18-.49.34-.95.5-1.4,1.27-3.59,2.06-6.13,3-8.7.07-.16.12-.32.19-.48.12-.32.25-.65.38-1,.73-1.8,1.6-3.72,2.84-6.13.68-1.3,1.28-2.57,1.83-3.83,2.43-5.48,4.06-10.74,7.5-17.72.22-.45.43-.89.61-1.33,3.3-7.74.07-12-10.54-7.27-11.2,4.93-13.45,19.53-21.21,27.79-1.19,1.28-2.57,2-4,1.47h0a3,3,0,0,1-.55-.25l-.13-.08-.06,0,0,0-.16-.11s0,0,0,0l-.33-.26-.13-.11-.06-.07a2.76,2.76,0,0,1-.29-.3l-.21-.25-.08-.09-.08-.11a.36.36,0,0,1-.07-.1l-.14-.18a.36.36,0,0,0-.07-.1l-.21-.34,0-.06,0,0c0-.09-.1-.18-.16-.27a.91.91,0,0,0-.07-.14,13.74,13.74,0,0,1-1.5-4.08l-.06-.3-.09-.56c0-.12,0-.24,0-.36s0-.33,0-.5c0-.32-.06-.64-.07-1a.66.66,0,0,1,0-.14c-.07-1.44,0-3-.08-4.7v-.1c0-.3,0-.61,0-.93a2.81,2.81,0,0,1,0-.29v0a2.09,2.09,0,0,0,0-.25c0-.62,0-1.29-.07-2a.34.34,0,0,1,0-.1c-.07-1.68-.13-3.57-.17-5.46,0-.64,0-1.27,0-1.9s0-1.24,0-1.83,0-1.17,0-1.71c0-.13,0-.24,0-.36s0-.3,0-.45c0-1.35,0-2.69.1-4,0-.15,0-.31,0-.46,0-.83.07-1.66.11-2.5,0-.44,0-.88.07-1.33,0-.14,0-.29,0-.43.17-3.08.39-6.14.6-9.2.08-1.1.16-2.2.23-3.3,0-.08,0-.15,0-.22q.28-4.17.44-8.38v-.15q.08-2.11.09-4.26v-2.31c0-.18,0-.36,0-.53.06-4.8.14-9.41.1-14.16v-.27c0-.28,0-.56,0-.84,0-.75,0-1.5,0-2.26v0s0,0,0,0v0c0-1.59-.07-3.22-.14-4.89-.84-9.12-12.44-13-14.41,6.62-.47,4.73-1.79,17.22-2.35,23.26s-2,19.14-2.22,23.87c-.2,4.3-1.3,9.23-2.88,9.08h0c-.82-.07-1.76-1.52-2.77-5.16-.61-2.23-1.14-4.55-1.6-6.91q-.3-1.56-.57-3.15l0-.15c-.57-3.4-1-6.85-1.46-10.22,0-.4-.1-.8-.14-1.19-.11-.84-.21-1.68-.31-2.51l-.09-.73-.12-1-.18-1.49c-.09-.7-.17-1.4-.27-2.08,0-.13,0-.25-.05-.37l-.15-1.14c0-.17,0-.35-.07-.52s0-.31-.07-.46c0-.35-.09-.69-.14-1h0c-.08-.49-.15-1-.22-1.45-.18-1.14-.34-2.2-.5-3.22,0-.22-.06-.45-.1-.67s-.09-.63-.14-.93l-.09-.67c-.25-1.68-.47-3.23-.69-4.7v0c0-.09,0-.18,0-.26s0-.33-.07-.49-.07-.49-.11-.73c-.53-3.69-1.06-7.07-1.87-11.28l-.06-.33c-.49-2.58-.79-4.62-1.28-6.49h0v0a17,17,0,0,0-1.78-4.37,7.69,7.69,0,0,0-1.91-2.23,5.64,5.64,0,0,0-1.49-.83,5.4,5.4,0,0,0-.78-.24c-4.1-.82-8.78,3.58-8.47,13.74.16,5.53,1.11,16.39,1.74,23.79s3.17,29.64,3.19,36.12c0,4.35-1,5.77-2,5.7h-.06a1.09,1.09,0,0,1-.26-.05h-.06l-.28-.16s0,0,0,0l0,0a2.61,2.61,0,0,1-.5-.54l-.07-.11-.15-.25c-.06-.1-.12-.2-.17-.3s-.11-.2-.16-.3-.2-.42-.3-.64a2.44,2.44,0,0,0-.1-.24c-.1-.26-.21-.52-.31-.81h0c-.12-.33-.24-.68-.36-1v0c-.23-.73-.46-1.52-.7-2.37,0-.09,0-.19-.07-.28-1.2-4.43-2.52-10.48-4.86-17.68-.38-1.17-.77-2.51-1.18-4l0-.15c-.09-.33-.18-.65-.27-1l-.43-1.63,0-.11c-.42-1.59-.84-3.27-1.27-5l-.48-1.94c-1.45-5.91-2.93-12.09-4.28-16.67a47.43,47.43,0,0,0-2.89-8v0h0v0h0a7.85,7.85,0,0,0-2-2.7c-3.69-2.63-11-2-9,11.38.68,4.45,3,16,4,22.66s2.84,19.23,4.41,26.45c1.27,5.84,3.41,15.3.91,15.4h0a1.77,1.77,0,0,1-1.1-.47l0,0-.09-.08-.19-.17-.13-.13-.05-.06a5.57,5.57,0,0,1-.39-.43l0-.06-.1-.12a.36.36,0,0,0-.07-.1l-.27-.38c-.14-.19-.28-.4-.42-.62l-.36-.57-.09-.15-.09-.15h0l-.06-.11c-.13-.21-.25-.43-.37-.67l0-.05-.22-.42-.18-.34c-.14-.26-.26-.53-.39-.8a2.26,2.26,0,0,1-.11-.22l-.13-.27a2,2,0,0,1-.12-.27l-.1-.22c-.14-.29-.27-.58-.4-.87v0l0-.05c-.07-.17-.15-.34-.22-.52s-.16-.35-.23-.53c-.14-.34-.29-.69-.42-1L701,228c0-.12-.09-.23-.13-.35s-.17-.48-.26-.71-.19-.53-.29-.8c0-.11-.07-.23-.11-.34s-.17-.47-.24-.71-.19-.55-.28-.83-.13-.43-.2-.64v0a3.37,3.37,0,0,0-.1-.34l-.09-.32,0-.17c0-.15-.09-.31-.14-.45-1.45-5.11-3.75-9.35-5.75-15.14-.09-.26-.18-.54-.29-.83a42.59,42.59,0,0,0-1.88-4.67,23.55,23.55,0,0,0-1.22-2.26h0c-.16-.26-.31-.51-.48-.75-3.88-5.72-11.15-3-9.62,9,1.17,9.3,4.72,19,7.92,27.73s5.68,14.26,7.18,22.54,3.13,16.17,5.39,24.21,8,18.62,11.55,24.83,4.48,8,5.39,13.66a37.37,37.37,0,0,1,.49,5c0,.9,0,1.76,0,2.65l-.35,0a27.46,27.46,0,0,1-3.39.08,1.81,1.81,0,0,0-1.84,2l12.06,264.58,92.13-9.38Z"/><path class="g" d="M808.42,225.57c-.18.43-.39.87-.61,1.32-3.45,7-5.08,12.25-7.5,17.73-.56,1.26-1.15,2.53-1.83,3.83-1.24,2.41-2.11,4.33-2.84,6.13-.13.33-.26.66-.38,1-.07.16-.12.32-.19.48-1,2.57-1.76,5.11-3,8.7-.16.44-.32.91-.5,1.4a81,81,0,0,1-8.63,16.25l-.35.51a79,79,0,0,1-6.3,8.2l-1.07,1.21c-1.06,1.19-2.06,2.34-3,3.49-.62.76-1.22,1.52-1.78,2.29a30.28,30.28,0,0,0-3.5,6s0,0,0,0a23.79,23.79,0,0,0-1.58,5.56c-.08.51-.15,1-.2,1.55s-.08.9-.11,1.35a64.11,64.11,0,0,0,0,7.33c0,.92.1,1.85.17,2.77.42,5.59,1.18,11.17,1.41,15.54.41,7.45,1.32,10.49,2,17.09l-2.66.34-55.18,7.08c.4-6.74,1.53-26.1,1.17-33.2,0-.29,0-.56-.06-.8-.06-.8-.12-1.54-.15-2.23-.14-2.85,0-4.83-.11-7.06a39.44,39.44,0,0,0-.49-5c-.92-5.69-1.89-7.42-5.39-13.65S696.43,284,694.17,276s-3.89-15.93-5.38-24.22-4-13.74-7.18-22.53-6.75-18.43-7.92-27.73c-1.53-12,5.73-14.73,9.62-9,.17.24.32.49.48.75a38.66,38.66,0,0,1,3.39,7.76c2,5.78,4.3,10,5.75,15.13l.12.42.07.21.09.32c0,.11.06.22.1.33s.13.45.21.67.17.55.27.83l.36,1.05c.17.51.36,1,.55,1.51s.38,1,.57,1.51l.42,1c.16.35.31.7.46,1.05l0,.08c.11.25.22.51.34.76s.11.22.16.33a2.86,2.86,0,0,0,.12.27c0,.08.09.17.13.27.15.34.33.69.5,1s.27.52.4.76l0,.1c.14.26.27.5.41.73h0c.06.1.12.21.18.3s.24.38.35.57c.24.36.47.69.7,1l.17.22.24.29a2,2,0,0,0,.25.25,3.73,3.73,0,0,0,.41.39l.19.15a2.07,2.07,0,0,0,.39.23l.19.07a1.49,1.49,0,0,0,.36,0c2.5-.1.36-9.56-.91-15.4-1.57-7.22-3.39-19.74-4.41-26.45s-3.36-18.21-4-22.66c-2.05-13.39,5.28-14,9-11.38a7.85,7.85,0,0,1,2,2.7h0l0,0v0a46.76,46.76,0,0,1,2.9,8c1.35,4.58,2.82,10.75,4.28,16.67.17.69.34,1.39.51,2.07.43,1.71.85,3.39,1.27,5l.49,1.86c.49,1.81,1,3.47,1.43,4.88.71,2.2,1.32,4.28,1.88,6.25.18.65.35,1.29.52,1.92.25.94.49,1.86.72,2.74.15.58.29,1.15.43,1.71s.28,1.1.41,1.62.26,1,.39,1.53.25,1,.38,1.43.23.91.36,1.34.17.58.25.86a18.39,18.39,0,0,0,1.86,4.56l.13.2c0,.07.1.12.15.18a1.79,1.79,0,0,0,.32.3,1.45,1.45,0,0,0,.34.19.94.94,0,0,0,.36.08c1,.07,2-1.35,2-5.7,0-6.48-2.53-28.7-3.18-36.12s-1.58-18.26-1.74-23.79c-.32-10.16,4.37-14.56,8.47-13.74a4.65,4.65,0,0,1,.78.24,5.64,5.64,0,0,1,1.49.83,8,8,0,0,1,1.91,2.23,17.13,17.13,0,0,1,1.78,4.36v0c.51,1.95.81,4.09,1.34,6.82h0c.53,2.76.94,5.16,1.3,7.52.14.86.27,1.72.4,2.59s.26,1.74.39,2.64c.06.45.12.91.19,1.38,0,.23.08.47.11.71.1.71.2,1.45.32,2.21.08.51.15,1,.23,1.58s.16,1.09.25,1.65h0c.13.85.27,1.74.41,2.68s.3,1.93.44,2.93q.14,1,.27,2c.09.68.18,1.37.27,2.08s.17,1.41.26,2.13l.13,1.07c.13,1.08.26,2.17.4,3.27.59,4.71,1.24,9.57,2.17,14.25,0,.15,0,.28.08.42.28,1.38.58,2.75.91,4.09.17.7.36,1.4.55,2.1,1,3.64,2,5.09,2.77,5.16,1.57.16,2.68-4.77,2.88-9.07.22-4.73,1.64-17.82,2.21-23.87s1.89-18.53,2.36-23.26c2-19.64,13.57-15.74,14.41-6.62.07,1.67.1,3.3.14,4.89v0s0,0,0,0v.12c0,1,0,2,0,3v.27c0,4.75,0,9.36-.1,14.16,0,.41,0,.82,0,1.23v1.61c-.06,7.27-.66,14.31-1.13,21.39-.09,1.32-.17,2.65-.24,4a5.63,5.63,0,0,0,0,.58c-.08,1.24-.14,2.48-.18,3.73q-.09,2.28-.12,4.59c0,.26,0,.53,0,.81,0,.54,0,1.11-.05,1.71s0,1.2,0,1.83,0,1.26,0,1.9c0,1.88.1,3.78.17,5.46a.34.34,0,0,0,0,.1c0,.81.06,1.56.08,2.24v0c.15,3.46-.09,6.1.41,8.72a13.82,13.82,0,0,0,1.53,4.21l.12.23a1.37,1.37,0,0,0,.13.2c.09.15.16.28.25.41l.21.28a.36.36,0,0,0,.07.1l.08.1c0,.07.1.12.14.18l.15.17c.09.11.19.2.29.31l.18.16.37.31a.55.55,0,0,1,.14.09l.05,0,.09.07.1.06a1.43,1.43,0,0,0,.28.13,1.69,1.69,0,0,0,.27.11h0c1.39.48,2.78-.19,4-1.47,7.76-8.26,10-22.86,21.21-27.79C808.49,213.62,811.72,217.83,808.42,225.57Z"/><path class="h" d="M769.44,163c0,1,0,2.08,0,3.1v.27l-.11,15.39,0,1.61c-.1,11.63-1.56,22.68-1.7,34.26-.24,4.14,0,10.35.19,14.09.23,5.27-.43,8.66,1.94,12.94.08.15.16.29.25.43a3.73,3.73,0,0,0,.25.39l.21.3c0,.06.09.13.15.19a3.24,3.24,0,0,0,.29.34,2.87,2.87,0,0,0,.29.31l.18.18.37.29.19.13.19.11a3.87,3.87,0,0,0,.55.25c-1.77,1-3.74.55-5.49-2.6-2.37-4.27-1.71-7.66-1.93-12.93-.16-3.74-.44-9.95-.2-14.09.14-11.58,2.7-19.8,2.8-31.44C767.93,180.06,769,170.9,769.44,163Z"/><path class="h" d="M735.59,158.33c1.55,8,2,13,3.61,23,1.6,10.2,2.4,23.29,5.47,34.39,1,3.64,2,5.08,2.77,5.16-1,2.22-3.68,1.13-5.33-4.83-3.08-11.1-2.79-24.52-4.39-34.72-1.57-10-1.93-21.79-3.48-29.83Z"/><path class="h" d="M701.72,232.91a2.27,2.27,0,0,1-2.57.33c-2-.86-6-10.94-7.93-17.55-1.22-4.33-3.93-12.35-7.43-22.45a39.5,39.5,0,0,1,3.39,7.76c2,5.79,4.3,10,5.75,15.13.06.21.12.42.19.63s.12.44.19.66l.21.66.27.83c.12.35.23.7.36,1.05.35,1,.73,2,1.13,3,.13.34.28.69.42,1l.45,1.05,0,.08c.16.37.32.73.49,1.09.08.18.17.35.25.53.17.35.33.7.51,1s.27.52.4.76.3.57.46.84l.18.3.35.57c.24.36.47.69.7,1l.17.22a6.55,6.55,0,0,0,.48.54h0A2.34,2.34,0,0,0,701.72,232.91Z"/><path class="h" d="M722.8,223.17c-.93,2.25-3.18.48-3.89-.64-2.3-3.6-3.49-10.6-6.59-24.17-2.58-11.28-6.41-30-8.94-38.63l2.92,8.06c2.53,8.63,5.53,22.88,8,30.45,3.8,11.69,4.9,20.36,7.19,24a1.84,1.84,0,0,0,1.31,1Z"/><path class="h" d="M808.42,225.57c-.18.43-.39.87-.61,1.32-3.45,7-5.08,12.25-7.5,17.73-.56,1.26-1.15,2.53-1.83,3.83-1.24,2.41-2.11,4.33-2.84,6.13-.13.33-.26.66-.38,1-.07.16-.12.32-.19.48-1,2.57-1.75,5.11-3,8.7-.16.44-.32.91-.5,1.4a81,81,0,0,1-8.63,16.25l-.35.5h0a79,79,0,0,1-6.3,8.2l-1.07,1.21c-1.06,1.19-2.06,2.34-3,3.49-.62.76-1.22,1.52-1.78,2.29a29.34,29.34,0,0,0-3.5,6s0,0,0,0a23,23,0,0,0-1.58,5.56c-.08.51-.15,1-.2,1.55.82-8.48,2.76-13.29,8.56-19.79a114.48,114.48,0,0,0,7.81-9.71,56.64,56.64,0,0,0,7.26-13.08c2.8-7.75,4.05-12.22,7.65-19.19S802.16,235,808.42,225.57Z"/><path class="i" d="M810.24,579.38l-92.12,9.38L706.06,324.18a1.81,1.81,0,0,1,1.84-2,25.68,25.68,0,0,0,3.39-.09c14-1,32.56-4.57,47.87-6,1.82-.17,3.62-.29,5.39-.36h.07c1.29,0,2.58-.06,3.85,0a1.91,1.91,0,0,1,1.93,1.65l11,72.16Z"/><path class="j" d="M810.24,579.38l-7.53.77c-7-34.32-14.69-89-20.44-132.08-5.2-39-16.88-103.29-17.72-132.36,1.32,0,2.63-.06,3.92,0a1.91,1.91,0,0,1,1.93,1.65Z"/><path class="f" d="M576.12,186c-11.63,3.8-15.31,18.09-23.85,25.55-1.32,1.15-2.76,1.69-4.1,1.07h0c-.17-.09-.35-.19-.52-.3l-.12-.1-.06,0,0,0-.15-.12,0,0c-.1-.09-.19-.19-.29-.29l-.11-.12-.06-.07c-.09-.11-.18-.22-.26-.34l-.18-.26-.07-.1-.07-.12a.33.33,0,0,1-.06-.1l-.12-.2-.06-.11a3.84,3.84,0,0,1-.18-.35l0-.07,0,0c0-.09-.09-.19-.13-.29l-.06-.14a13.73,13.73,0,0,1-1.09-4.21l0-.3,0-.57c0-.12,0-.24,0-.36v-.51c0-.31,0-.63,0-1v-.15c.08-1.44.26-3,.4-4.68v-.1c0-.3,0-.61.07-.92a2.83,2.83,0,0,1,0-.3v0c0-.08,0-.17,0-.25,0-.62.09-1.29.13-2a.4.4,0,0,1,0-.11c.1-1.67.22-3.57.37-5.45.06-.63.11-1.27.17-1.88,0,0,0-.1,0-.15,0-.53.11-1,.16-1.55,0,0,0-.09,0-.13.07-.59.14-1.16.21-1.69l.06-.38.06-.43c.15-1.34.32-2.66.5-4l.06-.47c.12-.82.24-1.63.37-2.44.06-.45.12-.9.19-1.34,0-.15,0-.29.07-.43.48-3,1-6.07,1.51-9.09.19-1.09.37-2.18.55-3.27a2.07,2.07,0,0,0,0-.22c.46-2.74.89-5.5,1.27-8.29l0-.15c.19-1.4.36-2.81.52-4.23l.06-.6.11-1,.07-.69.06-.54c.54-4.76,1.08-9.34,1.51-14.07v-.27c0-.28.05-.56.08-.84.07-.75.13-1.5.2-2.25v0s0,0,0,0v0c.12-1.59.25-3.21.35-4.87.06-9.17-11.09-14.2-15,5.15-.93,4.66-3.49,16.95-4.65,22.91s-3.88,18.85-4.57,23.54c-.63,4.25-2.22,9.05-3.77,8.74h0c-.8-.15-1.6-1.68-2.24-5.41-.39-2.28-.68-4.64-.91-7-.1-1.05-.18-2.12-.26-3.19a.76.76,0,0,0,0-.15c-.23-3.45-.35-6.92-.43-10.32l0-1.2-.06-2.52,0-.74c0-.33,0-.67,0-1l0-1.49c0-.71,0-1.41-.06-2.1,0-.12,0-.24,0-.37,0-.38,0-.77,0-1.15,0-.17,0-.35,0-.53s0-.3,0-.45q0-1.29-.12-2.52c-.06-1.15-.12-2.23-.17-3.26l0-.65c0-.32,0-.65-.05-1l0-.64c-.08-1.71-.15-3.27-.21-4.76v0c0-.08,0-.16,0-.24s0-.35,0-.53l0-.71c-.1-2.17-.21-4.24-.35-6.43V125c-.1-1.53-.23-3.11-.38-4.84l0-.33c-.23-2.61-.32-4.68-.62-6.59h0v0a17.09,17.09,0,0,0-1.34-4.52,8,8,0,0,0-1.67-2.41,5.64,5.64,0,0,0-1.41-1,4.13,4.13,0,0,0-.75-.32c-4-1.23-9.1,2.69-9.79,12.84-.39,5.51-.52,16.41-.63,23.84s.22,29.81-.41,36.25c-.41,4.34-1.54,5.65-2.52,5.49l-.06,0a1.21,1.21,0,0,1-.25-.08l0,0h0a1.15,1.15,0,0,1-.26-.19l0,0,0,0a2.22,2.22,0,0,1-.44-.59l-.07-.11-.12-.27a2.92,2.92,0,0,1-.14-.31c-.05-.11-.09-.21-.13-.32s-.16-.43-.23-.66,0-.17-.08-.25c-.08-.27-.16-.54-.23-.83h0c-.09-.34-.18-.7-.26-1.08v0c-.16-.75-.31-1.56-.46-2.43,0-.09,0-.19,0-.28-.46-2.76-.91-6.11-1.55-10-.06-.4-.13-.8-.2-1.2-.37-2.16-.8-4.45-1.33-6.89-.26-1.21-.52-2.58-.78-4.06a1.43,1.43,0,0,0,0-.22l-.15-.94c-.09-.55-.18-1.11-.28-1.68l0-.14c-.26-1.62-.51-3.33-.76-5.08-.1-.65-.19-1.31-.28-2-.87-6-1.72-12.33-2.61-17a47.79,47.79,0,0,0-2.09-8.25v0h0v0h0a7.73,7.73,0,0,0-1.77-2.89c-3.41-3-10.76-3.1-10.05,10.44.23,4.49,1.44,16.18,1.77,23s.92,19.41,1.76,26.75c.69,5.94,1.88,15.56-.62,15.42h0a1.78,1.78,0,0,1-1.05-.57l0,0-.08-.09c-.06-.06-.11-.13-.17-.2l-.12-.14,0-.06a4.37,4.37,0,0,1-.34-.47l-.05-.06-.08-.13-.07-.11c-.08-.13-.16-.26-.23-.4s-.24-.43-.36-.66-.19-.4-.3-.6l-.07-.16c0-.05-.05-.1-.07-.16h0a.61.61,0,0,1-.05-.12c-.11-.23-.21-.46-.31-.7,0,0,0,0,0-.06s-.05-.11-.07-.17-.17-.41-.25-.63-.21-.54-.31-.82l-.09-.24a2.31,2.31,0,0,0-.1-.28,2.22,2.22,0,0,1-.09-.28l-.08-.23c-.11-.3-.21-.6-.31-.91,0,0,0,0,0,0l0-.05c-.05-.18-.11-.36-.17-.54s-.11-.36-.17-.55c-.11-.35-.21-.71-.31-1.07s-.22-.79-.33-1.19c0-.12-.07-.24-.1-.36s-.13-.51-.19-.76-.14-.53-.2-.8-.06-.23-.09-.35-.11-.49-.17-.73-.13-.57-.18-.86-.1-.44-.15-.66v0c0-.11,0-.23-.07-.34s0-.22,0-.33l0-.18-.09-.46c-.94-5.22-3.63-13.68-5.05-19.64-.06-.27-.13-.55-.2-.85a42.82,42.82,0,0,0-1.39-4.77,22.4,22.4,0,0,0-1-2.44h0c-.13-.27-.26-.54-.4-.79-3.3-6.08-10.8-4.11-10.47,8,.24,9.38,3.65,23.34,5.95,32.4s4.24,14.75,4.91,23.13,1.51,16.41,3,24.64,6.16,19.32,9,25.85,3.67,8.36,4,14.12a39.31,39.31,0,0,1,0,5c-.06.9-.15,1.75-.23,2.64h-.36a25.25,25.25,0,0,1-3.38-.25,1.79,1.79,0,0,0-2,1.8L460,546.71l92.6-.18-9.89-191.82L539,281.81A1.9,1.9,0,0,0,537.2,280c-.85-.1-1.72-.19-2.59-.26l-.93-.07c.11-1.06.24-2.1.41-3.1.07-.45.16-.9.24-1.34s.22-1,.35-1.52a23.58,23.58,0,0,1,2.12-5.37s0,0,0,0a30.52,30.52,0,0,1,4.08-5.64c.63-.71,1.31-1.41,2-2.1,1-1.05,2.16-2.1,3.33-3.17l1.19-1.1a80.83,80.83,0,0,0,7.09-7.54l.39-.47A81.82,81.82,0,0,0,565.08,233c.23-.47.43-.92.63-1.35,1.63-3.45,2.66-5.89,3.88-8.35l.23-.47c.15-.3.31-.62.48-.93.9-1.72,2-3.55,3.43-5.82.8-1.23,1.52-2.43,2.2-3.63,3-5.21,5.1-10.29,9.23-16.89.26-.43.51-.85.73-1.26C589.94,186.91,587.15,182.39,576.12,186Z"/><path class="g" d="M579.72,188.11c-.22.41-.47.83-.74,1.26-4.12,6.6-6.26,11.67-9.22,16.89-.68,1.19-1.4,2.4-2.2,3.63-1.47,2.27-2.53,4.1-3.43,5.82q-.25.47-.48.93l-.24.47c-1.22,2.46-2.25,4.9-3.87,8.35-.2.43-.4.88-.63,1.34a81.55,81.55,0,0,1-10.2,15.32l-.4.47a79.49,79.49,0,0,1-7.08,7.54L540,251.22c-1.17,1.08-2.28,2.13-3.33,3.18-.69.69-1.37,1.39-2,2.1a30.19,30.19,0,0,0-4.08,5.64s0,0,0,0a24.06,24.06,0,0,0-2.13,5.37c-.12.49-.24,1-.35,1.52s-.16.89-.23,1.34a63.83,63.83,0,0,0-.72,7.29c-.05.92-.08,1.85-.1,2.77-.14,5.6.06,11.24-.14,15.61-.34,7.44.27,10.57.26,17.2l-2.67.07-55.62,1.57c1.07-6.67,4.11-25.82,4.46-32.92,0-.29,0-.56,0-.8,0-.8,0-1.54.08-2.23.14-2.85.44-4.82.59-7a39.32,39.32,0,0,0,0-5c-.35-5.76-1.14-7.57-4-14.12s-7.59-17.63-9-25.85-2.3-16.24-3-24.64-2.6-14.07-4.91-23.13-5.71-23-5.95-32.4c-.33-12.11,7.17-14.08,10.46-8,.15.25.28.52.41.79a38.47,38.47,0,0,1,2.6,8.06c1.42,5.95,4.11,14.42,5.05,19.64,0,.14.05.28.08.43l.05.21a3.26,3.26,0,0,0,.05.33c0,.11,0,.23.07.34s.09.46.14.68.12.57.19.86.16.72.25,1.08c.12.52.26,1,.4,1.55s.27,1,.42,1.56c.11.36.21.72.32,1.07s.23.73.34,1.09l0,.08c.08.27.17.53.26.8l.13.33a1.9,1.9,0,0,0,.09.29c0,.08.07.18.1.28.12.36.26.72.39,1.06s.22.55.33.8a.42.42,0,0,0,0,.1c.11.28.22.53.34.77h0c.05.11.09.22.14.31s.2.41.3.61c.19.38.4.74.59,1.06.06.08.1.16.15.24l.21.31c.07.1.15.19.22.28a5.48,5.48,0,0,0,.37.43,1.29,1.29,0,0,0,.18.16,2,2,0,0,0,.37.27l.17.09a1.17,1.17,0,0,0,.36.08c2.5.15,1.3-9.47.62-15.41-.84-7.34-1.42-20-1.76-26.75s-1.54-18.46-1.77-23c-.71-13.54,6.64-13.42,10-10.44a7.86,7.86,0,0,1,1.77,2.89h0s0,0,0,0v0a47.79,47.79,0,0,1,2.09,8.25c.88,4.69,1.74,11,2.6,17,.1.71.2,1.42.31,2.12.25,1.74.5,3.45.76,5.06.11.65.21,1.29.31,1.91.31,1.84.62,3.54.93,5,.49,2.26.9,4.4,1.25,6.4.13.68.23,1.33.34,2l.44,2.8c.09.59.18,1.18.26,1.74s.17,1.12.24,1.65.16,1.06.24,1.57.15,1,.23,1.46.15.92.23,1.37.11.59.16.87a19,19,0,0,0,1.4,4.73l.12.21a1.37,1.37,0,0,0,.13.2,1.74,1.74,0,0,0,.28.32,1.16,1.16,0,0,0,.33.23.85.85,0,0,0,.34.11c1,.17,2.1-1.14,2.51-5.48.63-6.44.33-28.8.42-36.25s.24-18.33.63-23.84c.69-10.15,5.79-14.07,9.79-12.84a4.93,4.93,0,0,1,.75.31,5.68,5.68,0,0,1,1.41,1,8,8,0,0,1,1.67,2.41,17.09,17.09,0,0,1,1.34,4.52v0c.32,2,.41,4.14.66,6.91h0c.26,2.81.43,5.23.55,7.62,0,.86.1,1.73.14,2.61s.08,1.76.12,2.67c0,.45,0,.92.06,1.39,0,.24,0,.48,0,.72,0,.71.06,1.46.1,2.23,0,.51.05,1,.07,1.59s0,1.1.09,1.67h0c0,.86.09,1.76.14,2.71s.1,1.95.14,3c0,.68,0,1.36.07,2s0,1.39.06,2.1,0,1.42,0,2.14l0,1.09c0,1.08,0,2.18.07,3.29.12,4.74.29,9.64.75,14.39a3,3,0,0,0,0,.43c.14,1.4.3,2.79.49,4.15.11.72.22,1.44.35,2.15.64,3.72,1.44,5.26,2.24,5.42,1.55.31,3.14-4.49,3.77-8.75.69-4.68,3.39-17.57,4.57-23.53s3.71-18.25,4.65-22.91c3.91-19.35,15.06-14.32,15-5.16-.1,1.67-.23,3.29-.35,4.88v0s0,0,0,0,0,.08,0,.12c-.08,1-.17,2-.26,3v.08l0,.18c-.43,4.74-1,9.32-1.51,14.08,0,.41-.09.82-.14,1.23l-.16,1.6c-.79,7.22-2.08,14.18-3.26,21.18l-.63,3.92-.09.58c-.2,1.22-.38,2.45-.54,3.68-.22,1.52-.41,3-.58,4.56,0,.26-.08.52-.12.8-.07.54-.14,1.11-.21,1.7s-.14,1.2-.19,1.82-.11,1.26-.17,1.89c-.15,1.88-.27,3.78-.37,5.45a.34.34,0,0,0,0,.1c0,.82-.1,1.56-.14,2.24v.05c-.2,3.45-.7,6.06-.47,8.71a14.1,14.1,0,0,0,1.11,4.34c0,.09.07.16.1.24a2.14,2.14,0,0,0,.1.22l.21.42c.07.11.12.21.19.31a.21.21,0,0,0,.06.1.41.41,0,0,0,.07.11,1.22,1.22,0,0,0,.12.19l.13.18c.08.12.17.23.26.34s.11.12.16.19l.34.33.12.11a.09.09,0,0,1,0,0l.09.07.09.07a2.63,2.63,0,0,0,.26.16l.26.14h0c1.33.61,2.78.08,4.09-1.07,8.55-7.46,12.23-21.76,23.86-25.56C581,176.22,583.77,180.74,579.72,188.11Z"/><path class="h" d="M547.15,122c-.09,1-.18,2.07-.28,3.09v.08l0,.18-1.64,15.31-.18,1.6c-1.25,11.56-3.8,22.41-5.09,33.92-.65,4.1-1,10.31-1.2,14-.3,5.27-1.3,8.58.64,13.07l.2.45a4.13,4.13,0,0,0,.22.42l.17.31a2.39,2.39,0,0,0,.13.21,3.47,3.47,0,0,0,.26.37c.08.12.17.23.25.34a1.54,1.54,0,0,1,.17.19c.11.12.23.23.34.33l.17.14.18.13a4,4,0,0,0,.52.31c-1.85.83-3.77.17-5.2-3.13-1.93-4.49-.94-7.79-.64-13.06.22-3.74.55-9.95,1.2-14,1.29-11.52,4.65-19.44,5.9-31C544,138.81,546,129.8,547.15,122Z"/><path class="h" d="M513.92,114c.75,8.15.74,13.14,1.31,23.21.59,10.31.08,23.41,2,34.76.64,3.72,1.44,5.25,2.24,5.41-1.25,2.11-3.78.76-4.83-5.34-2-11.35-.34-24.67-.92-35-.57-10.07.24-21.88-.5-30Z"/><path class="h" d="M472.82,184.82a2.25,2.25,0,0,1-2.59.07c-1.94-1-4.94-11.48-6.15-18.24-.79-4.43-3.51-16.69-6-27.09a39.26,39.26,0,0,1,2.6,8.06c1.42,5.95,4.11,14.42,5.05,19.64l.12.64c0,.22.08.45.13.67s.09.45.14.69.12.56.19.85.16.71.25,1.08c.25,1,.53,2.08.82,3.11.1.36.21.72.32,1.07s.23.73.34,1.09l0,.08c.12.39.25.76.38,1.14.06.18.13.37.2.55.12.37.26.73.4,1.07s.21.55.32.8.25.6.38.88c.05.11.09.22.14.32l.3.6c.2.38.39.74.59,1.06l.15.24c.14.21.28.41.42.59h0A2.29,2.29,0,0,0,472.82,184.82Z"/><path class="h" d="M494.76,177.23c-1.15,2.14-3.21.16-3.81-1-1.93-3.82-2.42-10.9-4.15-24.71-1.45-11.49-3.41-30.47-5.07-39.33l2.11,8.31c1.66,8.84,3.23,23.32,4.92,31.09,2.62,12,2.85,20.75,4.78,24.56a1.81,1.81,0,0,0,1.2,1.08Z"/><path class="h" d="M579.72,188.11c-.22.41-.47.83-.74,1.26-4.12,6.6-6.26,11.67-9.22,16.89-.68,1.19-1.4,2.4-2.2,3.63-1.47,2.27-2.53,4.1-3.43,5.82q-.25.47-.48.93l-.24.47c-1.21,2.46-2.24,4.9-3.87,8.35-.2.43-.4.88-.63,1.34a81.55,81.55,0,0,1-10.2,15.32c-.14.15-.26.31-.4.46h0a79.49,79.49,0,0,1-7.08,7.54L540,251.22c-1.17,1.08-2.28,2.13-3.33,3.18-.69.69-1.37,1.39-2,2.1a29.31,29.31,0,0,0-4.08,5.64s0,0,0,0a22.71,22.71,0,0,0-2.13,5.37c-.12.49-.24,1-.35,1.52,1.67-8.36,4.08-13,10.49-18.84a115.2,115.2,0,0,0,8.73-8.89A56.48,56.48,0,0,0,555.89,229c3.56-7.44,5.25-11.76,9.52-18.34S572.55,196.92,579.72,188.11Z"/><path class="k" d="M546.43,540.36l-92.6.18,14.25-264.46a1.8,1.8,0,0,1,2-1.8,29.06,29.06,0,0,0,3.38.25c14,.42,32.85-1.32,48.23-1.25,1.83,0,3.63.06,5.41.17h.06c1.29.08,2.58.19,3.83.35a1.9,1.9,0,0,1,1.76,1.83l3.76,72.9Z"/><path class="j" d="M546.43,540.36h-7.58c-3.55-34.84-5.78-90-7.23-133.46-1.3-39.32-6.55-104.45-4.49-133.46,1.31.09,2.62.2,3.89.36a1.9,1.9,0,0,1,1.76,1.83Z"/><path class="f" d="M290.9,184.92c-.19.23-.36.48-.53.73h0a23.55,23.55,0,0,0-1.37,2.24,43.86,43.86,0,0,0-2.14,4.58q-.18.42-.33.81c-2.34,5.71-5.06,12.18-6.8,17.23-.05.15-.1.3-.16.45l-.07.17c0,.11-.06.21-.1.32l-.12.33v0c-.08.22-.15.43-.24.64s-.2.55-.32.82l-.28.7c-.05.11-.09.22-.14.34l-.33.78c-.1.23-.2.47-.31.71l-.15.35-.51,1.13c-.16.34-.32.69-.48,1l-.26.53-.25.5s0,0,0,.05,0,0,0,0c-.14.29-.29.57-.45.86l-.11.21-.14.26-.14.27-.12.21-.44.79c-.07.11-.14.22-.2.33l-.25.41,0,0c-.13.23-.27.44-.41.65l-.07.11h0l-.1.15-.09.14-.4.55c-.15.22-.3.42-.45.61s-.2.25-.3.36l-.08.1a1.14,1.14,0,0,1-.11.11l-.05.06-.41.42s0,0-.05.05l-.14.12-.21.17-.09.08,0,0a1.78,1.78,0,0,1-1.14.41h0c-2.51-.25.17-9.65,1.78-15.46,2-7.18,4.51-19.69,5.9-26.38S282,166.93,283,162.49c2.81-13.37-4.53-14.4-8.39-12a7.85,7.85,0,0,0-2.21,2.6v.05h0a48.43,48.43,0,0,0-3.37,7.9c-1.61,4.54-3.43,10.67-5.23,16.55l-.58,1.9c-.53,1.72-1.05,3.39-1.56,5l0,.1-.52,1.62-.33,1-.05.17c-.49,1.44-1,2.76-1.41,3.92-2.75,7.12-4.41,13.14-5.87,17.53l-.09.28c-.28.84-.56,1.63-.83,2.34l0,0c-.14.37-.28.71-.42,1h0c-.12.28-.25.54-.37.79l-.11.24c-.11.22-.22.43-.34.62s-.11.2-.17.3l-.19.29-.17.25-.08.1a2.36,2.36,0,0,1-.53.52l0,0,0,0a1.35,1.35,0,0,1-.3.14h0a1.28,1.28,0,0,1-.27,0h-.06c-1,0-1.92-1.47-1.65-5.85.37-6.52,4.14-28.75,5.21-36.18s2.61-18.3,3.07-23.86c.88-10.22-3.59-14.91-7.76-14.3a4.43,4.43,0,0,0-.8.19,5.71,5.71,0,0,0-1.55.76,7.77,7.77,0,0,0-2,2.14,16.9,16.9,0,0,0-2,4.29l0,0v0h0c-.6,1.86-1,3.9-1.65,6.47l-.08.32c-1.05,4.2-1.76,7.57-2.51,11.26l-.15.72-.09.48-.06.27v0c-.3,1.46-.61,3-1,4.68,0,.22-.09.44-.14.66s-.12.62-.19.94-.09.45-.14.68c-.21,1-.43,2.07-.68,3.2-.1.47-.19,1-.29,1.44v0c-.07.33-.13.67-.2,1l-.09.46c0,.17-.07.35-.1.52-.08.38-.15.76-.22,1.14,0,.12,0,.24-.07.37-.13.68-.26,1.37-.38,2.08l-.27,1.5c-.06.32-.12.64-.17,1l-.14.74c-.15.83-.29,1.67-.44,2.52-.07.39-.14.78-.22,1.17-.61,3.38-1.27,6.82-2,10.22a1,1,0,0,0,0,.14q-.36,1.59-.75,3.15c-.59,2.35-1.25,4.65-2,6.86-1.21,3.61-2.24,5-3.07,5h0c-1.59.07-2.43-5-2.4-9.29,0-4.78-.65-18-.9-24.16s-.87-18.76-1.08-23.55c-.89-19.89-12.78-16.6-14.14-7.46-.16,1.67-.29,3.31-.41,4.91v0s0,0,0,0a.17.17,0,0,0,0,.07v-.07L205.5,155l-.06.86v.27c-.31,4.78-.48,9.43-.69,14.26l0,.54,0,.7-.05,1,0,.6c-.07,1.44-.11,2.87-.14,4.3v.15c-.06,2.84-.05,5.66,0,8.46v.21c0,1.13,0,2.25,0,3.37,0,3.09.09,6.17.1,9.27v.44c0,.45,0,.89,0,1.34,0,.84,0,1.68,0,2.52,0,.16,0,.32,0,.47,0,1.35-.07,2.7-.12,4.06,0,.15,0,.3,0,.45v.37c0,.55,0,1.12,0,1.72s-.05,1.22-.09,1.85-.09,1.27-.13,1.91c-.15,1.89-.32,3.8-.47,5.48,0,0,0,.08,0,.11-.07.73-.13,1.4-.19,2l0,.25v0c0,.1,0,.2,0,.3,0,.32-.06.63-.08.93v.1c-.13,1.74-.19,3.28-.33,4.73,0,0,0,.09,0,.14,0,.33-.08.65-.12,1s-.05.34-.08.5-.05.24-.07.36-.07.38-.12.56-.05.2-.07.3a13.94,13.94,0,0,1-1.74,4l-.08.13-.18.27,0,0,0,.06c-.08.12-.15.23-.23.33l-.08.1L200,236a.71.71,0,0,1-.07.09l-.09.1-.09.09a2.61,2.61,0,0,1-.22.24,2.81,2.81,0,0,1-.31.29l-.07.06L199,237l-.34.25,0,0a1,1,0,0,0-.17.1h0l-.06,0-.14.08a3.83,3.83,0,0,1-.56.22h0c-1.42.4-2.78-.35-3.91-1.7-7.36-8.76-8.81-23.57-19.81-29.16-10.42-5.31-13.91-1.24-11,6.74.16.44.35.89.54,1.36,3.09,7.22,4.43,12.61,6.57,18.26.49,1.3,1,2.61,1.63,4,1.12,2.49,1.89,4.47,2.52,6.33.12.34.23.67.33,1l.16.5c.83,2.64,1.48,5.24,2.56,8.93.14.45.27.93.42,1.43a82.7,82.7,0,0,0,7.79,16.85l.32.52a81,81,0,0,0,5.89,8.62l1,1.27c1,1.26,1.94,2.47,2.82,3.68.59.8,1.15,1.6,1.67,2.4a31,31,0,0,1,3.19,6.25s0,0,0,0a24.56,24.56,0,0,1,1.28,5.68c.05.52.09,1,.11,1.58s0,.91,0,1.37c0,1,0,2.08-.08,3.15l-.94-.07c-.88-.07-1.75-.12-2.61-.14a1.91,1.91,0,0,0-2,1.54l-15.05,72.05L141.46,569.72l7.54,1.19h0l84.68,13.36,26.83-265.71a1.81,1.81,0,0,0-1.74-2.1,26.12,26.12,0,0,1-3.4-.28l-.36,0c.05-.9.1-1.76.18-2.67a39.65,39.65,0,0,1,.77-5c1.24-5.68,2.32-7.37,6.19-13.45s10.29-16.38,13-24.35,4.81-15.82,6.77-24.08,4.77-13.62,8.47-22.29,8-20.51,9.68-29.81C302.29,182.5,295.13,179.38,290.9,184.92Z"/><path class="l" d="M156.76,207.43c.16.45.34.9.54,1.37,3.09,7.22,4.43,12.61,6.57,18.26.49,1.3,1,2.61,1.63,4,1.11,2.49,1.88,4.47,2.52,6.33.12.34.23.67.33,1,.06.17.1.34.16.5.84,2.64,1.49,5.24,2.56,8.93.13.45.27.93.42,1.43a82.7,82.7,0,0,0,7.79,16.85l.32.52a81,81,0,0,0,5.89,8.62l1,1.27c1,1.26,1.94,2.47,2.82,3.68.59.8,1.15,1.6,1.67,2.4a30.71,30.71,0,0,1,3.19,6.25h0a24.56,24.56,0,0,1,1.28,5.68c.05.52.09,1,.11,1.58s0,.9,0,1.36a65.17,65.17,0,0,1-.41,7.38c-.1.92-.21,1.86-.34,2.78-.72,5.6-1.8,11.18-2.28,15.57-.82,7.47-1.91,10.49-2.93,17.09l2.66.5,55.16,10.18c0-6.81-.09-26.36.67-33.49,0-.29.06-.56.1-.8.11-.8.2-1.54.27-2.23.31-2.87.31-4.87.51-7.11a37.88,37.88,0,0,1,.77-5c1.24-5.68,2.32-7.37,6.19-13.45s10.29-16.38,13-24.35,4.81-15.82,6.76-24.09,4.78-13.61,8.48-22.28,8-20.51,9.68-29.81c2.21-12-5-15.14-9.18-9.6-.19.23-.36.48-.53.73a38.86,38.86,0,0,0-3.84,7.63c-2.34,5.7-5.06,12.18-6.8,17.23,0,.14-.1.27-.15.41l-.08.21a2,2,0,0,1-.11.32c0,.11-.07.22-.11.33s-.16.44-.25.66-.21.55-.32.82l-.42,1c-.2.5-.42,1-.64,1.49s-.43,1-.66,1.48-.32.68-.48,1-.35.69-.51,1a.2.2,0,0,0,0,.08q-.18.38-.39.75l-.17.32-.14.26a1.71,1.71,0,0,0-.14.27c-.18.34-.37.68-.56,1s-.3.51-.45.74c0,0,0,.07-.05.1l-.46.71h0c-.07.1-.13.2-.2.29s-.26.38-.39.55c-.25.36-.51.68-.75,1l-.19.2a3.53,3.53,0,0,1-.25.28,3.2,3.2,0,0,1-.27.25,3.42,3.42,0,0,1-.43.36l-.2.15a1.92,1.92,0,0,1-.41.2l-.19.06a1.18,1.18,0,0,1-.37,0c-2.51-.24.17-9.64,1.78-15.45,2-7.18,4.5-19.69,5.9-26.38s4.39-18.15,5.32-22.59c2.81-13.38-4.53-14.4-8.39-12a7.85,7.85,0,0,0-2.21,2.6v0l0,0h0a47.84,47.84,0,0,0-3.36,7.9c-1.61,4.54-3.44,10.67-5.23,16.54l-.63,2.06c-.52,1.7-1,3.36-1.55,4.93-.21.63-.41,1.25-.6,1.85-.6,1.79-1.17,3.43-1.71,4.83-.83,2.18-1.57,4.24-2.24,6.19-.22.65-.43,1.28-.63,1.9-.31.94-.6,1.85-.87,2.72-.19.58-.37,1.15-.53,1.7s-.35,1.09-.5,1.61-.33,1-.48,1.52-.31,1-.46,1.42-.29.9-.44,1.32-.2.58-.3.85a19.2,19.2,0,0,1-2.13,4.5l-.14.19-.16.18a2.12,2.12,0,0,1-.34.27,1.51,1.51,0,0,1-.36.18,1.13,1.13,0,0,1-.36.06c-1,0-1.92-1.47-1.65-5.85.37-6.52,4.14-28.75,5.21-36.18s2.6-18.31,3.07-23.86c.88-10.22-3.59-14.91-7.76-14.3a4.43,4.43,0,0,0-.8.19,5.71,5.71,0,0,0-1.55.76,7.87,7.87,0,0,0-2,2.13,17.16,17.16,0,0,0-2,4.3v0c-.62,1.94-1,4.07-1.73,6.79h0c-.69,2.75-1.24,5.14-1.73,7.5-.19.85-.36,1.71-.54,2.58s-.36,1.74-.54,2.64q-.13.67-.27,1.38c-.06.23-.1.47-.15.71-.13.7-.28,1.44-.45,2.21l-.32,1.57c-.11.54-.22,1.09-.34,1.65h0c-.18.85-.37,1.74-.56,2.67s-.41,1.93-.6,2.93c-.13.67-.27,1.35-.39,2l-.39,2.08c-.12.71-.25,1.42-.37,2.13L227,177c-.19,1.08-.38,2.17-.58,3.27-.86,4.7-1.79,9.56-3,14.23,0,.14-.07.27-.11.42-.36,1.37-.73,2.73-1.14,4.06-.22.69-.44,1.39-.67,2.08-1.22,3.61-2.26,5-3.08,5.05-1.59.07-2.43-5-2.4-9.29,0-4.78-.65-18-.9-24.17s-.87-18.75-1.08-23.54c-.89-19.89-12.78-16.61-14.15-7.46-.15,1.67-.28,3.31-.4,4.91v0s0,0,0,0a.49.49,0,0,0,0,.12c-.07,1-.14,2-.21,3v.08l0,.19c-.3,4.78-.47,9.43-.68,14.26,0,.41,0,.83,0,1.24l-.08,1.62c-.34,7.32-.13,14.45-.05,21.61,0,1.33,0,2.66,0,4,0,.2,0,.4,0,.59,0,1.25,0,2.5,0,3.76,0,1.54-.07,3.08-.13,4.63,0,.26,0,.53,0,.82,0,.55,0,1.12-.05,1.72s0,1.22-.1,1.85S198,207.33,198,208c-.15,1.89-.32,3.8-.48,5.48a.34.34,0,0,1,0,.1q-.12,1.23-.21,2.25v.05c-.33,3.47-.24,6.14-.89,8.75a14,14,0,0,1-1.77,4.16l-.14.22a2.43,2.43,0,0,1-.14.2q-.14.21-.27.39l-.23.28-.08.09-.09.1c0,.06-.1.12-.14.17s-.11.1-.16.16-.2.2-.31.3-.13.1-.2.15-.26.2-.39.29l-.13.08-.06,0-.1.06-.1.05a1.69,1.69,0,0,1-.28.12l-.28.1h0c-1.43.4-2.78-.35-3.91-1.7-7.36-8.76-8.81-23.58-19.81-29.17C157.36,195.39,153.87,199.46,156.76,207.43Z"/><path class="m" d="M199.48,146.58l-.21,3.12V150l-.74,15.5-.08,1.62c-.54,11.72.31,22.92-.18,34.59,0,4.18-.62,10.42-1,14.18-.52,5.29,0,8.74-2.66,12.91-.09.15-.19.29-.28.42s-.18.27-.27.39l-.23.28a1.46,1.46,0,0,1-.16.19c-.1.12-.21.23-.31.33a4.11,4.11,0,0,1-.31.29l-.19.17-.39.28-.2.11a1.24,1.24,0,0,1-.2.1,3.31,3.31,0,0,1-.56.23c1.72,1.11,3.73.76,5.67-2.31,2.62-4.18,2.14-7.62,2.66-12.92.36-3.75,1-10,1-14.17.5-11.68-1.61-20.09-1.07-31.81C200.05,163.86,199.46,154.57,199.48,146.58Z"/><path class="m" d="M233.82,143.77c-2,8-2.78,13-4.91,22.93-2.18,10.18-3.71,23.31-7.42,34.31-1.22,3.61-2.24,5-3.07,5.05.92,2.29,3.64,1.34,5.64-4.57,3.71-11,4.16-24.53,6.34-34.71,2.13-9.95,3.16-21.84,5.16-29.84Z"/><path class="m" d="M263.78,220.74a2.27,2.27,0,0,0,2.57.47c2.09-.74,6.7-10.67,8.95-17.22,1.48-4.29,4.81-14.54,8.9-24.51a39.08,39.08,0,0,0-3.84,7.62c-2.34,5.72-5.06,12.18-6.8,17.24l-.22.63c-.07.21-.15.42-.23.64s-.16.44-.25.66-.21.55-.32.82-.27.69-.42,1c-.41,1-.85,2-1.3,3l-.48,1-.51,1,0,.08c-.18.36-.37.72-.56,1.07l-.28.52c-.18.35-.37.68-.56,1l-.45.74c-.17.29-.34.56-.51.82-.07.1-.13.2-.2.29l-.38.55c-.26.36-.51.68-.76,1l-.18.21c-.18.2-.35.37-.52.53h0A2.31,2.31,0,0,1,263.78,220.74Z"/><path class="m" d="M243.09,209.77c.82,2.31,3.18.66,4-.43,2.52-3.5,4.1-10.48,8-24,3.22-11.22,8.11-29.83,11.14-38.39l-3.38,8c-3,8.54-6.84,22.73-9.73,30.21-4.47,11.56-6.06,20.23-8.57,23.73a1.85,1.85,0,0,1-1.37.89Z"/><path class="m" d="M156.76,207.43c.16.45.34.9.54,1.37,3.09,7.22,4.43,12.61,6.57,18.26.49,1.3,1,2.61,1.63,4,1.11,2.49,1.88,4.47,2.52,6.33.12.34.23.67.33,1,.06.17.1.34.16.5.83,2.64,1.48,5.24,2.56,8.93.13.45.27.93.42,1.43a82.7,82.7,0,0,0,7.79,16.85c.12.17.21.34.32.51h0a81,81,0,0,0,5.89,8.62l1,1.27c1,1.26,1.94,2.47,2.82,3.68.59.8,1.15,1.6,1.67,2.4a30,30,0,0,1,3.19,6.25h0a23.1,23.1,0,0,1,1.28,5.68c.05.52.09,1,.11,1.58-.36-8.59-2-13.54-7.52-20.4a119,119,0,0,1-7.32-10.21,57.5,57.5,0,0,1-6.59-13.57c-2.38-8-3.4-12.54-6.63-19.75S162.54,217.32,156.76,207.43Z"/><path class="n" d="M135.28,563.55l92.23,14.55,26.83-265.71a1.81,1.81,0,0,0-1.74-2.1,26.12,26.12,0,0,1-3.4-.28c-14-1.75-32.53-6.41-47.86-8.73-1.83-.27-3.63-.49-5.42-.66h-.06c-1.3-.13-2.6-.21-3.88-.25a1.93,1.93,0,0,0-2,1.55L174.9,374Z"/><path class="j" d="M135.28,563.55l7.55,1.19c8.94-34.17,19.73-88.76,27.91-131.85,7.4-39,22.73-103,25.18-132.27-1.32-.12-2.64-.21-3.94-.25a1.93,1.93,0,0,0-2,1.55Z"/><path class="f" d="M225.22,732.32,176.11,528.16l-18.67-77.58a2.07,2.07,0,0,0-2.26-1.62c-.93.06-1.88.14-2.83.24l-1,.11c-.09-1.16-.16-2.3-.18-3.41,0-.5,0-1,0-1.49s0-1.15.07-1.71a26.31,26.31,0,0,1,1.21-6.2h0a33,33,0,0,1,3.25-6.88c.54-.89,1.12-1.78,1.73-2.66.91-1.34,1.9-2.69,2.94-4.08l1.06-1.42a86.38,86.38,0,0,0,6.1-9.52c.12-.19.22-.39.33-.58a88.74,88.74,0,0,0,7.89-18.51c.15-.55.28-1.07.41-1.57,1.06-4,1.67-6.87,2.49-9.76l.15-.54c.1-.36.21-.73.33-1.1.63-2,1.4-4.21,2.53-6.94.61-1.49,1.14-2.93,1.63-4.35,2.13-6.19,3.42-12.08,6.52-20q.3-.76.54-1.5c2.88-8.74-1-13-12.16-6.94-11.74,6.41-12.83,22.52-20.51,32.25-1.18,1.5-2.63,2.36-4.19,2h0a5,5,0,0,1-.61-.22l-.16-.08-.07,0h0l-.18-.1,0,0-.39-.26-.14-.11-.08-.06-.34-.31-.25-.25-.09-.09-.1-.11a.39.39,0,0,1-.08-.1l-.17-.19-.09-.1c-.09-.11-.18-.23-.26-.35a.18.18,0,0,1-.05-.07l0,0-.2-.28-.09-.15a15.21,15.21,0,0,1-1.47-2.72c0-.06,0-.13-.08-.19s-.12-.3-.17-.45-.14-.39-.2-.59l-.06-.21c-.05-.16-.09-.31-.13-.46l-.15-.61-.09-.39c0-.18-.06-.36-.1-.54-.06-.34-.11-.68-.16-1a.77.77,0,0,1,0-.15c-.21-1.57-.32-3.24-.52-5.12v-.11c0-.32-.08-.66-.12-1,0-.11,0-.21,0-.33v0l0-.27q-.12-1-.27-2.19a.2.2,0,0,1,0-.11c-.23-1.81-.48-3.88-.69-5.93l-.21-2.06s0-.11,0-.16c-.05-.58-.1-1.14-.14-1.7,0,0,0-.09,0-.14,0-.65-.08-1.27-.11-1.86,0-.15,0-.28,0-.41s0-.32,0-.48l-.06-.84c0-.53-.07-1.06-.1-1.59,0-.23,0-.47,0-.7,0-.63-.07-1.25-.1-1.87v0q-.1-2-.15-4.05c0-.17,0-.35,0-.53s0-.36,0-.54c0-.87,0-1.73-.06-2.6-.07-3.08-.11-6.15-.16-9.23,0-.41,0-.81,0-1.22,0-.21,0-.43,0-.65q-.06-3.18-.18-6.39v-.21c0-.72-.06-1.43-.1-2.15,0-.11,0-.23,0-.35-.07-1.5-.16-3-.28-4.52l-.05-.65-.09-1.1-.06-.77,0-.58c-.38-5.23-.72-10.26-1.2-15.43l0-.13v-.16l-.09-.93c-.08-.81-.15-1.63-.24-2.45v0s0,0,0,0v0c-.18-1.73-.37-3.5-.6-5.31-1.77-9.87-14.77-13-15.08,8.55-.08,5.2-.35,18.92-.41,25.55s-.39,21-.19,26.21c.18,4.7-.56,10.17-2.29,10.15h0c-.9,0-2.06-1.49-3.5-5.37-.88-2.37-1.66-4.84-2.38-7.37-.32-1.12-.63-2.24-.92-3.38a.94.94,0,0,1,0-.16c-.94-3.65-1.77-7.36-2.54-11-.1-.43-.19-.86-.28-1.29-.19-.91-.37-1.81-.56-2.69l-.17-.79c-.07-.35-.15-.71-.22-1.06-.11-.54-.22-1.08-.34-1.61-.16-.76-.32-1.5-.48-2.24l-.09-.4-.27-1.22c0-.19-.08-.38-.13-.57s-.07-.33-.11-.49q-.32-1.37-.63-2.67c-.3-1.23-.58-2.37-.84-3.47-.06-.23-.11-.46-.17-.69l-.24-1c-.06-.23-.11-.46-.17-.69-.42-1.81-.81-3.47-1.17-5.05v0c0-.15-.07-.28-.1-.43l-.09-.35c-.06-.27-.12-.55-.19-.81-.54-2.31-1.06-4.51-1.66-6.82l0-.18c-.42-1.62-.87-3.29-1.38-5.12l-.11-.35c-.77-2.76-1.28-5-2-6.95h0l0,0v0a18.62,18.62,0,0,0-2.34-4.59A8.66,8.66,0,0,0,98,266.43a6.06,6.06,0,0,0-1.71-.77,5.42,5.42,0,0,0-.87-.19c-4.54-.52-9.24,4.71-8,15.76.69,6,2.74,17.74,4.11,25.75s6.21,32,6.83,39c.43,4.75-.52,6.38-1.6,6.4a1,1,0,0,1-.39-.05,1.33,1.33,0,0,1-.4-.19l-.16-.1-.25-.22-.14-.15a1.56,1.56,0,0,1-.16-.2l-.2-.27-.21-.31-.2-.31c-.13-.21-.25-.43-.38-.67l-.13-.25c-.14-.27-.28-.55-.42-.85h0c-.16-.35-.32-.72-.48-1.1l0-.05c-.33-.77-.65-1.61-1-2.51,0-.1-.08-.2-.11-.3-1.72-4.72-3.72-11.18-6.93-18.8-.53-1.25-1.08-2.67-1.65-4.21l-.08-.22c-.12-.32-.25-.65-.37-1-.2-.57-.41-1.15-.63-1.75l-.05-.14c-.6-1.69-1.21-3.47-1.84-5.3-.23-.68-.47-1.37-.7-2.06-2.13-6.31-4.32-12.9-6.21-17.76a51.58,51.58,0,0,0-3.9-8.45v0h0v0s0,0,0,0h0a8.47,8.47,0,0,0-2.48-2.75c-4.26-2.52-12.19-1.17-8.71,13.23,1.16,4.78,4.8,17.11,6.51,24.31S70,340.6,72.35,348.31c1.93,6.25,5.14,16.36,2.43,16.7h0a1.9,1.9,0,0,1-1.24-.4l0,0-.11-.08-.22-.17-.16-.13-.06-.06a6,6,0,0,1-.45-.43l-.07-.06-.11-.13-.1-.1q-.16-.18-.33-.39t-.51-.63l-.45-.59-.1-.15-.11-.16h0l-.08-.11c-.15-.22-.31-.45-.46-.69l0-.06-.11-.17-.39-.62c-.17-.27-.34-.55-.5-.83,0-.08-.1-.16-.14-.24l-.17-.28-.16-.28-.13-.23-.51-.91,0,0s0,0,0,0l-.3-.55c-.09-.19-.19-.37-.29-.55-.19-.36-.37-.73-.55-1.09s-.4-.82-.6-1.23c-.06-.12-.12-.24-.17-.36l-.35-.75-.39-.84c-.06-.12-.11-.24-.16-.37l-.33-.74c-.13-.3-.25-.59-.37-.89s-.19-.44-.28-.67v0l-.15-.36-.12-.33-.08-.19-.19-.48c-2-5.42-5-9.68-7.71-15.79-.12-.27-.24-.56-.38-.85A47.71,47.71,0,0,0,53.06,326a27.24,27.24,0,0,0-1.54-2.36v0h0c-.2-.27-.39-.53-.6-.77-4.76-5.87-12.43-2.25-9.64,10.7,2.14,10,6.95,20.05,11.25,29.32s7.51,15,9.91,23.88,4.92,17.32,8.12,25.88,10.5,19.53,14.9,26,5.62,8.25,7.15,14.37a42.82,42.82,0,0,1,1,5.36c.12,1,.2,1.91.28,2.88l-.38.07a30.68,30.68,0,0,1-3.68.41A2,2,0,0,0,88,464L125.75,751.1l91.33-17.24h0Z"/><path class="o" d="M184.15,340.92q-.24.74-.54,1.5c-3.1,7.92-4.39,13.8-6.52,20-.49,1.42-1,2.86-1.64,4.35-1.12,2.73-1.89,4.9-2.52,6.94-.12.37-.23.74-.33,1.09l-.15.55c-.83,2.89-1.44,5.73-2.49,9.76-.13.5-.26,1-.41,1.57a89.83,89.83,0,0,1-7.89,18.51c-.11.19-.21.38-.33.58a88.32,88.32,0,0,1-6.1,9.52l-1.06,1.42c-1,1.39-2,2.74-2.94,4.07-.61.89-1.19,1.78-1.73,2.66a33.23,33.23,0,0,0-3.25,6.88s0,0,0,0a26.31,26.31,0,0,0-1.21,6.2c0,.56-.06,1.13-.07,1.71s0,1,0,1.48a71,71,0,0,0,.7,8c.13,1,.29,2,.45,3,1,6,2.32,12.05,3,16.79,1.13,8.07,2.41,11.31,3.73,18.43l-2.86.62L90.53,499.4c-.2-7.39-.77-28.58-1.82-36.28,0-.31-.09-.6-.13-.86-.15-.87-.27-1.66-.37-2.42-.42-3.09-.49-5.26-.78-7.68a41.27,41.27,0,0,0-1-5.36c-1.53-6.12-2.75-7.91-7.14-14.37s-11.69-17.42-14.9-26-5.73-17-8.12-25.88S50.66,366,46.36,356.7s-9.11-19.3-11.25-29.32c-2.79-12.95,4.88-16.57,9.64-10.71.21.25.4.51.59.78a42,42,0,0,1,4.42,8.14c2.72,6.11,5.66,10.37,7.71,15.79.05.14.12.29.17.44l.1.23c0,.11.08.22.13.34a3.62,3.62,0,0,1,.13.35c.1.24.19.47.3.7s.23.59.37.89.32.73.49,1.1c.23.54.48,1.07.74,1.6s.5,1.07.76,1.59l.55,1.08.6,1.11,0,.08c.14.27.29.53.44.8a3.79,3.79,0,0,1,.2.34l.16.28a2.54,2.54,0,0,1,.16.28c.21.37.43.73.64,1.07l.51.79.06.1.52.76h0c.08.1.15.21.22.31l.45.59c.28.37.57.71.84,1l.21.22a4.11,4.11,0,0,0,.29.3l.29.26c.16.14.33.27.48.38l.23.14a1.79,1.79,0,0,0,.45.21l.21.06a1.31,1.31,0,0,0,.39,0c2.72-.35-.49-10.45-2.42-16.7-2.38-7.71-5.53-21.18-7.26-28.39s-5.36-19.53-6.51-24.31c-3.48-14.4,4.45-15.76,8.71-13.24A8.68,8.68,0,0,1,63.6,279v0s0,0,0,0v0a51.58,51.58,0,0,1,3.9,8.45c1.89,4.86,4.07,11.45,6.21,17.76l.75,2.21c.62,1.82,1.24,3.61,1.84,5.29.24.68.48,1.34.71,2,.71,1.93,1.38,3.69,2,5.18,1,2.33,1.84,4.55,2.63,6.63.26.7.51,1.38.75,2.05.36,1,.7,2,1,2.91l.63,1.83c.21.59.41,1.17.6,1.72s.39,1.11.57,1.64.36,1,.54,1.52.35,1,.52,1.43l.35.9a20.52,20.52,0,0,0,2.45,4.8c.06.07.11.15.17.21a1.62,1.62,0,0,0,.18.19,1.9,1.9,0,0,0,.37.28,1.75,1.75,0,0,0,.39.19,1.13,1.13,0,0,0,.4.05c1.08,0,2-1.65,1.6-6.4-.62-7.05-5.43-31-6.83-39S82,281.06,81.3,275.06c-1.29-11.05,3.41-16.28,8-15.76a5.42,5.42,0,0,1,.87.19,6.12,6.12,0,0,1,1.7.76,8.74,8.74,0,0,1,2.29,2.26,18.45,18.45,0,0,1,2.34,4.59l0,0c.74,2.07,1.26,4.37,2.09,7.3h0c.84,3,1.51,5.53,2.12,8.07.23.92.45,1.84.67,2.78s.44,1.87.67,2.85c.11.48.22,1,.35,1.48l.18.76c.17.76.35,1.56.55,2.38.13.55.27,1.11.4,1.69s.28,1.18.43,1.78h0l.69,2.88c.26,1,.5,2.08.75,3.16.17.72.33,1.45.49,2.19s.32,1.48.48,2.24.33,1.52.48,2.29l.25,1.16c.24,1.16.48,2.34.73,3.53,1.09,5.07,2.25,10.3,3.69,15.32,0,.15.08.3.13.45.43,1.47.89,2.93,1.37,4.36.26.75.52,1.5.8,2.24,1.44,3.87,2.6,5.36,3.5,5.37,1.73,0,2.47-5.45,2.29-10.15-.2-5.17.12-19.57.19-26.21s.33-20.36.41-25.55c.31-21.59,13.31-18.42,15.08-8.55.22,1.81.41,3.57.6,5.31v0s0,0,0,0,0,.09,0,.13c.11,1.09.21,2.18.32,3.25v.09l0,.2c.48,5.17.82,10.2,1.2,15.43,0,.45.06.9.1,1.35l.14,1.75c.61,7.92.61,15.65.75,23.41,0,1.44.07,2.89.11,4.34,0,.22,0,.43,0,.64q0,2,.15,4.08.12,2.49.3,5c0,.28,0,.58,0,.89,0,.59.07,1.21.11,1.86s.1,1.31.16,2,.14,1.37.2,2.06c.22,2,.47,4.11.69,5.93a.35.35,0,0,0,0,.11c.11.88.21,1.7.29,2.43v.05c.48,3.76.47,6.65,1.25,9.46a15.11,15.11,0,0,0,2.07,4.44c0,.09.1.16.15.24l.15.21c.11.15.21.29.32.42s.17.2.26.29a.25.25,0,0,0,.08.1l.1.11.16.17.18.17c.11.12.23.21.34.31a1.84,1.84,0,0,1,.22.17l.43.29.15.09.06,0,.11.06.11.06.32.12.3.1h0c1.56.39,3-.47,4.19-2,7.68-9.72,8.77-25.83,20.51-32.25C183.11,327.89,187,332.18,184.15,340.92Z"/><path class="p" d="M135.87,276.36c.12,1.13.22,2.26.33,3.38V280l1.31,16.78.13,1.75c1,12.68.42,24.85,1.34,37.48.12,4.53,1,11.27,1.52,15.33.74,5.72.33,9.47,3.31,13.91l.31.45c.11.14.21.28.32.41l.25.3.18.2c.11.12.23.23.35.34l.34.31.22.17.43.29.22.12.21.1a4.29,4.29,0,0,0,.62.23c-1.82,1.26-4,.94-6.21-2.32-3-4.44-2.58-8.19-3.31-13.91-.52-4.06-1.4-10.8-1.53-15.33-.92-12.64,1.1-21.83.12-34.51C135.81,295.11,136.16,285,135.87,276.36Z"/><path class="p" d="M98.56,274.44c2.44,8.61,3.44,14,6.07,24.69,2.69,11,4.78,25.14,9.16,36.94,1.44,3.87,2.6,5.36,3.5,5.37-.93,2.51-3.91,1.57-6.26-4.77-4.39-11.8-5.32-26.45-8-37.41-2.64-10.71-4.14-23.56-6.57-32.17Z"/><path class="p" d="M68.6,358.83a2.44,2.44,0,0,1-2.76.6c-2.3-.74-7.61-11.34-10.27-18.38-1.74-4.6-5.47-12.93-10.22-23.61a42.84,42.84,0,0,1,4.41,8.15c2.72,6.11,5.66,10.37,7.71,15.79.09.22.17.44.26.67s.18.46.28.69.18.47.29.71l.37.88.49,1.11c.47,1.05,1,2.12,1.5,3.18.18.36.37.73.56,1.08l.58,1.11.05.07c.21.39.42.78.64,1.15.1.19.22.37.32.56l.64,1.07.51.79.58.87c.08.1.15.21.22.31s.3.4.44.59c.29.37.58.71.85,1l.21.23q.3.3.57.54h0A2.51,2.51,0,0,0,68.6,358.83Z"/><path class="p" d="M90.67,346.27c-.82,2.53-3.42.82-4.31-.33-2.83-3.72-4.78-11.23-9.42-25.73-3.86-12-9.77-32.06-13.33-41.24l3.93,8.51c3.56,9.16,8.15,24.41,11.53,32.42,5.22,12.39,7.22,21.72,10.06,25.44a2,2,0,0,0,1.51.92Z"/><path class="p" d="M184.15,340.92q-.24.74-.54,1.5c-3.1,7.92-4.39,13.8-6.52,20-.49,1.42-1,2.86-1.64,4.35-1.12,2.73-1.89,4.9-2.52,6.94-.12.37-.23.74-.33,1.09l-.15.55c-.82,2.89-1.44,5.72-2.49,9.76-.13.5-.26,1-.41,1.57a89.83,89.83,0,0,1-7.89,18.51c-.12.19-.22.38-.33.57h0a88.32,88.32,0,0,1-6.1,9.52l-1.06,1.42c-1,1.39-2,2.74-2.94,4.07-.61.89-1.19,1.78-1.73,2.66a32.69,32.69,0,0,0-3.25,6.88s0,0,0,0a24.88,24.88,0,0,0-1.21,6.2c0,.56-.06,1.13-.07,1.71.11-9.31,1.78-14.73,7.49-22.35a125.74,125.74,0,0,0,7.6-11.31,61.94,61.94,0,0,0,6.69-14.92C169.08,381,170,376,173.3,368S178.21,351.82,184.15,340.92Z"/><path class="q" d="M219.05,726.15l-99.47,18.78L81.83,457.85a2,2,0,0,1,1.82-2.33,30.91,30.91,0,0,0,3.68-.41c15.1-2.36,35-8,51.58-11,2-.35,3.91-.66,5.84-.89h.07c1.41-.18,2.81-.31,4.19-.39a2.09,2.09,0,0,1,2.26,1.61L169.94,522Z"/><path class="j" d="M219.05,726.15l-8.14,1.54c-10.8-36.73-24.27-95.55-34.55-142-9.29-42-28-110.93-31.61-142.52,1.44-.18,2.86-.31,4.26-.4a2.09,2.09,0,0,1,2.26,1.61Z"/><path class="f" d="M469.36,585.36l-28.4-186-10.8-70.69a1.86,1.86,0,0,0-1.89-1.61c-.83,0-1.69,0-2.54,0l-.91,0c0-1,0-2.07.09-3.06,0-.45.07-.89.1-1.32s.12-1,.19-1.53a23.4,23.4,0,0,1,1.55-5.44s0,0,0,0a30,30,0,0,1,3.42-5.89c.55-.76,1.14-1.5,1.75-2.25.91-1.12,1.9-2.25,2.93-3.41l1-1.19a75.63,75.63,0,0,0,6.17-8c.12-.16.23-.33.34-.5a80,80,0,0,0,8.45-15.92l.48-1.37c1.25-3.52,2-6,3-8.53l.18-.47c.12-.32.24-.64.38-1,.71-1.76,1.56-3.65,2.77-6,.67-1.28,1.25-2.53,1.8-3.76,2.37-5.37,4-10.53,7.33-17.37q.33-.66.6-1.29c3.22-7.59.05-11.71-10.34-7.12-11,4.84-13.15,19.14-20.75,27.24-1.17,1.25-2.53,1.91-3.89,1.44h0a5.22,5.22,0,0,1-.54-.24l-.13-.08-.06,0h0s-.1-.07-.15-.11l0,0-.32-.26-.12-.11-.06-.06a2.76,2.76,0,0,1-.29-.3c-.07-.07-.13-.16-.2-.24l-.08-.09-.08-.1a.33.33,0,0,1-.06-.1l-.14-.18a.86.86,0,0,0-.07-.1l-.21-.33,0-.06,0,0-.15-.27a.54.54,0,0,1-.07-.13,13.52,13.52,0,0,1-1.48-4,2.5,2.5,0,0,1-.05-.29c0-.18-.06-.37-.09-.55s0-.24,0-.35,0-.33-.05-.49c0-.31-.05-.62-.07-.94v-.14c-.07-1.41,0-2.91-.08-4.6V246l0-.9c0-.1,0-.2,0-.3v-.26c0-.61,0-1.26-.07-2a.17.17,0,0,1,0-.1c-.07-1.64-.13-3.5-.17-5.35l0-1.85c0-.62,0-1.22,0-1.8s0-1.14,0-1.67c0-.13,0-.25,0-.37s0-.29,0-.43c0-1.32,0-2.63.1-3.93,0-.16,0-.31,0-.47,0-.79.07-1.57.11-2.35,0-.46,0-.93.07-1.39,0-.15,0-.29,0-.43.17-3,.38-6,.59-9l.21-3.22c0-.08,0-.15,0-.23.18-2.72.33-5.44.42-8.2v-.15c0-1.38.08-2.77.09-4.17v-2.78c.06-4.7.14-9.22.09-13.87v-.26c0-.28,0-.56,0-.84,0-.73,0-1.47,0-2.2v0a0,0,0,0,0,0,0v0c0-1.56-.07-3.16-.13-4.79-.84-8.94-12.2-12.75-14.12,6.49-.46,4.64-1.74,16.87-2.29,22.79s-1.94,18.75-2.16,23.39c-.19,4.2-1.27,9-2.81,8.88h0c-.8-.07-1.73-1.49-2.72-5.05-.6-2.19-1.12-4.46-1.57-6.77-.2-1-.39-2.05-.56-3.09l0-.14c-.56-3.33-1-6.71-1.43-10l-.15-1.17c-.1-.82-.2-1.64-.3-2.44l-.09-.71-.12-1-.18-1.45c-.08-.68-.17-1.36-.26-2,0-.12,0-.24,0-.35l-.15-1.13c0-.17,0-.35-.07-.51l-.06-.45c-.12-.82-.24-1.64-.36-2.43-.18-1.11-.33-2.15-.49-3.14,0-.23-.07-.45-.1-.68s-.09-.61-.13-.91-.07-.42-.1-.63l-.67-4.61v0c0-.1,0-.2,0-.3l-.06-.44c0-.24-.07-.48-.11-.71-.53-3.62-1-6.92-1.84-11.05l-.06-.32c-.48-2.53-.77-4.53-1.26-6.36h0v0A16.84,16.84,0,0,0,392.9,162a8,8,0,0,0-1.87-2.18,5.46,5.46,0,0,0-1.47-.81,4.15,4.15,0,0,0-.76-.23c-4-.81-8.6,3.5-8.29,13.46.16,5.41,1.1,16.05,1.72,23.31s3.13,29,3.14,35.37c0,4.27-.94,5.66-1.91,5.59h-.06a1.22,1.22,0,0,1-.26-.06h-.05l-.27-.15,0,0,0,0a2.29,2.29,0,0,1-.49-.53.86.86,0,0,1-.07-.1l-.15-.25-.17-.29-.15-.3c-.1-.2-.2-.4-.29-.62a2.44,2.44,0,0,1-.1-.24c-.11-.25-.21-.51-.31-.79h0c-.12-.32-.23-.66-.35-1v0c-.23-.71-.46-1.49-.69-2.32,0-.09,0-.18-.07-.28-1.18-4.34-2.47-10.26-4.77-17.31-.37-1.15-.76-2.46-1.15-3.88l-.06-.19c-.08-.31-.16-.61-.25-.92-.14-.53-.28-1.06-.43-1.61l0-.13c-.41-1.56-.83-3.2-1.25-4.88-.15-.63-.31-1.25-.46-1.88-1.43-5.8-2.88-11.84-4.2-16.33a47.07,47.07,0,0,0-2.85-7.84v0h0v0a7.82,7.82,0,0,0-2-2.64c-3.62-2.57-10.79-2-8.78,11.16.67,4.35,3,15.63,4,22.19s2.8,18.84,4.33,25.9c1.25,5.73,3.36,15,.91,15.09h0a1.74,1.74,0,0,1-1.08-.46l0,0-.09-.07-.19-.18-.13-.12-.05-.06-.37-.42,0-.06-.1-.12-.07-.1c-.09-.11-.18-.24-.27-.36l-.41-.62-.35-.55a1.09,1.09,0,0,1-.08-.15l-.09-.15h0l-.07-.11-.36-.66,0-.05-.21-.41-.18-.33c-.13-.25-.25-.51-.38-.78a2.26,2.26,0,0,1-.11-.22l-.12-.27a2,2,0,0,1-.12-.26l-.11-.21c-.13-.29-.26-.57-.38-.86l0,0v0c-.08-.17-.15-.34-.22-.51s-.15-.35-.23-.52c-.14-.34-.28-.68-.41-1s-.29-.75-.43-1.13c0-.11-.09-.23-.13-.34s-.18-.47-.26-.7l-.28-.78-.12-.34c-.08-.23-.16-.46-.23-.68s-.19-.55-.27-.82-.14-.42-.2-.64h0c0-.11-.06-.22-.1-.33s-.06-.21-.08-.31l-.06-.17c0-.15-.09-.3-.13-.45-1.42-5-3.88-10.75-5.84-16.41-.09-.25-.19-.52-.28-.81a46.26,46.26,0,0,0-1.84-4.55,24.18,24.18,0,0,0-1.21-2.24h0c-.15-.25-.31-.5-.47-.74-3.81-5.59-10.93-2.94-9.42,8.83,1.15,9.12,4.84,20.16,8,28.76s5.57,14,7,22.07,3.08,15.84,5.29,23.72,7.9,18.23,11.34,24.31,4.39,7.8,5.29,13.38a37.39,37.39,0,0,1,.48,4.86c0,.88,0,1.72,0,2.59l-.34,0a26.4,26.4,0,0,1-3.32.09,1.76,1.76,0,0,0-1.8,1.95l12,259.16L462,586.12h0Z"/><path class="o" d="M461.19,232.61q-.27.63-.6,1.29c-3.37,6.84-5,12-7.34,17.37-.54,1.23-1.13,2.48-1.79,3.76-1.21,2.35-2.06,4.23-2.78,6-.13.32-.25.64-.37,1l-.18.47c-1,2.52-1.72,5-3,8.53l-.48,1.37a80.51,80.51,0,0,1-8.45,15.92l-.34.5a78.37,78.37,0,0,1-6.17,8L428.68,298c-1,1.17-2,2.3-2.93,3.42-.61.74-1.2,1.49-1.75,2.24a30.38,30.38,0,0,0-3.42,5.9s0,0,0,0A23.4,23.4,0,0,0,419,315c-.07.5-.14,1-.19,1.52s-.08.88-.1,1.33a63.73,63.73,0,0,0,0,7.18c.05.9.11,1.81.18,2.71.41,5.47,1.16,10.94,1.39,15.22.4,7.29,1.3,10.28,1.94,16.74l-2.6.34-54.06,7c.39-6.6,1.48-25.57,1.13-32.52,0-.29,0-.55-.06-.78-.06-.78-.11-1.51-.14-2.18-.15-2.8,0-4.74-.12-6.92a37.69,37.69,0,0,0-.48-4.87c-.91-5.58-1.86-7.27-5.29-13.37s-9.12-16.44-11.34-24.31-3.83-15.61-5.29-23.72-3.91-13.46-7.05-22.07-6.82-19.64-8-28.76c-1.51-11.77,5.61-14.42,9.42-8.83.16.24.31.49.47.74a38,38,0,0,1,3.32,7.6c2,5.66,4.43,11.42,5.85,16.41,0,.13.08.27.12.41l.07.21c0,.1.05.2.08.31s.06.22.1.32.13.44.21.66.17.54.26.81.23.69.35,1c.17.5.36,1,.54,1.48s.37,1,.57,1.48.27.67.41,1,.3.68.44,1l0,.07q.15.38.33.75l.15.32c0,.08.08.17.13.26l.12.27c.15.34.32.67.49,1s.26.51.39.74l0,.1.41.72h0a2,2,0,0,0,.17.29l.35.56c.23.36.46.68.68,1l.17.21.23.28.24.25a4.62,4.62,0,0,0,.41.38,1.25,1.25,0,0,0,.19.15,1.68,1.68,0,0,0,.38.22l.18.07a1.49,1.49,0,0,0,.36.05c2.45-.1.34-9.36-.91-15.09-1.54-7.06-3.33-19.33-4.33-25.9s-3.3-17.84-4-22.19c-2-13.13,5.16-13.73,8.78-11.16a7.72,7.72,0,0,1,2,2.64v0l0,0v0a47.07,47.07,0,0,1,2.85,7.84c1.32,4.48,2.77,10.53,4.2,16.32.16.68.33,1.36.5,2,.42,1.68.83,3.32,1.24,4.87.17.62.33,1.23.49,1.82.48,1.77.95,3.4,1.4,4.78q1,3.23,1.84,6.12c.19.64.35,1.27.52,1.88.24.93.48,1.82.7,2.68.15.57.29,1.14.42,1.68s.28,1.08.4,1.59.27,1,.39,1.5.25.95.37,1.4.23.89.36,1.31.16.57.24.84a18,18,0,0,0,1.83,4.47,2.14,2.14,0,0,0,.13.19c0,.07.1.12.14.18a2.15,2.15,0,0,0,.32.29,1.4,1.4,0,0,0,.33.19,1.11,1.11,0,0,0,.35.08c1,.07,1.94-1.32,1.91-5.59,0-6.35-2.5-28.11-3.14-35.38s-1.56-17.89-1.72-23.3c-.31-10,4.28-14.27,8.29-13.46a3.5,3.5,0,0,1,.76.23,5.34,5.34,0,0,1,1.47.81,8.12,8.12,0,0,1,1.87,2.18,16.69,16.69,0,0,1,1.74,4.28v0c.51,1.91.8,4,1.32,6.67h0c.52,2.71.93,5.06,1.28,7.37.14.84.26,1.68.39,2.53s.25,1.71.38,2.6c.06.43.13.88.2,1.34,0,.23.07.46.1.7.09.69.2,1.42.32,2.16.07.5.15,1,.22,1.55s.16,1.06.25,1.62h0c.13.83.26,1.7.4,2.62s.29,1.89.43,2.88c.09.65.19,1.31.27,2s.18,1.35.26,2,.18,1.39.26,2.09l.13,1q.19,1.59.39,3.21c.58,4.6,1.23,9.36,2.13,13.95,0,.15.05.28.08.42.28,1.34.57,2.68.9,4,.17.69.35,1.38.54,2.06,1,3.57,1.92,5,2.72,5.06,1.54.15,2.62-4.68,2.81-8.88.22-4.64,1.59-17.47,2.16-23.4s1.83-18.14,2.29-22.78c1.92-19.24,13.28-15.43,14.12-6.49.06,1.63.1,3.23.13,4.79v0s0,0,0,0v.12c0,1,0,2,0,2.92v.26c0,4.66,0,9.18-.09,13.87,0,.41,0,.81,0,1.22v1.57c-.06,7.12-.64,14-1.1,21-.08,1.29-.16,2.59-.23,3.88a5.49,5.49,0,0,0,0,.58c-.08,1.21-.13,2.42-.17,3.64-.07,1.5-.1,3-.12,4.5,0,.26,0,.52,0,.8,0,.53,0,1.08,0,1.67s0,1.18,0,1.8,0,1.23,0,1.85c0,1.85.1,3.71.16,5.35,0,0,0,.07,0,.1q.06,1.2.09,2.19v0c.14,3.39-.08,6,.4,8.53a13.59,13.59,0,0,0,1.51,4.13c0,.08.08.15.11.22a1.37,1.37,0,0,0,.13.2c.08.15.16.27.24.4s.14.19.21.28a.22.22,0,0,0,.07.09,1,1,0,0,0,.08.11,1.07,1.07,0,0,0,.14.16c0,.06.1.11.14.17s.19.2.29.31a1.29,1.29,0,0,1,.18.16l.36.29.13.09.05,0,.09.06.1.06a1.66,1.66,0,0,0,.27.13l.26.11h0c1.36.47,2.72-.19,3.89-1.44,7.59-8.11,9.78-22.4,20.75-27.24C461.24,220.89,464.41,225,461.19,232.61Z"/><path class="p" d="M423,171.31c0,1,0,2,0,3.05v.25l-.1,15.08v1.58c-.09,11.39-1.52,22.21-1.65,33.56-.23,4.06.05,10.14.2,13.81.23,5.16-.42,8.48,1.9,12.66l.25.43c.08.13.16.26.25.39l.2.28c0,.07.09.13.15.2l.28.33c.09.11.19.21.28.3l.19.17a4.57,4.57,0,0,0,.36.29l.18.13.19.11c.18.09.35.17.53.24-1.72,1-3.65.54-5.37-2.54-2.32-4.19-1.68-7.5-1.9-12.67-.16-3.66-.44-9.75-.21-13.8.14-11.35,2.63-19.41,2.72-30.8C421.49,188.05,422.57,179.07,423,171.31Z"/><path class="p" d="M389.8,166.78c1.52,7.87,2,12.73,3.55,22.5,1.57,10,2.36,22.8,5.38,33.67,1,3.57,1.92,5,2.72,5.06-1,2.18-3.61,1.11-5.23-4.73-3-10.87-2.75-24-4.32-34-1.54-9.76-1.91-21.35-3.43-29.21Z"/><path class="p" d="M356.67,239.86a2.21,2.21,0,0,1-2.52.32c-2-.84-5.94-10.7-7.77-17.18-1.21-4.24-4.07-13.69-7.5-23.58a38,38,0,0,1,3.32,7.6c2,5.66,4.42,11.41,5.85,16.41.06.21.11.41.18.62s.12.42.19.64.13.43.21.65.17.54.26.81.23.68.36,1c.34,1,.71,2,1.1,2.95.13.34.27.68.41,1s.3.69.44,1a.16.16,0,0,1,0,.07c.15.36.31.72.48,1.07l.25.52c.16.35.32.68.49,1l.39.74c.15.29.3.56.46.82.05.1.11.2.17.3s.23.38.35.55a11.88,11.88,0,0,0,.68,1l.17.22c.16.19.31.37.47.53h0A2.27,2.27,0,0,0,356.67,239.86Z"/><path class="p" d="M377.31,230.31c-.91,2.2-3.11.47-3.81-.62-2.26-3.54-3.42-10.39-6.47-23.68-2.53-11-6.3-29.37-8.78-37.83l2.86,7.89c2.49,8.45,5.43,22.41,7.84,29.82,3.73,11.45,4.81,19.94,7.06,23.47a1.78,1.78,0,0,0,1.28.93Z"/><path class="p" d="M461.19,232.61q-.27.63-.6,1.29c-3.37,6.84-5,12-7.34,17.37-.54,1.23-1.13,2.48-1.79,3.76-1.21,2.35-2.06,4.23-2.78,6-.13.32-.25.64-.37,1l-.18.47c-.95,2.52-1.71,5-3,8.53l-.48,1.37a80.51,80.51,0,0,1-8.45,15.92c-.12.17-.22.33-.34.49h0a78.37,78.37,0,0,1-6.17,8L428.68,298c-1,1.17-2,2.3-2.93,3.42-.61.74-1.2,1.49-1.75,2.24a29.39,29.39,0,0,0-3.42,5.9s0,0,0,0A22.46,22.46,0,0,0,419,315c-.07.5-.14,1-.19,1.52.8-8.31,2.7-13,8.38-19.39a113.28,113.28,0,0,0,7.64-9.51,55.26,55.26,0,0,0,7.1-12.82c2.74-7.6,4-12,7.48-18.81S455.06,241.89,461.19,232.61Z"/><path class="r" d="M463.19,579.19,373,588.43,361,329.26a1.75,1.75,0,0,1,1.8-1.94,26.4,26.4,0,0,0,3.32-.09c13.66-1,31.89-4.5,46.88-5.94,1.79-.17,3.55-.29,5.29-.36h.06c1.27-.05,2.54-.06,3.77,0a1.86,1.86,0,0,1,1.89,1.61l10.8,70.69Z"/><path class="j" d="M463.19,579.19l-7.38.76c-6.87-33.62-14.45-87.15-20.1-129.37-5.12-38.2-16.61-101.17-17.44-129.65,1.29,0,2.57-.06,3.83,0a1.86,1.86,0,0,1,1.89,1.61Z"/><path class="f" d="M923.33,355.57c-12.15,2.17-17.82,15.93-27.39,22.18-1.48,1-3,1.3-4.24.5h0a5.31,5.31,0,0,1-.48-.38l-.11-.11-.05-.05,0,0-.13-.14,0-.05c-.09-.1-.17-.21-.26-.33l-.09-.14,0-.07a3.41,3.41,0,0,1-.21-.38l-.15-.29a.37.37,0,0,1-.05-.11l-.06-.12s0-.07,0-.11l-.09-.22,0-.11c0-.12-.08-.25-.13-.38a.24.24,0,0,0,0-.08v0l-.09-.31c0-.05,0-.1,0-.15a13.93,13.93,0,0,1-.5-4.36c0-.1,0-.2,0-.3s0-.39.05-.58l0-.36c0-.17,0-.34.07-.5,0-.32.1-.64.16-.95l0-.15c.28-1.43.67-2.92,1.05-4.62l0-.1c.06-.3.13-.61.19-.92l.06-.29v0l0-.24c.12-.61.26-1.27.4-2a.36.36,0,0,1,0-.11c.33-1.65.72-3.53,1.13-5.39.15-.62.29-1.25.43-1.86a.83.83,0,0,1,0-.15c.12-.51.25-1,.37-1.52a.56.56,0,0,1,0-.12c.15-.59.3-1.14.45-1.67,0-.13.07-.25.11-.38l.12-.4.09-.34c.35-1.37.72-2.72,1.1-4.07l.69-2.35c.14-.44.26-.88.39-1.32,0-.14.08-.28.13-.42.9-3,1.84-5.91,2.77-8.85l1-3.21.06-.2c.84-2.68,1.66-5.37,2.43-8.11l0-.15c.38-1.37.76-2.75,1.11-4.14l.14-.59.25-1,.18-.68c0-.18.09-.35.13-.52,1.2-4.69,2.38-9.19,3.47-13.85l0-.12,0-.06v-.08c.07-.28.13-.56.2-.84l.51-2.21,0,.07s0-.05,0-.08l0,0v0c.35-1.57.7-3.17,1-4.82C911,280.56,900.6,274,894,292.76c-1.59,4.53-5.86,16.44-7.85,22.22s-6.52,18.29-7.86,22.87c-1.22,4.16-3.48,8.73-5,8.2h0c-.78-.27-1.36-1.91-1.48-5.72-.08-2.33,0-4.73.07-7.14.05-1.08.12-2.15.19-3.23a.76.76,0,0,0,0-.15c.25-3.47.62-7,1-10.37,0-.4.09-.8.14-1.2.1-.85.2-1.69.29-2.52l.09-.74.12-1c.06-.5.12-1,.17-1.5q.14-1.07.24-2.1c0-.13,0-.25,0-.38l.12-1.14.06-.54c0-.15,0-.31,0-.46,0-.35.07-.7.1-1h0c.05-.49.09-1,.13-1.47.1-1.16.19-2.24.28-3.28l.06-.65.09-1,.06-.64c.16-1.71.31-3.28.45-4.78v0a2.46,2.46,0,0,1,0-.26c0-.16,0-.33,0-.49s0-.5.07-.75c.2-2.17.39-4.25.55-6.45v-.17c.11-1.53.21-3.13.29-4.87l0-.34c.13-2.64.33-4.72.29-6.67h0v0a17.11,17.11,0,0,0-.7-4.7,8.29,8.29,0,0,0-1.34-2.64,5.81,5.81,0,0,0-1.27-1.17,5,5,0,0,0-.7-.42c-3.82-1.78-9.46,1.41-11.58,11.45-1.16,5.45-2.81,16.32-3.95,23.73s-4,29.79-5.49,36.13c-1,4.28-2.33,5.43-3.27,5.13a1,1,0,0,1-.33-.16A1.28,1.28,0,0,1,848,342a1.43,1.43,0,0,1-.19-.27,3.13,3.13,0,0,1-.2-.41.56.56,0,0,0,0-.12l-.09-.29c0-.11-.07-.22-.1-.33s-.05-.22-.08-.33-.09-.45-.14-.7c0-.08,0-.17,0-.26,0-.28-.08-.56-.12-.87h0c0-.36-.07-.73-.1-1.11v-.05c-.06-.76-.1-1.59-.12-2.48,0-.1,0-.2,0-.3-.07-2.81,0-6.22-.15-10.17q0-.6,0-1.23c-.07-2.2-.18-4.56-.37-7.07-.09-1.24-.16-2.65-.21-4.17v-.17l0-1c0-.55,0-1.12,0-1.71v-.13c0-1.65,0-3.39,0-5.17,0-.67,0-1.34,0-2,0-6.15,0-12.55-.22-17.35a48.91,48.91,0,0,0-.93-8.54v0h0v0h0a8,8,0,0,0-1.36-3.14c-3-3.45-10.31-4.59-11.5,9-.39,4.52-.82,16.37-1.43,23.17s-1.8,19.51-2,26.95c-.14,6-.3,15.81-2.77,15.31h0a1.75,1.75,0,0,1-1-.72l0,0a3.3,3.3,0,0,1-.31-.48.16.16,0,0,1,0-.07c-.09-.15-.18-.33-.27-.51a.43.43,0,0,0,0-.07,1,1,0,0,0-.07-.15l0-.11-.18-.44-.26-.7c-.07-.21-.13-.42-.21-.65,0-.05,0-.11-.05-.16s0-.12,0-.17h0l0-.12c-.07-.24-.14-.49-.2-.75,0,0,0,0,0-.06s0-.11,0-.17c-.06-.22-.11-.44-.17-.67s-.13-.57-.19-.87a1.84,1.84,0,0,1-.05-.25l-.06-.29a1.67,1.67,0,0,1-.06-.29l0-.24-.18-.95v0a.11.11,0,0,1,0,0c0-.19-.07-.38-.1-.56l-.09-.58c-.06-.37-.12-.74-.17-1.11s-.11-.82-.16-1.23c0-.13,0-.26,0-.39s-.06-.52-.09-.78l-.09-.82c0-.13,0-.25,0-.37l-.06-.75c0-.3-.05-.58-.07-.88s0-.45,0-.68v0c0-.12,0-.24,0-.36s0-.21,0-.33v-.18l0-.47c-.2-5.35-1.14-9.25-1.72-15.4,0-.28-.06-.58-.09-.89a44.76,44.76,0,0,0-.72-5,25.82,25.82,0,0,0-.66-2.55h0c-.09-.29-.18-.57-.29-.85-2.44-6.53-10.21-5.61-11.57,6.53-1.07,9.4-.19,18.89.85,28.26s2.17,15.32,1.67,23.79-.79,16.59-.49,25,3.45,20.16,5.4,27.08,2.49,8.86,2,14.66a38.81,38.81,0,0,1-.71,5c-.18.89-.39,1.73-.6,2.6l-.35,0a30.46,30.46,0,0,1-3.34-.72,1.82,1.82,0,0,0-2.28,1.5L757,699.55l84.93,11.71h0l7.56,1,16.94-192.92,6.44-73.33a1.92,1.92,0,0,0-1.5-2.07c-.83-.22-1.69-.43-2.55-.62l-.91-.2c.26-1,.53-2.06.84-3,.13-.44.28-.88.42-1.3s.37-1,.57-1.48a23.79,23.79,0,0,1,2.87-5.06s0,0,0,0a31.39,31.39,0,0,1,4.86-5.06c.73-.62,1.5-1.23,2.3-1.82,1.18-.9,2.44-1.79,3.76-2.7l1.34-.93a78.45,78.45,0,0,0,8.13-6.54c.16-.13.31-.28.46-.41a82.49,82.49,0,0,0,12.33-13.87c.29-.43.56-.85.82-1.25,2.1-3.22,3.47-5.52,5-7.8l.3-.44c.19-.28.4-.57.61-.86,1.14-1.59,2.45-3.27,4.24-5.33,1-1.12,1.86-2.22,2.71-3.32,3.68-4.79,6.53-9.56,11.57-15.58.32-.39.63-.77.91-1.15C937,358.41,934.84,353.51,923.33,355.57Z"/><path class="l" d="M925.76,359c-.28.38-.59.76-.91,1.15-5,6-7.89,10.79-11.57,15.58-.85,1.1-1.74,2.2-2.71,3.32-1.79,2.06-3.1,3.73-4.24,5.33-.21.29-.42.58-.61.86l-.3.43c-1.56,2.29-2.94,4.59-5,7.81l-.82,1.25a82.49,82.49,0,0,1-12.33,13.87l-.46.41a80.63,80.63,0,0,1-8.13,6.54l-1.34.93c-1.32.91-2.58,1.8-3.76,2.7-.8.59-1.57,1.2-2.3,1.82a30.19,30.19,0,0,0-4.86,5.06s0,0,0,0a24.25,24.25,0,0,0-2.88,5.06c-.19.48-.38,1-.56,1.48s-.29.86-.42,1.3a63.92,63.92,0,0,0-1.74,7.18c-.17.91-.33,1.84-.48,2.76-.93,5.57-1.51,11.22-2.32,15.56-1.38,7.39-1.21,10.59-2.15,17.21l-2.68-.3-55.76-6.21c2-6.51,7.72-25.21,9.06-32.25,0-.29.1-.55.13-.79.13-.8.25-1.54.39-2.22.54-2.83,1.11-4.75,1.57-6.95a39,39,0,0,0,.7-5c.46-5.8-.08-7.72-2-14.66s-5.11-18.67-5.41-27.08,0-16.54.49-25-.62-14.42-1.66-23.79-1.92-18.86-.85-28.26c1.36-12.14,9.13-13.06,11.57-6.53.11.28.2.56.29.85a38.49,38.49,0,0,1,1.47,8.41c.59,6.14,1.53,10.05,1.73,15.39,0,.14,0,.29,0,.44l0,.22c0,.12,0,.22,0,.34s0,.23,0,.35,0,.47.05.7,0,.58.07.88.06.74.1,1.11c0,.54.11,1.07.17,1.61s.13,1.08.21,1.62c.05.37.11.74.16,1.11s.13.76.2,1.14c0,0,0,.05,0,.08,0,.28.1.55.16.83,0,.12,0,.24.07.35a1.59,1.59,0,0,0,.06.3,2.5,2.5,0,0,1,.05.29c.07.38.16.76.25,1.12s.14.58.21.84l0,.11c.07.29.15.56.23.82h0a3.18,3.18,0,0,0,.1.33c.07.22.14.44.21.64.14.42.29.8.44,1.15,0,.09.08.18.12.26s.11.23.17.34l.17.31a4.79,4.79,0,0,0,.31.47l.16.2a1.88,1.88,0,0,0,.33.31l.17.12a1.09,1.09,0,0,0,.34.13c2.47.5,2.63-9.28,2.77-15.31.18-7.44,1.38-20.14,2-26.95s1-18.65,1.43-23.17c1.19-13.61,8.51-12.47,11.5-9a8,8,0,0,1,1.36,3.13v0a.06.06,0,0,0,0,0v0a48.06,48.06,0,0,1,.94,8.53c.22,4.81.2,11.21.22,17.35,0,.72,0,1.44,0,2.16,0,1.77,0,3.52,0,5.16,0,.67,0,1.32,0,2,.05,1.89.13,3.62.24,5.12.17,2.32.28,4.51.35,6.56,0,.69,0,1.36.06,2,0,1,0,1.94,0,2.86,0,.6,0,1.2,0,1.77s0,1.15,0,1.69,0,1.08,0,1.6,0,1,0,1.49,0,.94,0,1.39,0,.61,0,.9a18.73,18.73,0,0,0,.74,4.92c0,.08,0,.15.08.22s.07.15.1.22a1.54,1.54,0,0,0,.25.36,1.28,1.28,0,0,0,.29.28,1,1,0,0,0,.33.16c.94.3,2.25-.85,3.27-5.13,1.53-6.34,4.35-28.71,5.48-36.14s2.8-18.27,4-23.72c2.12-10,7.76-13.23,11.58-11.45a5,5,0,0,1,.7.42,5.81,5.81,0,0,1,1.27,1.17,8.08,8.08,0,0,1,1.33,2.64,17.13,17.13,0,0,1,.71,4.7v0c0,2-.18,4.2-.31,7h0c-.14,2.83-.31,5.28-.52,7.68-.07.87-.15,1.74-.23,2.62s-.16,1.77-.25,2.69c0,.45-.09.92-.13,1.4,0,.23,0,.48-.07.72-.07.72-.14,1.47-.21,2.24,0,.52-.09,1-.15,1.6s-.1,1.11-.15,1.68h0c-.08.86-.15,1.77-.23,2.72s-.18,2-.28,3c-.06.68-.13,1.36-.21,2.06s-.16,1.39-.24,2.1-.16,1.42-.25,2.15l-.13,1.08c-.12,1.09-.26,2.19-.39,3.3-.54,4.75-1.05,9.67-1.27,14.48,0,.15,0,.29,0,.43-.06,1.42-.09,2.83-.09,4.22,0,.73,0,1.46,0,2.19.12,3.81.71,5.45,1.49,5.72,1.5.53,3.76-4,5-8.2,1.34-4.58,5.85-17.08,7.86-22.87s6.26-17.7,7.85-22.22c6.6-18.78,17-12.2,15.69-3-.33,1.65-.68,3.25-1,4.82v0s0,0,0,0,0,.08,0,.12c-.23,1-.45,2-.68,2.93l0,.08,0,.19c-1.09,4.66-2.27,9.16-3.47,13.84-.1.41-.21.81-.31,1.21l-.39,1.58c-1.79,7.1-4.06,13.86-6.21,20.69-.4,1.27-.79,2.54-1.18,3.82-.06.19-.12.38-.17.57-.37,1.19-.72,2.39-1.06,3.61-.43,1.47-.83,3-1.21,4.47q-.12.38-.24.78c-.14.53-.29,1.08-.45,1.66s-.3,1.18-.44,1.8-.28,1.24-.43,1.86c-.41,1.86-.8,3.73-1.13,5.39a.36.36,0,0,0,0,.1c-.16.81-.31,1.55-.45,2.21v.05c-.68,3.42-1.54,6-1.68,8.64a14.16,14.16,0,0,0,.5,4.49l.06.25c0,.08.05.16.08.23s.1.31.15.46l.14.33a.49.49,0,0,0,0,.11,1.34,1.34,0,0,0,.06.12.75.75,0,0,0,.1.2l.1.21c.06.13.14.24.21.37a1.91,1.91,0,0,1,.14.21c.1.13.19.26.29.38l.11.12,0,0,.08.08.08.09.24.19.24.18h0c1.24.8,2.76.47,4.24-.5,9.57-6.25,15.24-20,27.39-22.18C928.67,347.34,930.83,352.24,925.76,359Z"/><path class="m" d="M902.48,288.43c-.23,1-.47,2-.71,3.05v.08l0,.17-3.78,15.06-.4,1.57c-2.86,11.37-6.92,21.85-9.82,33.17-1.22,4-2.43,10.15-3.17,13.85-1,5.22-2.49,8.38-1.18,13.13,0,.17.09.33.14.48l.15.46.14.33a2.29,2.29,0,0,0,.1.23,3.73,3.73,0,0,0,.2.4c.06.13.14.25.21.37l.14.22c.09.13.19.26.29.38l.15.16.16.16a4.21,4.21,0,0,0,.48.38c-2,.56-3.79-.35-4.76-3.86-1.3-4.75.15-7.91,1.19-13.13.74-3.7,1.94-9.85,3.16-13.85,2.9-11.32,7.36-18.76,10.23-30.14C896.93,304.8,900.19,296.09,902.48,288.43Z"/><path class="m" d="M870.42,275.81c-.4,8.23-1.1,13.22-1.94,23.36-.86,10.37-3.19,23.38-2.82,35,.12,3.81.7,5.45,1.48,5.72-1.55,1.93-3.88.23-4.08-6-.37-11.6,3.11-24.68,4-35.06.84-10.14,3.3-21.81,3.7-30.05Z"/><path class="m" d="M819.47,340.81a2.28,2.28,0,0,1-2.6-.29c-1.79-1.32-3.32-12.15-3.58-19.08-.18-4.54-.61-12.23-1.64-23a39.82,39.82,0,0,1,1.48,8.41c.58,6.14,1.52,10.05,1.72,15.39l0,.66c0,.23,0,.46,0,.69s0,.46.05.7l.06.88c0,.37.06.74.11,1.12.1,1.06.23,2.14.38,3.22.05.37.11.74.17,1.11l.18,1.14a.19.19,0,0,1,0,.08c.07.4.14.79.22,1.18,0,.2.09.39.12.59.08.38.16.76.25,1.12s.14.58.21.85.17.63.26.92a2.75,2.75,0,0,0,.1.34c.07.22.14.44.21.64.14.41.29.8.44,1.15l.12.26a6.34,6.34,0,0,0,.34.64h0A2.29,2.29,0,0,0,819.47,340.81Z"/><path class="m" d="M842.44,336.3c-1.45,2-3.23-.29-3.66-1.56-1.39-4.08-.89-11.22-.7-25.25.17-11.67.86-30.91.44-40l.94,8.59c.43,9.06,0,23.74.57,31.74C841,322.2,840,331,841.37,335a1.84,1.84,0,0,0,1.06,1.25Z"/><path class="m" d="M925.76,359c-.28.38-.59.76-.91,1.15-5,6-7.89,10.79-11.57,15.58-.85,1.1-1.74,2.2-2.71,3.32-1.79,2.06-3.1,3.73-4.24,5.33-.21.29-.42.58-.61.86l-.3.43c-1.56,2.29-2.93,4.59-5,7.81l-.82,1.25a82.49,82.49,0,0,1-12.33,13.87l-.46.4h0a80.63,80.63,0,0,1-8.13,6.54l-1.34.93c-1.32.91-2.58,1.8-3.76,2.7-.8.59-1.57,1.2-2.3,1.82a29.8,29.8,0,0,0-4.86,5.06s0,0,0,0a23.39,23.39,0,0,0-2.88,5.06c-.19.48-.38,1-.56,1.48,2.83-8.12,5.88-12.36,13.11-17.35a117.61,117.61,0,0,0,10-7.66,57.13,57.13,0,0,0,10.23-11.08c4.58-6.93,6.88-11,12.06-17S917.37,366.83,925.76,359Z"/><path class="s" d="M843.27,706.13l-92.49-12.76L802,431.27a1.82,1.82,0,0,1,2.28-1.51,26.43,26.43,0,0,0,3.34.72c13.9,2.38,33,3.28,48.33,5.5q2.75.39,5.38.93h.06c1.28.26,2.55.56,3.78.89a1.92,1.92,0,0,1,1.5,2.07l-6.44,73.32Z"/><path class="j" d="M843.27,706.13l-7.57-1c1.33-35.29,6.81-90.67,11.44-134.28,4.19-39.45,8.06-105.22,14.17-133.9,1.3.27,2.59.57,3.84.9a1.92,1.92,0,0,1,1.5,2.07Z"/><path class="f" d="M374.87,342.09c-11.72,3.54-15.73,17.75-24.44,25-1.34,1.12-2.8,1.62-4.12,1h0a4,4,0,0,1-.52-.31l-.12-.1-.05,0,0,0-.14-.13,0,0-.29-.31L345,367l-.06-.07a4.15,4.15,0,0,1-.24-.34l-.18-.27a.86.86,0,0,0-.07-.1.75.75,0,0,0-.07-.12l-.05-.1-.12-.21-.06-.1-.17-.36,0-.07v0c0-.09-.08-.19-.13-.29a.78.78,0,0,0-.05-.14,14,14,0,0,1-1-4.24c0-.1,0-.2,0-.3s0-.38,0-.57,0-.24,0-.36,0-.34,0-.5c0-.32,0-.64.05-1,0-.05,0-.1,0-.14.11-1.45.33-3,.5-4.68V353l.09-.92c0-.1,0-.2,0-.3v0l0-.25c.06-.62.12-1.28.18-2a.34.34,0,0,1,0-.1c.14-1.67.31-3.56.5-5.44.07-.63.14-1.27.21-1.88,0-.05,0-.1,0-.15.07-.53.13-1.05.2-1.55,0,0,0-.08,0-.12.08-.6.16-1.16.25-1.69l.06-.38c0-.14.05-.29.08-.42.18-1.34.38-2.66.59-4,0-.16,0-.31.07-.47.13-.81.28-1.62.42-2.42.08-.45.14-.9.23-1.35,0-.14.05-.29.07-.43.55-3,1.14-6,1.72-9.05l.63-3.25c0-.08,0-.16,0-.23.52-2.73,1-5.48,1.46-8.26l0-.14c.22-1.4.43-2.8.62-4.22l.07-.6.13-1,.1-.7.07-.53c.64-4.75,1.29-9.32,1.83-14v-.26l.09-.85c.08-.75.17-1.49.25-2.24v0s0,0,0,0v0c.16-1.59.33-3.21.47-4.87.27-9.17-10.77-14.45-15.12,4.81-1,4.64-3.87,16.87-5.17,22.79s-4.31,18.76-5.11,23.43c-.72,4.24-2.42,9-4,8.65h0c-.81-.18-1.56-1.72-2.12-5.46-.34-2.29-.58-4.65-.75-7.05-.07-1.06-.14-2.13-.18-3.2a.76.76,0,0,1,0-.15c-.15-3.45-.19-6.92-.2-10.33,0-.4,0-.8,0-1.2,0-.84,0-1.69,0-2.52v-3.23c0-.71,0-1.4,0-2.1,0-.12,0-.24,0-.36,0-.39,0-.77,0-1.16v-.53c0-.15,0-.3,0-.45,0-.35,0-.7,0-1h0c0-.49,0-1,0-1.47,0-1.15-.07-2.22-.1-3.26,0-.22,0-.44,0-.66l0-1c0-.22,0-.43,0-.65,0-1.7-.07-3.27-.11-4.76v-.25c0-.18,0-.36,0-.54s0-.49,0-.73c0-2.17-.11-4.24-.2-6.44v-.13c-.07-1.53-.15-3.12-.27-4.85l0-.34c-.17-2.61-.21-4.68-.47-6.6h0v0a17.15,17.15,0,0,0-1.23-4.55A8,8,0,0,0,317,261a5.54,5.54,0,0,0-1.39-1,4.91,4.91,0,0,0-.74-.33c-4-1.32-9.15,2.48-10.08,12.61-.52,5.5-.9,16.39-1.17,23.82s-.47,29.8-1.25,36.23c-.5,4.33-1.66,5.62-2.63,5.43l-.06,0a1.34,1.34,0,0,1-.26-.09h0l0,0a1.1,1.1,0,0,1-.25-.19l0,0,0,0a2.8,2.8,0,0,1-.43-.6l-.06-.11-.12-.28-.13-.31-.12-.32c-.08-.21-.15-.44-.22-.67a2.33,2.33,0,0,0-.07-.25l-.21-.84h0c-.08-.34-.15-.71-.22-1.08v0c-.15-.75-.28-1.56-.41-2.44a2.89,2.89,0,0,0,0-.29c-.39-2.76-.76-6.13-1.31-10-.06-.39-.11-.79-.18-1.2-.32-2.16-.69-4.47-1.17-6.92-.23-1.22-.46-2.59-.68-4.08a1.55,1.55,0,0,1,0-.21c0-.32-.09-.64-.14-1-.07-.55-.15-1.11-.23-1.68,0,0,0-.09,0-.14-.22-1.62-.43-3.34-.65-5.09-.08-.66-.16-1.31-.23-2-.73-6.05-1.44-12.36-2.22-17.07a47,47,0,0,0-1.9-8.3h0v-.05a7.84,7.84,0,0,0-1.7-2.93c-3.34-3.06-10.69-3.34-10.29,10.21.13,4.49,1.07,16.21,1.25,23s.47,19.43,1.15,26.78c.55,6,1.52,15.61-1,15.4h0a1.75,1.75,0,0,1-1-.6l0,0-.08-.09-.17-.2-.11-.14,0-.06q-.17-.22-.33-.48a.43.43,0,0,1,0-.07l-.09-.13-.06-.1-.22-.41c-.12-.21-.23-.44-.35-.67l-.28-.61s-.05-.1-.07-.16a1.11,1.11,0,0,0-.07-.16h0l-.05-.12c-.1-.23-.19-.47-.29-.71a.14.14,0,0,0,0-.06l-.06-.17q-.12-.3-.24-.63c-.1-.27-.2-.56-.29-.84a2.25,2.25,0,0,1-.08-.24l-.09-.28a1.8,1.8,0,0,1-.09-.28l-.08-.23c-.1-.3-.19-.61-.28-.92l0,0a.06.06,0,0,0,0,0c-.05-.18-.1-.37-.16-.55s-.1-.37-.16-.55c-.1-.36-.2-.72-.29-1.08l-.3-1.2-.09-.37c-.06-.25-.11-.49-.17-.74s-.13-.55-.19-.82,0-.24-.07-.36-.11-.48-.15-.72-.12-.58-.17-.87-.09-.43-.13-.66v0l-.06-.35c0-.11,0-.21-.05-.32l0-.18c0-.16-.06-.31-.08-.47-.82-5.24-2.62-10.31-3.9-16.3-.06-.27-.12-.56-.19-.87a43.62,43.62,0,0,0-1.28-4.8,22.93,22.93,0,0,0-1-2.45v0c-.12-.27-.25-.54-.39-.8-3.16-6.15-10.7-4.35-10.65,7.77,0,9.37,2.42,20,4.52,29.07s3.9,14.84,4.38,23.24,1.14,16.43,2.39,24.7,5.72,19.46,8.45,26.05S276.82,421.2,277,427a37.15,37.15,0,0,1-.12,5c-.08.89-.18,1.74-.29,2.63l-.35,0a26.71,26.71,0,0,1-3.37-.33,1.8,1.8,0,0,0-2.07,1.75L250.54,700.07,343.12,702l-5.51-192-2.09-73a1.9,1.9,0,0,0-1.72-1.87c-.85-.13-1.72-.23-2.59-.32l-.91-.09c.13-1.06.29-2.1.47-3.1l.27-1.33c.12-.51.25-1,.39-1.51a23.65,23.65,0,0,1,2.25-5.32s0,0,0,0a30.24,30.24,0,0,1,4.2-5.55c.65-.69,1.34-1.38,2.05-2.05,1.07-1,2.21-2.05,3.4-3.1.4-.35.81-.7,1.21-1.07a79.54,79.54,0,0,0,7.26-7.37l.41-.46a82.07,82.07,0,0,0,10.55-15.08l.66-1.33c1.7-3.41,2.79-5.83,4.06-8.26l.24-.46c.16-.31.33-.62.5-.93.95-1.7,2-3.5,3.57-5.73.83-1.21,1.58-2.4,2.29-3.59,3.07-5.14,5.33-10.16,9.6-16.67.27-.42.53-.83.76-1.24C388.66,343.32,386,338.74,374.87,342.09Z"/><path class="g" d="M378.27,344.43c-.23.41-.49.82-.76,1.24-4.28,6.51-6.53,11.53-9.61,16.67-.7,1.19-1.45,2.38-2.28,3.59-1.53,2.23-2.62,4-3.57,5.73l-.5.92-.24.47c-1.28,2.43-2.37,4.85-4.06,8.26l-.66,1.33A82,82,0,0,1,346,397.72c-.13.15-.26.31-.4.46a79.54,79.54,0,0,1-7.26,7.37l-1.21,1.07c-1.19,1.05-2.33,2.07-3.4,3.1-.71.67-1.4,1.36-2.05,2a29.9,29.9,0,0,0-4.2,5.55h0a24,24,0,0,0-2.25,5.32c-.14.5-.27,1-.39,1.52s-.19.88-.27,1.33a65,65,0,0,0-.88,7.28c-.07.91-.12,1.85-.16,2.77-.27,5.59-.2,11.23-.5,15.59-.5,7.44,0,10.58-.13,17.2l-2.68,0-55.63.3c1.21-6.65,4.7-25.72,5.21-32.82,0-.29,0-.55,0-.79,0-.8.07-1.54.12-2.23.21-2.85.55-4.8.75-7a38.74,38.74,0,0,0,.12-5c-.21-5.77-1-7.6-3.69-14.21s-7.18-17.8-8.44-26.06-1.92-16.28-2.39-24.69-2.28-14.13-4.38-23.24-4.49-19.7-4.52-29.07c-.05-12.12,7.49-13.92,10.65-7.77.14.26.26.53.39.8a38.11,38.11,0,0,1,2.41,8.12c1.29,6,3.09,11.06,3.9,16.3,0,.14.06.28.08.43l0,.22c0,.11,0,.21,0,.33s0,.22.06.34.08.46.13.68.1.57.16.87.15.71.23,1.08.24,1,.36,1.56.25,1.05.39,1.57c.09.36.19.72.29,1.07s.22.74.32,1.1a.24.24,0,0,1,0,.09c.08.26.16.53.25.8l.11.34c0,.08.06.18.1.28l.09.28c.11.37.24.73.37,1.08s.2.55.3.8c0,0,0,.07,0,.11.11.27.21.52.32.77h0c.05.11.09.22.14.32l.28.61c.19.39.38.74.57,1.08l.15.23a3.45,3.45,0,0,0,.2.32,3.06,3.06,0,0,0,.21.29,5.44,5.44,0,0,0,.36.43l.17.17a1.64,1.64,0,0,0,.37.27,1.51,1.51,0,0,0,.17.1,1.13,1.13,0,0,0,.35.09c2.5.21,1.53-9.44,1-15.4-.67-7.35-.95-20-1.14-26.78s-1.12-18.49-1.25-23c-.4-13.55,6.95-13.27,10.29-10.21a7.84,7.84,0,0,1,1.7,2.93h0a.08.08,0,0,1,0,0v0a47.93,47.93,0,0,1,1.9,8.3c.78,4.71,1.49,11,2.22,17.07.08.71.16,1.41.25,2.11.21,1.75.43,3.47.65,5.09.09.65.18,1.29.27,1.91.26,1.85.53,3.55.81,5,.44,2.27.8,4.42,1.11,6.43.1.68.2,1.33.29,2,.13,1,.25,1.9.37,2.8.08.6.15,1.18.22,1.75s.15,1.13.21,1.66.14,1.06.2,1.57.13,1,.2,1.47.13.92.2,1.37c.05.3.09.59.14.88a18.51,18.51,0,0,0,1.29,4.75c0,.08.07.15.11.22a2.12,2.12,0,0,1,.12.2,1.85,1.85,0,0,0,.29.33,1.72,1.72,0,0,0,.31.24,1.45,1.45,0,0,0,.35.12c1,.18,2.12-1.1,2.63-5.43.78-6.43,1-28.79,1.25-36.23s.65-18.32,1.17-23.82c.92-10.13,6.11-13.93,10.08-12.61a3.49,3.49,0,0,1,.74.33,5.72,5.72,0,0,1,1.39,1,8,8,0,0,1,1.62,2.44,17.15,17.15,0,0,1,1.23,4.55v0c.28,2,.31,4.15.5,6.93h0c.19,2.81.31,5.24.38,7.62,0,.87.06,1.74.08,2.62s0,1.76.06,2.67c0,.45,0,.92,0,1.39,0,.24,0,.48,0,.72,0,.72,0,1.46.05,2.24,0,.51,0,1,0,1.59s0,1.1,0,1.67h0c0,.86.05,1.76.08,2.71s.06,1.95.08,3c0,.68,0,1.36,0,2.05s0,1.39,0,2.1v3.23c0,1.09,0,2.19,0,3.3,0,4.74.07,9.64.42,14.4,0,.15,0,.29,0,.43.11,1.4.24,2.79.4,4.16.09.72.19,1.44.29,2.15.56,3.74,1.32,5.29,2.12,5.47,1.55.35,3.25-4.41,4-8.65.8-4.67,3.8-17.49,5.11-23.43s4.13-18.15,5.17-22.79c4.35-19.26,15.39-14,15.11-4.81-.13,1.66-.3,3.28-.46,4.86v0s0,0,0,0,0,.08,0,.12c-.11,1-.22,2-.33,3v.08l0,.19c-.54,4.72-1.18,9.29-1.82,14-.06.41-.12.82-.17,1.23l-.2,1.59c-.95,7.2-2.4,14.12-3.74,21.1-.24,1.29-.49,2.6-.72,3.9a5.86,5.86,0,0,0-.1.58c-.23,1.21-.44,2.44-.63,3.67-.25,1.51-.48,3-.69,4.55,0,.25-.09.52-.13.8-.09.53-.17,1.09-.26,1.69s-.16,1.19-.23,1.82-.13,1.25-.2,1.88c-.2,1.88-.36,3.77-.5,5.44,0,0,0,.07,0,.1-.06.81-.12,1.56-.19,2.23v.05c-.28,3.45-.83,6-.66,8.7a13.63,13.63,0,0,0,1,4.36l.09.25.1.22c.07.15.13.29.2.43l.18.31a.31.31,0,0,0,.05.1.75.75,0,0,1,.07.12,1.13,1.13,0,0,0,.12.18,2,2,0,0,1,.12.19c.08.12.17.23.25.34l.17.19.33.35.12.1.05,0,.08.07.09.07a1.92,1.92,0,0,0,.26.17l.25.14h0c1.32.65,2.78.15,4.12-1,8.71-7.26,12.72-21.47,24.44-25C379.8,332.57,382.49,337.15,378.27,344.43Z"/><path class="h" d="M347.22,277.55c-.11,1-.23,2.07-.35,3.09v.08l0,.18-2,15.26-.21,1.6c-1.51,11.53-4.31,22.32-5.87,33.8-.74,4.08-1.21,10.28-1.52,14-.42,5.26-1.49,8.54.34,13.07.07.16.13.31.2.46s.13.29.2.42.11.22.17.32a2.39,2.39,0,0,0,.13.21c.08.13.16.26.25.38a4.15,4.15,0,0,0,.24.34l.17.19c.11.12.22.24.33.34s.11.11.17.15l.17.14a4.63,4.63,0,0,0,.51.31c-1.87.79-3.77.09-5.12-3.25-1.83-4.53-.76-7.81-.35-13.07.31-3.73.78-9.93,1.53-14,1.55-11.48,5.09-19.33,6.6-30.87C343.63,294.32,345.84,285.36,347.22,277.55Z"/><path class="h" d="M314.19,268.81c.55,8.16.44,13.15.78,23.23.34,10.32-.46,23.41,1.24,34.8.55,3.73,1.31,5.28,2.12,5.46-1.31,2.08-3.8.67-4.71-5.45-1.7-11.39.22-24.67-.12-35-.34-10.08.74-21.87.18-30Z"/><path class="h" d="M271.47,338.7a2.24,2.24,0,0,1-2.59,0c-1.91-1.09-4.67-11.59-5.72-18.38-.69-4.45-2.44-13.31-4.68-23.77a39.41,39.41,0,0,1,2.42,8.12c1.28,6,3.08,11.06,3.9,16.3,0,.21.06.43.1.65l.12.67c0,.23.08.45.12.69s.11.56.17.86.15.71.23,1.08c.23,1,.48,2.09.75,3.13.09.36.19.72.29,1.08l.32,1.1a.19.19,0,0,1,0,.07c.12.39.23.77.36,1.15l.18.56c.12.37.25.73.38,1.08s.2.55.3.8.24.6.36.89c.05.11.09.22.14.32l.28.61c.19.38.38.75.57,1.07l.14.24c.14.22.28.42.41.6h0A2.31,2.31,0,0,0,271.47,338.7Z"/><path class="h" d="M293.59,331.61c-1.21,2.11-3.22.09-3.79-1.11-1.84-3.86-2.17-10.95-3.59-24.8-1.18-11.51-2.71-30.54-4.17-39.43l1.92,8.36c1.46,8.87,2.7,23.38,4.21,31.2,2.34,12.06,2.38,20.8,4.21,24.66a1.84,1.84,0,0,0,1.19,1.1Z"/><path class="h" d="M378.27,344.43c-.23.41-.49.82-.76,1.24-4.28,6.51-6.53,11.53-9.61,16.67-.7,1.19-1.45,2.38-2.28,3.59-1.53,2.23-2.62,4-3.57,5.73l-.5.92-.24.47c-1.27,2.43-2.36,4.85-4.06,8.26l-.66,1.33A82,82,0,0,1,346,397.72l-.4.45h0a79.54,79.54,0,0,1-7.26,7.37l-1.21,1.07c-1.19,1.05-2.33,2.07-3.4,3.1-.71.67-1.4,1.36-2.05,2a29.05,29.05,0,0,0-4.2,5.55h0a22.7,22.7,0,0,0-2.25,5.32c-.14.5-.27,1-.39,1.52,1.85-8.31,4.37-12.85,10.92-18.6a114.72,114.72,0,0,0,8.93-8.68,56.59,56.59,0,0,0,8.8-12.1c3.72-7.35,5.51-11.64,9.93-18.12S370.9,353.07,378.27,344.43Z"/><path class="i" d="M337,695.82l-92.58-1.93,20.29-264.07a1.8,1.8,0,0,1,2.07-1.75,26.71,26.71,0,0,0,3.37.33c14,.74,32.87-.57,48.24-.15q2.75.08,5.4.3h.07c1.29.1,2.57.25,3.82.44a1.88,1.88,0,0,1,1.71,1.86l2.1,73Z"/><path class="j" d="M337,695.82l-7.58-.15c-2.75-34.92-3.73-90.1-4.18-133.59-.41-39.34-4.16-104.57-1.45-133.53,1.32.11,2.62.26,3.89.45a1.88,1.88,0,0,1,1.71,1.86Z"/><path class="f" d="M672.46,261.41c-.16.25-.3.51-.45.77v0a25,25,0,0,0-1.14,2.4,43.68,43.68,0,0,0-1.62,4.72c-.09.3-.18.58-.25.85-1.72,5.91-2.56,8.24-3.76,13.44,0,.15-.07.31-.11.46l0,.18c0,.11,0,.21-.07.32s-.06.23-.08.35v0c-.06.22-.11.44-.17.65l-.23.86-.21.71c0,.12-.06.24-.1.36s-.17.53-.25.8-.15.49-.23.74-.07.24-.11.36l-.39,1.18c-.12.36-.24.71-.37,1.06-.07.19-.13.37-.2.55s-.13.35-.2.53a.43.43,0,0,0,0,0l0,0c-.11.3-.23.6-.35.89l-.09.23-.11.27c0,.09-.08.19-.11.28s-.07.15-.1.23c-.12.28-.23.56-.36.82s-.19.42-.28.62l-.08.17a.08.08,0,0,0,0,.05l-.34.69-.06.12h0l-.09.16-.07.15c-.12.21-.23.4-.33.59s-.26.44-.39.64-.17.28-.26.4l-.07.1-.09.13a.18.18,0,0,0-.05.07q-.18.24-.36.45l-.05.06a1.59,1.59,0,0,1-.13.13l-.18.19-.08.08,0,0a1.79,1.79,0,0,1-1.08.53h0c-2.51,0-.84-9.58.14-15.51,1.21-7.33,2.41-20,3.09-26.78-.21,2.19,1.62-10.21,2.92-23,1.38-13.56-6-13.81-9.58-11a7.94,7.94,0,0,0-1.92,2.82h0v0h0v0a47.81,47.81,0,0,0-2.5,8.19c-1.12,4.66-2.29,10.94-3.46,16.95-.13.66-.25,1.32-.38,2-.34,1.74-.68,3.44-1,5.05l0,.14c-.12.57-.24,1.12-.35,1.67-.07.33-.15.65-.22,1l0,.19c-.33,1.48-.66,2.84-1,4-2,7.34-3,13.48-4,18,0,.1,0,.19-.07.29-.19.87-.38,1.68-.58,2.41v.05c-.1.37-.2.73-.31,1.07h0c-.09.29-.18.56-.28.83l-.09.25c-.08.23-.17.44-.26.65l-.15.31-.15.31c0,.09-.09.18-.14.26l-.07.11a2.47,2.47,0,0,1-.47.57l0,0,0,0a1.67,1.67,0,0,1-.28.18h0a.77.77,0,0,1-.26.07h-.06c-1,.12-2.06-1.25-2.25-5.63-.32-6.5,1.09-28.94,1.37-36.43s.67-18.42.55-24c-.19-10.22-5.12-14.41-9.19-13.37a4.17,4.17,0,0,0-.77.28,5.38,5.38,0,0,0-1.46.91,7.78,7.78,0,0,0-1.81,2.33,16.85,16.85,0,0,0-1.56,4.48v0h0c-.4,1.9-.59,4-1,6.58l0,.33c-.24,1.73-.44,3.31-.62,4.83l0,.18c-.25,2.18-.46,4.25-.67,6.42,0,.24,0,.49-.07.73l0,.45,0,.31v0c-.14,1.49-.29,3.05-.45,4.76,0,.21,0,.44-.06.66s-.06.62-.1.93,0,.46-.07.7q-.15,1.53-.33,3.24l-.15,1.47h0l-.09,1c0,.16,0,.31,0,.47s0,.35,0,.53l-.09,1.15c0,.13,0,.25,0,.37,0,.69-.11,1.4-.16,2.11,0,.49-.07,1-.1,1.49,0,.33,0,.67-.08,1l-.05.75-.18,2.52L615.9,265c-.26,3.41-.55,6.89-.95,10.34,0,.05,0,.1,0,.15-.12,1.07-.26,2.14-.42,3.2-.34,2.39-.75,4.74-1.26,7-.82,3.71-1.7,5.21-2.52,5.33h0c-1.57.23-2.93-4.67-3.34-9-.47-4.73-2.54-17.82-3.43-23.86s-2.83-18.51-3.54-23.24c-3-19.63-14.42-15.13-14.81-5.92,0,1.67.07,3.31.11,4.92v0s0,0,0,0v0l.09,2.27,0,.85v.27c.2,4.77.52,9.4.82,14.21l0,.54,0,.7.06,1,0,.6c.08,1.43.19,2.85.31,4.27v.15c.24,2.82.54,5.61.87,8.38a1.94,1.94,0,0,0,0,.24c.13,1.1.26,2.2.4,3.3.36,3.06.74,6.12,1.06,9.2,0,.15,0,.3,0,.44.05.47.09.94.14,1.4.08.81.16,1.62.23,2.43,0,.16,0,.32,0,.48.12,1.33.22,2.68.31,4,0,.14,0,.29,0,.43s0,.25,0,.38c0,.55.09,1.11.13,1.72a.49.49,0,0,0,0,.12c0,.51.06,1,.08,1.57,0,.05,0,.1,0,.15,0,.62,0,1.26.07,1.9.06,1.9.09,3.81.11,5.49a.45.45,0,0,1,0,.11c0,.73,0,1.4,0,2V303a2.81,2.81,0,0,0,0,.29c0,.32,0,.63,0,.94v.09c0,1.74.16,3.28.16,4.73v.14c0,.33,0,.65,0,1s0,.34,0,.51,0,.24,0,.36a5.42,5.42,0,0,1-.06.58c0,.1,0,.2,0,.3a14.06,14.06,0,0,1-1.3,4.17l-.07.14-.15.29v0a.16.16,0,0,1,0,.07,3.9,3.9,0,0,1-.19.35.61.61,0,0,0-.07.1l-.13.2-.06.1-.08.11a.86.86,0,0,0-.07.1l-.2.25c-.09.12-.18.22-.28.33l-.06.06-.12.12-.31.28,0,0-.15.11,0,0-.06,0-.13.09a3.84,3.84,0,0,1-.53.28h0c-1.37.55-2.8-.06-4.06-1.28-8.21-7.91-11.2-22.46-22.7-26.85-10.89-4.16-13.92.24-10.22,7.84.2.43.43.86.68,1.3,3.81,6.84,5.71,12,8.42,17.42.63,1.24,1.29,2.48,2,3.76,1.37,2.35,2.34,4.24,3.17,6,.15.32.29.65.43,1s.14.32.21.48c1.1,2.53,2,5,3.48,8.58.18.44.36.9.57,1.38a81.64,81.64,0,0,0,9.49,15.89c.12.16.24.33.37.49a80.39,80.39,0,0,0,6.74,7.93l1.14,1.15c1.12,1.15,2.19,2.25,3.18,3.36.67.73,1.31,1.46,1.91,2.2a30.45,30.45,0,0,1,3.82,5.87s0,0,0,0a24.21,24.21,0,0,1,1.87,5.5c.1.51.2,1,.28,1.55s.12.9.17,1.35c.12,1,.19,2.07.25,3.14l-.93,0c-.88,0-1.75.06-2.61.13a1.91,1.91,0,0,0-1.86,1.75l-7.38,73L565.73,654.32l93,4.77L657.5,392.77a1.82,1.82,0,0,0-2-1.91,25.66,25.66,0,0,1-3.4.08h-.36c0-.89-.09-1.75-.1-2.66a38.83,38.83,0,0,1,.24-5c.63-5.76,1.53-7.55,4.73-14S665.15,352,667,343.76s3.11-16.2,4.19-24.59,3.31-14,6.07-23a113.68,113.68,0,0,0,5.3-26.2C683.5,257.82,676.07,255.47,672.46,261.41Z"/><path class="o" d="M543.56,292.72c.2.42.43.86.68,1.3,3.81,6.84,5.71,12,8.42,17.42.63,1.24,1.29,2.48,2,3.76,1.37,2.35,2.34,4.24,3.16,6,.16.32.3.65.44,1l.21.48c1.11,2.53,2,5,3.48,8.58.18.44.36.9.56,1.38A82.65,82.65,0,0,0,572,348.5l.38.49a79.07,79.07,0,0,0,6.74,7.92c.38.4.76.78,1.14,1.16,1.12,1.15,2.19,2.25,3.18,3.35.67.73,1.31,1.47,1.91,2.21a30.93,30.93,0,0,1,3.82,5.87s0,0,0,0a24.21,24.21,0,0,1,1.87,5.5c.1.5.2,1,.27,1.55s.13.89.18,1.35a64.68,64.68,0,0,1,.36,7.36c0,.93,0,1.86,0,2.79-.14,5.63-.62,11.28-.64,15.68,0,7.5-.79,10.6-1.11,17.26l2.68.21,55.78,4.33c-.73-6.76-2.85-26.14-2.84-33.29,0-.29,0-.56,0-.8,0-.81,0-1.55,0-2.25,0-2.87-.21-4.85-.24-7.1a37.11,37.11,0,0,1,.24-5c.63-5.76,1.52-7.55,4.73-14s8.49-17.33,10.35-25.52S664,321.39,665,313s3.31-14,6.07-23a113.68,113.68,0,0,0,5.3-26.2c.93-12.16-6.5-14.5-10.12-8.56-.15.25-.3.51-.44.77a38.78,38.78,0,0,0-3,8c-1.72,5.91-2.56,8.24-3.76,13.44,0,.14-.07.28-.1.42l-.06.22c0,.11,0,.22-.07.33l-.09.33c-.06.23-.11.46-.18.68s-.14.57-.23.86-.19.71-.3,1.06c-.15.52-.31,1-.48,1.55s-.32,1-.5,1.54c-.12.36-.24.71-.37,1.06s-.27.72-.4,1.08l0,.08q-.13.39-.3.78l-.14.34-.11.27-.12.28q-.21.54-.45,1.05c-.12.27-.24.54-.36.79l0,.1c-.12.27-.25.51-.37.76h0c-.06.11-.11.22-.17.31s-.22.4-.33.59c-.21.38-.43.72-.64,1l-.16.23a3.4,3.4,0,0,1-.23.3,3.23,3.23,0,0,1-.23.27,3.92,3.92,0,0,1-.4.41,1.29,1.29,0,0,1-.18.16,2,2,0,0,1-.39.25l-.18.08a1.15,1.15,0,0,1-.36.07c-2.52,0-.84-9.58.14-15.51,1.21-7.33,2.41-20,3.09-26.78s2.46-18.47,2.92-23c1.38-13.56-6-13.81-9.58-11a7.94,7.94,0,0,0-1.92,2.82h0s0,0,0,0v0a48,48,0,0,0-2.5,8.18c-1.12,4.67-2.3,10.94-3.46,17-.14.7-.27,1.41-.41,2.11-.34,1.73-.68,3.44-1,5-.14.65-.27,1.28-.4,1.89-.41,1.84-.8,3.53-1.19,5-.6,2.24-1.11,4.36-1.57,6.36-.16.67-.3,1.32-.43,2-.21,1-.4,1.89-.58,2.79-.12.59-.24,1.17-.35,1.73s-.23,1.13-.33,1.65-.21,1.06-.31,1.57-.21,1-.31,1.45-.19.92-.3,1.36-.14.59-.21.87a18.7,18.7,0,0,1-1.63,4.68c-.05.07-.08.14-.13.21a1.33,1.33,0,0,1-.14.19,1.78,1.78,0,0,1-.3.31,1.41,1.41,0,0,1-.34.22,1.13,1.13,0,0,1-.35.09c-1,.12-2.06-1.25-2.25-5.63-.32-6.5,1.09-28.94,1.37-36.43s.67-18.42.55-24c-.19-10.22-5.12-14.41-9.2-13.37a5.29,5.29,0,0,0-.76.27,5.51,5.51,0,0,0-1.46.92,7.78,7.78,0,0,0-1.81,2.33,16.91,16.91,0,0,0-1.56,4.47v0c-.42,2-.61,4.15-1,6.92h0c-.4,2.8-.69,5.23-.94,7.62-.09.87-.17,1.73-.26,2.61s-.17,1.76-.26,2.68c0,.45-.08.92-.13,1.39,0,.24-.05.48-.07.72-.06.72-.13,1.47-.21,2.24-.05.51-.1,1.05-.15,1.59s-.11,1.11-.17,1.68h0c-.08.86-.18,1.76-.28,2.71s-.19,1.95-.29,3c-.06.67-.11,1.36-.17,2s-.11,1.39-.16,2.1-.11,1.43-.15,2.16l-.08,1.08c-.08,1.09-.15,2.2-.24,3.31-.35,4.75-.77,9.67-1.46,14.42a3,3,0,0,1-.06.42c-.21,1.4-.44,2.79-.7,4.15l-.45,2.14c-.83,3.71-1.71,5.21-2.53,5.33-1.57.23-2.93-4.67-3.35-9-.46-4.74-2.54-17.82-3.42-23.87s-2.83-18.5-3.54-23.23c-3-19.63-14.42-15.13-14.81-5.92,0,1.67.06,3.31.11,4.91v0s0,0,0,0a.48.48,0,0,0,0,.12c0,1,.07,2,.11,3v.27c.2,4.77.51,9.4.82,14.21,0,.41,0,.83.08,1.24l.09,1.62c.42,7.29,1.38,14.34,2.21,21.43.16,1.31.31,2.64.45,4l.06.58c.14,1.24.26,2.48.36,3.73.14,1.53.26,3.07.36,4.61,0,.26,0,.53.08.81,0,.55.09,1.11.13,1.71s.07,1.21.1,1.85.05,1.26.07,1.9c.06,1.9.09,3.81.11,5.49,0,0,0,.07,0,.11,0,.81,0,1.57,0,2.25v0c0,3.48.4,6.12,0,8.77a13.56,13.56,0,0,1-1.33,4.31c0,.09-.07.16-.1.24l-.12.21c-.08.15-.15.29-.23.42l-.2.3a.36.36,0,0,1-.07.1l-.07.11-.13.18a1.24,1.24,0,0,0-.14.18L582,312c-.06,0-.12.12-.18.18l-.35.32-.13.1-.05,0-.09.07a.28.28,0,0,0-.09.06l-.28.15a2.1,2.1,0,0,1-.26.13h0c-1.37.55-2.8-.06-4.06-1.28-8.21-7.91-11.2-22.46-22.7-26.85C542.89,280.72,539.86,285.11,543.56,292.72Z"/><path class="p" d="M579.55,227.89l.12,3.12v.08l0,.19.88,15.45.1,1.61c.69,11.68,2.71,22.7,3.44,34.33.45,4.14.48,10.4.51,14.16,0,5.31.87,8.68-1.29,13.09-.08.16-.15.3-.23.44s-.15.29-.23.42l-.2.3c0,.07-.09.14-.14.21l-.27.35c-.09.12-.18.22-.28.33l-.17.18-.36.32-.18.13-.19.13a3.31,3.31,0,0,1-.53.27c1.82.93,3.77.37,5.37-2.88,2.17-4.41,1.33-7.78,1.29-13.09,0-3.76-.06-10-.51-14.16-.73-11.63-3.7-19.75-4.39-31.44C581.93,245,580.36,235.82,579.55,227.89Z"/><path class="p" d="M613.31,221.51c-1.14,8.15-1.39,13.16-2.46,23.25-1.1,10.33-1.24,23.51-3.77,34.81-.83,3.71-1.7,5.21-2.52,5.33,1.16,2.17,3.76,1,5.12-5.13,2.53-11.3,1.56-24.76,2.66-35.08,1.07-10.09.84-22,2-30.14Z"/><path class="p" d="M651.09,294.71a2.28,2.28,0,0,0,2.6.2c2-1,5.53-11.29,7.07-18,1-4.41,2.07-10.55,5.08-20.88a38.78,38.78,0,0,0-3,8c-1.72,5.91-2.56,8.24-3.76,13.44l-.15.64c0,.22-.11.44-.17.67s-.11.45-.17.68-.15.56-.23.85l-.31,1.07c-.3,1-.63,2.06-1,3.08-.12.36-.24.71-.37,1.06s-.26.72-.4,1.08l0,.08c-.14.38-.29.75-.44,1.12-.07.18-.15.36-.22.55-.15.36-.3.71-.46,1.05s-.24.54-.36.79-.28.58-.42.86l-.17.31-.32.59c-.22.38-.44.73-.65,1l-.16.23c-.16.21-.31.4-.46.57h0A2.33,2.33,0,0,1,651.09,294.71Z"/><path class="p" d="M629.42,286c1.06,2.2,3.22.32,3.89-.84,2.12-3.74,3-10.83,5.39-24.61,2-11.46,4.93-30.44,7-39.25l-2.53,8.24c-2.11,8.79-4.4,23.26-6.48,31-3.23,11.93-3.89,20.69-6,24.43a1.84,1.84,0,0,1-1.26,1Z"/><path class="p" d="M543.56,292.72c.2.42.43.86.68,1.3,3.81,6.84,5.71,12,8.42,17.42.63,1.24,1.29,2.48,2,3.76,1.37,2.35,2.34,4.24,3.16,6,.16.32.3.65.44,1l.21.48c1.1,2.53,2,5,3.48,8.58.18.44.36.9.56,1.38A82.65,82.65,0,0,0,572,348.5l.38.48h0a79.07,79.07,0,0,0,6.74,7.92c.38.4.76.78,1.14,1.16,1.12,1.15,2.19,2.25,3.18,3.35.67.73,1.31,1.47,1.91,2.21a30,30,0,0,1,3.82,5.87s0,0,0,0a23.27,23.27,0,0,1,1.87,5.5c.1.5.2,1,.27,1.55-1.25-8.48-3.44-13.21-9.6-19.45a115.14,115.14,0,0,1-8.32-9.35,57.42,57.42,0,0,1-8-12.77c-3.2-7.65-4.68-12.08-8.64-18.9S550.33,301.92,543.56,292.72Z"/><path class="n" d="M559.56,648.15l93,4.77-1.22-266.33a1.81,1.81,0,0,0-2-1.9,25.66,25.66,0,0,1-3.4.08c-14.06-.27-32.94-2.95-48.38-3.64-1.84-.08-3.65-.12-5.44-.09a.09.09,0,0,0-.07,0c-1.3,0-2.6.07-3.86.17a1.91,1.91,0,0,0-1.86,1.75L579,456Z"/><path class="j" d="M559.56,648.15l7.61.39c5.29-34.82,10.26-90.09,13.87-133.68,3.25-39.43,11.75-104.58,11.12-133.82-1.33,0-2.64.07-3.93.17a1.91,1.91,0,0,0-1.86,1.75Z"/></g></g></svg>