<svg xmlns="http://www.w3.org/2000/svg" viewBox="0 0 1758.92 1161.1"><defs><style>.a{fill:#c1eee6;}.b{fill:#96d9c9;}.c{fill:#3c8f7c;}.d{fill:#50bfa5;}.e{fill:#86b1f2;}.f{fill:#fae0b2;}.g{fill:#355389;}.h{fill:#466eb6;}.i{fill:#ff4c16;}.j{fill:#f47458;}.k{fill:#b75742;}.l{fill:#13375b;}.m{fill:#184655;}.n{fill:#f7a491;}.o{fill:#9bc1f9;}.p{fill:#f7cc7f;}.q{fill:#f48c7f;}.r{fill:#07345a;}.s{fill:#fff;}</style></defs><path class="a" d="M516.32,191.66s120.9,27.47,223.41-102.4S1063-20.63,1205,96.75s436.32,22.48,399.52,259.75,209.9,94.14,117.91,371.37-496.4,460.32-882.77,268S403.3,1085.79,172,893.47s-57.83-359.64,10.51-452S269.25,191.66,516.32,191.66Z"/><path class="b" d="M1150,282.64l23.4-22.64c-7.32-40.94-45.73-60.64-71-63.32-68.1-7.23-102.82,39.59-117.43,114.69C958.32,448.45,991.9,1024,991.9,1024c2.51-15.29,187.48-593.29,182.74-752.1Z"/><path class="c" d="M219.07,734.62l-2.9,21.47-6.95-24.83c-19.53-6.16-36.5-8.26-49.95-5.21C39.1,753.36,246.76,918.63,246.76,918.63s-66.18-41.55-130.28-67.86l-.81,21.77-8.2-24.6c-49.8-19.49-96-28.5-105.24-.35-8.69,26.5,8.8,51.59,38.9,73.92l34.6,1.21-20.4,8.56c69.52,44.52,184.51,76.37,224.2,83.62-38-6-130.79-18-185.81-6.18l8.64,14.37-21.73-10.86c-19.25,6.21-31.21,16.49-29.92,32.68,2.46,31,136.78,42.11,136.78,42.11l490.7-4.55,2.73,1.36S377.26,792.57,219.07,734.62Z"/><path class="d" d="M1758.36,1021c-9.47-43.94-105.56-56.86-228-32.77,43.61-14.9,103.53-48.83,134.57-64.33l-21.23-13.51,42.63,2c34.87-20.42,52.3-40.47,40.91-58.6-8.5-13.55-27.17-19.19-52.46-19.12l-13.33,23.84,2.77-23.51c-63.81,3.69-78.28-6.73-164.36,28.06,53.79-27.92,61.56-36.58,65.09-47.79l-29.13-12.75h34.14c27.59-29.68,71.37-88.41,53.21-115.47-15-22.34-80.76,8.66-122.75,24.77L1482.51,752l3.62-34.33c-133.5,58.15-88.25,11.49-88.25,11.49s139.36-288.28,57.26-281.79c-32.41,2.55-67.26,22.09-101.49,53.38l-.87,28.66-10.18-18.19c-24.93,24.44-49.62,54-73.18,85.81,31.95-67.11,56.18-133,58.59-182.1l-24.39-3,24.07-16.74c-2.26-24.8-12.09-43.55-32-53.47-30.53-15.2-62.56,7.8-94.1,53.52l7.79,41.27-19.57-23.12c-112.92,184.05-216.18,637.16-216.18,637.16l-8.19,24.58,331.77,16.38S1777.48,1109.78,1758.36,1021Z"/><path class="e" d="M1270.46,898.51H492.34c-29.72,0-53.81-21.86-53.81-48.83v-29c0-27,24.09-48.82,53.81-48.82h778.12c-35.59,35.3-36.21,89.24-1.43,125.2Z"/><path class="f" d="M1259.56,786.34H868a48.83,48.83,0,0,0-48.83,48.83h0A48.83,48.83,0,0,0,868,884h391.59A93.88,93.88,0,0,1,1259.56,786.34Z"/><path class="g" d="M1235.42,633.35c1.71-2.93-.88-6.32-4.82-6.32H610.91C562.34,627,523,659.52,523,699.61h0c0,40.08,39.37,72.57,87.94,72.57h619.86c4,0,6.55-3.41,4.83-6.35h0C1211.06,723.88,1211.12,675.11,1235.42,633.35Z"/><path class="f" d="M1230.48,642.65H814.71a55.61,55.61,0,0,0-55.61,55.61v4.17A55.61,55.61,0,0,0,814.71,758h416.66C1212.74,721.06,1212.53,679.61,1230.48,642.65Z"/><path class="f" d="M481.26,620.58H881.17c35.47,0,64.22-31,64.22-69.24h0c0-38.24-28.75-69.25-64.22-69.25H481.26c30.57,38.39,31.76,94.7,2.86,134.56Z"/><path class="h" d="M940.12,551.34h0c0-38.24-29.08-69.25-65-69.25H474a3.48,3.48,0,0,1-3.37-3.62h0a3.48,3.48,0,0,1,3.37-3.55H1110.4c39.59,0,71.69,34.21,71.69,76.42h0c0,42.2-32.1,76.42-71.69,76.42H474a3.49,3.49,0,0,1-3.37-3.56h0a3.5,3.5,0,0,1,3.37-3.62H875.17C911,620.58,940.12,589.58,940.12,551.34Z"/><path class="i" d="M968.47,700.8h-42.8c-9.2,0-16.67,2.85-16.67,6.38v.57h59.47Z"/><path class="j" d="M1005,716.79c0-8.83-11.18-16-25-16H925.09c10.45,0,18.93,5.43,18.93,12.13l-.26,171.37,30.35-22,30.93,22Z"/><path class="k" d="M1590.39,898.25H434.19a65,65,0,0,0-65,65v54.68a65,65,0,0,0,65,65h1156.2l-.6-.63A132.38,132.38,0,0,1,1590.39,898.25Z"/><path class="f" d="M1569.92,925.59H951.84a65,65,0,0,0-65,65h0a65,65,0,0,0,65,65h618.07A132.61,132.61,0,0,1,1569.92,925.59Z"/><path class="l" d="M1266.45,990.93h-50.13a19.52,19.52,0,0,0-19.52,19.52v1.75h69.65Z"/><path class="g" d="M1218.37,991c12,0,29.87,10.13,40,22.64l118.88,147.45,69.84,0L1334,1020.83c-13.31-16.5-36.9-29.87-52.7-29.86Z"/><path class="k" d="M172.12,1066.76l24.36-5.69s19.76,1.25,38.2-2.49c0,0,1.86,4.9,2.66,15,.14,1.75-2.37,10.43-4.1,10.7-6.27,1-17.31-.13-36.89.32,0,0-30.82,3.64-47.32-1.8S172.12,1066.76,172.12,1066.76Z"/><path class="m" d="M441.28,668c1.35,14.14,13.22,19.13,24.29,28.08,7.43,6,6.15,22.23.47,32.31-14.38,25.53-2.13,28.68,9.46,47.42,27.92,45.16-58.59,55.14-68.85,58.5s-17.23,7.44-23.3,6.77C365,839,348.3,813,339,789s13.26-25.33,14.42-39.15S328.18,733,336,706.92c8.46-28.24,20.42-52.17,36.29-60.75,26.27-14.21,58.2.65,65.46,12.06A21.87,21.87,0,0,1,441.28,668Z"/><path class="f" d="M443.31,977.12c2.28,5.66,14.79,25.69,14.79,25.69l-175.67,1.74-2.74-36c48.23-.39,95.91-21.72,140.35-37C421.17,934.26,442.21,974.37,443.31,977.12Z"/><path class="d" d="M318.78,838.89s9.44-66.59,24.61-73.5,97.34,2.67,109.63,10.18-8.18,85.71-11.32,107.59c-.19,1.31-.39,2.61-.61,3.91a183.22,183.22,0,0,0,9,93.77c-45,13.66-56.62,21.16-104.83,19.82l-18-105.32S312.89,844.37,318.78,838.89Z"/><path class="n" d="M408.64,721.56s3.78,36.66,7,45.66S407,794.5,387.55,799.56s-5.29-19.53-5.75-29S379.46,716,379.46,716Z"/><path class="j" d="M409.1,725.78a36,36,0,0,1-8.89,7.32c-7.34,4.33-14.06,5.28-19.86,3.95l-.89-21,29.18,5.53S408.81,723.17,409.1,725.78Z"/><path class="n" d="M401.84,654.6a33.35,33.35,0,0,1,18.22,14.22c6.74,11.19,10.49,43.56-13.57,57.74s-41.59-7.73-41.15-28.47S371.2,649.84,401.84,654.6Z"/><path class="n" d="M358,689.4c.26,5.39,3,9.62,6.15,9.46s5.45-4.66,5.18-10-3-9.63-6.14-9.47S357.78,684,358,689.4Z"/><path class="n" d="M419.39,697.65c-1.89,5.33-.52,10.69,3.06,12s8-2,9.94-7.32.53-10.69-3.06-12S421.29,692.32,419.39,697.65Z"/><path class="c" d="M453,775.57s-14,7.35-22.6,27.85,20.67,125.15,26.91,131.85,23.5,7.75,26.44-8.63S476.79,780.74,453,775.57Z"/><path class="o" d="M369.23,761.56l24.15,145.07-94,15.16L269.5,786.08S346.86,754.76,369.23,761.56Z"/><path class="o" d="M187.74,766A50.6,50.6,0,0,1,216,763.45c17.6,3.44,45.57,10.57,56.8,22.63,16.94,18.21,32.62,138.67,32.62,138.67l-73.09-16.39L187.74,766Z"/><path class="p" d="M439.21,1014.19c-12.29-34.14-151.57-158.41-188.44-148.85l19.8,75.79S312,1064.5,352.5,1080.42s78.52-2.05,78.52-2.05S451.5,1048.33,439.21,1014.19Z"/><path class="n" d="M389.2,814.81c-1.73,3.47,9.34,9.66,12.56,12s16.57-.07,16.57-.07S391.13,811,389.2,814.81Z"/><path class="q" d="M270.2,977.23s-35.39,73.55-35.51,81.21c-.17,11-51.18,8-40.1,3.29,2.55-1.09,10.58-5.15,11.19-5.68,3.3-2.84,32.67-94.18,32.67-94.18Z"/><path class="p" d="M281.49,889.24c-1.71-1.89-19.65-9-33.46,8.19s-40.28,151.12-40.28,151.12l32.55,3.19S321.31,933.16,281.49,889.24Z"/><path class="j" d="M176.2,788.82l41.87,122.07A13.53,13.53,0,0,0,228.9,920c39.26,5.56,59.74,8.38,59.74,8.38s7.66.4,15.78.5l89.86-9.59c7.82-.84,13.27-8.41,11.81-16.4L384.22,783a13.47,13.47,0,0,0-15.34-11.14l-86.45,14.53-22.73-.61-68-15.23C181.41,768.29,172.68,778.56,176.2,788.82Z"/><path class="n" d="M359.09,848.2s24.12,4.47,32.36,4.22,18.91,2.35,18.91,2.35,26.92,63.3,30.78,70.36c11.53,21.08,43.5,18.6,43,1-.42-14-55-101.55-69.54-101.12s-59.95-9-61.32-3.26c-.73,3.1,41.85,4.56,35.13,7.19-4.17,1.64-37.5-2.1-37.38,1.82s30.11,4.29,33.34,7.33-31.92-3.72-31.71,2.94c.1,3.35,31,.93,34.34,6C388.37,849.17,356.54,841.6,359.09,848.2Z"/><path class="n" d="M196.46,837.87a3.3,3.3,0,0,0-4.55,2.25c-.48,2.06-.58,4.53.94,6.17,3,3.25,24.12,6.36,24.24,3.23C217.17,847.1,203,840.7,196.46,837.87Z"/><path class="n" d="M192.36,846.06s-2.11,7.91-.28,8,24.66,2.33,25.67-.39S195.3,844.46,192.36,846.06Z"/><path class="n" d="M191.38,854.22s-.65,3.51,1.24,5.54,23.14.7,23.92-2.67S192.13,851.63,191.38,854.22Z"/><path class="n" d="M194.62,861.64s0,2.69,1,3.84,16.77-.45,18.33-3.79S196.45,858.18,194.62,861.64Z"/><path class="n" d="M247.86,1047.3s-7.49,27.13-15,45.07c-4.93,11.74-6.2,23.44-9.46,29.31-8.25,14.82-21.73,15.41-32.45,6.51s3.66-46.46,3.66-46.46l33.81-47.57Z"/><path class="j" d="M223.38,1121.68c2.9-5.21,4.24-15,8-25.39-5.17,3-13.85,5.26-18.57,4-17.3-4.62-18.17-18.56-18.17-18.56s-18,38.49-7.32,47.39S215.13,1136.5,223.38,1121.68Z"/><polygon class="k" points="282.44 786.43 310.13 929.74 293.46 928.74 288.64 928.39 259.72 785.83 282.44 786.43"/><path class="f" d="M378.89,1072c9.48,17.44,28.37,20.15,45.38,18.72,18.81-1.58,39.52-11.87,45.08-33.46,5.94-23.06-1.87-51.61-15.57-69.71-70.1-92.62-70.64-101.75-98.55-114.06-30.13-13.28-142,177.87-142,177.87l30.73,15.7s46.09-38.52,75.53-72.29c3.46-4,13.32-24.52,13.32-24.52S372.62,1060.51,378.89,1072Z"/><path class="q" d="M1276.94,635.29s58.4,25.45,63.55,26.58c3.23.71,40.35-37.76,60.58-52.79.94-.69,4.54-5.81,5.54-6.32,12-6-8.31,28.8-8.31,28.8s-43.06,54.75-52.8,59.44c-12.23,5.89-72.7-24-72.34-25.73Z"/><path class="m" d="M1267.68,580.63c2.51-17.21,14.46-53.84,3.44-68.49-15.5-20.6-48.24-19.71-63.71.09-7.09,9.07-10.93,20.19-14.67,31.08-2.41,7-4.85,14.1-8.25,20.73-3,5.92-6.52,13.32-12.3,16.92-25.71,16-54.51,26.33-56.36,62.4-2.2,42.79,44.67,96.31,102.22,70.4,22-9.92,50.89-42,60.31-64.18,4.25-10,2.21-9-.13-24.2C1276.13,611.74,1265.65,594.49,1267.68,580.63Z"/><path class="g" d="M1236.37,606.22l78.18,43-18.44,28s-58.86-22.43-70.76-25.64S1222.82,605.05,1236.37,606.22Z"/><path class="n" d="M1235,568.9s-2,29.77-3.55,38.12c-1.57,8.62-2.53,44.53,15.41,48.92s11.2-44.24,11.5-53,2-37,2-37Z"/><path class="j" d="M1234.77,572.47a34.11,34.11,0,0,0,4.89,5.74c6.61,6.24,13.41,8.26,19.61,7.45.56-9.87,1.17-19.72,1.17-19.72l-25.41,3S1234.93,570.26,1234.77,572.47Z"/><path class="n" d="M1253.56,511.92a30.65,30.65,0,0,0-19.24,9c-8.35,8.62-18.33,36.77.33,54.38s37.13,2.47,41-16.15S1282,514,1253.56,511.92Z"/><path class="m" d="M1263.79,512.79s-11.38,29.36-38.25,26.88c-12.17-1.12-14.93,15.5-14.93,15.5s10-39.47,22.46-45.33S1263.79,512.79,1263.79,512.79Z"/><path class="n" d="M1229,546.78c.61,5.15-1.71,9.66-5.19,10.07s-6.8-3.43-7.41-8.58,1.71-9.66,5.19-10.07S1228.39,541.63,1229,546.78Z"/><path class="k" d="M1428.75,556.42l-66.18,135.24c-1.58,3.23-1.09,7,1.07,8.24L1412,728.22l60.44-119.85s-26.33-39.4-36.21-54.17C1434.39,551.47,1430.63,552.59,1428.75,556.42Z"/><path class="f" d="M1371.06,687.22l57.59-117.68c1.88-3.83,5.64-5,7.47-2.22L1465,610.51l-54.25,107.56-38.6-22.61C1370,694.19,1369.48,690.45,1371.06,687.22Z"/><path class="q" d="M1402.52,600.18a14,14,0,0,1,5.14-4.11c2.79-.74,6.17-.63,6.72,1.17.81,2.61-7.44,5.51-7.44,5.51l-4.49,6.51S1400.35,604,1402.52,600.18Z"/><path class="n" d="M1232.76,599s20.38,16.83,26.23,22.68,16,12.89,16,12.89l-16.48-22.79L1248,602Z"/><path class="q" d="M1485.7,868.75c-3.16-2.63-6-10.14-7.21-13.43C1471.65,819.87,1439.26,724,1404,724c-30.72,0-125.63,74.43-170,117.44-12.82,12.42-12,1.88-4.1,4.78,4.69,1.73,36.38,54.44,41.45,54.67,15.5.71,29.83-9.67,42.76-16.89,19.72-11,33.43-23.56,44.89-40.67,29-43.33,39.91-68.83,48.65-85.41,0,0,8.25,34.1,12.29,42.33,9.14,18.57,36.44,64.33,47.12,82.16l41.87-1.14S1489.8,872.17,1485.7,868.75Z"/><path class="n" d="M1406.72,743.8s-140.65,65.55-149.53,88.08-2,56,18.44,62.82S1423.11,793,1423.11,793s16.39,30,39.6,50.53c12.38,10.92,33.3,19.83,45.24,27.82,10.45,7,12.8,13.83,12.8,13.83l29.36,1.37s-4.95-1.7-13.83-13.66C1506.3,832.45,1436.75,738.54,1406.72,743.8Z"/><path class="l" d="M1352.44,735.61s45.18,48.71,54.06,112.89c0,0-70.79,30.5-105.61,48.93s-73.74-.68-86-21.17,0-78.17,0-78.17l72.38-11.27Z"/><path class="g" d="M1459.64,870.23c-3.6-1.37-4.86,16.84-5.45,20.9-.67,4.58,1.51,7.67,2.07,8,1.49,1,59.49,2.18,70.58-.8a11.23,11.23,0,0,0,2.6-1.38c8.14-7.11-29.54-26-37.14-24.38C1485.54,874,1475.83,876.4,1459.64,870.23Z"/><path class="h" d="M1231.59,606.91s-11-.11-22.83,25.31c-14.51,31.24,6.19,150.46,4.68,167.47,0,0,5.12,5.88,34.89,10.18a46.1,46.1,0,0,0,41.3-15s-6.72-46,3.45-89.33c5.51-23.46,8.42-46.22-13.35-67.31S1231.59,606.91,1231.59,606.91Z"/><path class="h" d="M1508.33,871.36c-3.6-1.37-6.7,16.17-6.43,20.46.28,4.61,1.46,8,2,8.34,1.49,1,59.55,1.88,70.64-1.09a11.61,11.61,0,0,0,2.6-1.39c8.14-7.11-33.77-24.89-41.37-23.31C1529,875.78,1524.52,877.53,1508.33,871.36Z"/><path class="j" d="M1469.51,550.82l-109.7,159.74c-2.53,3.68-1.93,8.16,1.25,9.34l74.19,27.66L1523,621.77l-43.78-72.54C1477.24,546,1472.29,546.77,1469.51,550.82Z"/><path class="n" d="M1443.43,671.93c-1.4-2.72-12.8,3.32-12.8,3.32s-10.14,1.76-10.86,1.39,6.81-1.07,6.81-1.07,12.46-4.25,12.32-5.65c-.57-5.75-8.37,1.4-14.49,1.67a81,81,0,0,1-14.23-.65c-1.79-1,2.77-3.27,2.77-3.27s6-2.69,5-4.26c-2.33-3.83-16.34,3.44-19.29,6.14-2,1.81-4.44,5.32-7.88,7.27-15,8.46-32.91,23-54.08,33.19-7-5.89-74.66-66.61-76.36-68.09l-37,29.1s106,80.73,111.88,80.54c7.4-.25,51.52-46.81,63.46-57.91,1.81-1.67,13.15-2.94,16.27-2.5,6.93,1,19.92-4.48,19.92-4.48,4-4.23-14.76.05-13-1,.79-.49,5.38-1,9.94-1.61s8.86-3.33,9.42-4.6c1.11-2.48-10.45,1.08-10.45,1.08l-9.63.6,9.22-1.88S1444.81,674.58,1443.43,671.93Z"/><path class="e" d="M1250,623.46c-12-12.23-34.92-10.45-41.62,7-1.86,4.85-1.78,18.78.35,23.9,8.49,20.48,58,53.94,58,53.94l27.31-37.21Z"/><path class="n" d="M759.08,267.55c0-1.57,1.93-11.69,1.93-11.69s-4.5-14.35-5-14.38c-9.27-.67-16.26,5.63-14.7,14.1l.09.28A43.09,43.09,0,0,0,775,285.39c3.6.64,7.41,1.32,11.32,2a63.6,63.6,0,0,1-2.91-18.88C769.82,268.4,759.08,268.13,759.08,267.55Z"/><path class="g" d="M915.8,204.23c-.26-.77-81.48,52.06-81.48,52.06s-34.67.34-60.28.12A82.45,82.45,0,0,0,777.26,279c25.31,4.79,54.14,9.85,60.7,9.35,12.22-.95,73.52-31.53,73.52-31.53S916,204.8,915.8,204.23Z"/><path class="h" d="M916.71,401.5c-.17-1.33-17.33-60.18-19.12-112.89-1.39-40.87,11.27-77.51,17.75-84.21,2.4-2.5,24.7-7.85,24.7-7.85L931.92,210c-8.25,15.57-10.49,29.37-14.07,47-10.39,51,36.28,153,33.91,153.62C949.11,411.34,917.37,406.72,916.71,401.5Z"/><polygon class="o" points="738.71 195.78 724.45 205.09 767.07 276.82 780.47 218.57 738.71 195.78"/><polygon class="o" points="747.52 184.5 765.43 244.03 779.78 218.31 747.52 184.5"/><polygon class="o" points="865.83 177.62 879.61 227.62 778.08 218.4 865.83 177.62"/><path class="n" d="M807.92,389.14s-43.15,52.71-43.27,60.37c-.17,11-51.17,8-40.1,3.29,2.55-1.09,10.58-5.15,11.19-5.68,3.3-2.84,37.3-69.39,37.3-69.39Z"/><path class="r" d="M702.08,457.83l32.81-10.2s11.32,5.76,29.76,2a43.88,43.88,0,0,1,5.61,17.84c.14,1.75,1,6.92-.73,7.19-6.27,1-23.63.55-43.21,1,0,0-26.39.31-42.88-5.13S702.08,457.83,702.08,457.83Z"/><path class="k" d="M1016.85,401.73s-38.82-8.87-75.1-34.82c-42-30-89.22-61.27-107.88-58.72-15,2-102.42,122.21-102.42,122.21l42.33,18.44,76.47-78.52s78.12,80.53,103.79,86C1012.49,468.87,1031.17,425.77,1016.85,401.73Z"/><path class="p" d="M722.45,205.1l58.87,124.72a2,2,0,0,0,1.39,1.12L822,341.88,771.78,218.32l-46.81-16A2,2,0,0,0,722.45,205.1Z"/><path class="r" d="M922.81,87.26s10.87-14.83,23,0c0,0,7.23-5.35,13.67,1.73,0,0,13.52-6,19.6,14.57,0,0,7.06-2.28,9.11,6.2a21.47,21.47,0,0,1-1.6,14.76s4.45,2.53,3.61,10.67c-.72,6.92-6.15,8.65-6.15,8.65s-.07,11.52-4.55,15.55-11.37,3.24-11.37,3.24-1,6.37-6.8,6.55-13.59-4.38-19.69-1.11-23.08,2.79-23.08,2.79-19.75-6-16.58-25.77c0,0-11-7.62-3.7-19.36,0,0-8.39-15.85,2.78-27.25S922.81,87.26,922.81,87.26Z"/><path class="n" d="M862.88,556.72s2.39,64.87,3.87,75.85S839.23,676.45,842.93,665c.86-2.64,3.05-11.36,3.06-12.17,0-4.35-10.76-78.35-10.76-78.35Z"/><path class="r" d="M832,685.25l13.82-31.45s11.77-4.76,21.05-21.14A43.88,43.88,0,0,1,884,640.13c1.41,1,5.88,3.78,5,5.26-3.39,5.37-15.09,18.21-27.59,33.28,0,0-17.07,20.11-32,29S832,685.25,832,685.25Z"/><path class="j" d="M834.55,624.32c3-3.08-30.7-169-14.34-185s125.63-39.6,125.63-39.6l14.34-50.53s45.69,13.4,64.18,41c10.12,15.08-.22,49.46-2,53.26-15.61,32.5-54.17,34.14-82.23,33.85-25.8-.27-71.63-.62-71.63-.62l-.11,146.68s-11.27,2.73-20.15,2.39C836.06,625.22,834.55,624.32,834.55,624.32Z"/><path class="s" d="M935.85,200.1l29.59-10.63s.89,0,1.16,0c3.18-.4,38.1,113.86,49.5,157.08s-3.53,35-3.53,35S986.46,397.85,956.08,399c-31.58,1.19-25.26-36.87-25.26-36.87s-16.63-79.47-14.68-106.52S935.85,200.1,935.85,200.1Z"/><path class="n" d="M936.32,176.86l-.12,14.57,0,2.58s-2,24.94,5.14,28.79,24.1-33.33,24.1-33.33l-7.68-42.3Z"/><path class="j" d="M960.23,160.92c-3.57,15.26-15.32,25.85-24,30.49l.11-14.54,21.42-29.7Z"/><path class="n" d="M936.92,104.2a22.71,22.71,0,0,0-27.21,21.69,170.92,170.92,0,0,0,.91,21.87c2.14,19.74,14.76,37.61,23.71,36.48s32-17,29.39-45.09C962.08,121.82,951.48,107.23,936.92,104.2Z"/><path class="n" d="M957.41,142.2c.55,4.34,3.88,7.5,7.43,7.05s6-4.34,5.43-8.68-3.87-7.51-7.43-7.06S956.86,137.85,957.41,142.2Z"/><path class="r" d="M896.93,99.31c-8.31,8.49-10.13,20-4.08,25.75s17.7,3.5,26-5,10.14-20,4.08-25.75S905.24,90.82,896.93,99.31Z"/><path class="r" d="M921.84,102.25c.41,3.18,4.57,5.27,9.31,4.67s8.25-3.66,7.85-6.84-4.57-5.27-9.31-4.67S921.44,99.07,921.84,102.25Z"/><path class="r" d="M899.43,130a7.38,7.38,0,1,0,6.38-8.33A7.41,7.41,0,0,0,899.43,130Z"/><path class="h" d="M965.42,189.47s29-4.7,38.7-.56c6.19,2.64,14.07,55.16,14.07,55.16s.32,53.12,3.94,68.1c12.28,50.78,29.42,95.24,27.5,97.75-12.6,10.36-65.3,20-69.31,15C936.1,370.46,965.42,189.47,965.42,189.47Z"/><path class="n" d="M1013.78,243.32s-29,89.66-41.7,99.06-69.77-78.58-69.77-78.58-25.26-14.33-27.06-14.48c-7.16-.6,14.94-4.29,14.94-4.29l2.74-22.88s1.08.17,7.68,7.6c8.92,10.05,16.67,25.63,20.31,28.25l38.24,29,19.46-62.13Z"/><polygon class="f" points="771.78 218.32 783.79 217.15 835.26 345.22 822.03 341.87 771.78 218.32"/><path class="p" d="M886.24,187.11l31,150.79a4.1,4.1,0,0,1-3.89,4.92l-78.06,2.41L783.79,217.15l97.11-33.09A4.09,4.09,0,0,1,886.24,187.11Z"/><path class="e" d="M917.68,252.54l-9.9,21.68s48.65,80,63.67,75.62,43.35-91.16,47.79-115-4.78-43.7-17.07-46.78-21.85,17.76-25.6,26.63S959.16,287,959.16,287Z"/><path class="n" d="M744.72,253.73a34.35,34.35,0,0,1-2.41-5.15c-.58-2,11.39-8.75,16.13-5.66S750.52,250.74,744.72,253.73Z"/><path class="n" d="M745.22,261.57s-3-3.16-3.59-5.11,15.35-10,20.09-6.88S751,258.57,745.22,261.57Z"/><path class="n" d="M750.68,267s-3-3.16-3.59-5.11,11.39-8.75,16.13-5.65S756.48,264,750.68,267Z"/><path class="n" d="M895.49,231H893a16,16,0,0,1-3.51-.38c-4.59-1-17.15-3.49-18.13-1-1.19,3.07,18.1,6.65,18.1,6.65s-21.17-2.73-21.17.86,21.51,5.46,21.51,5.46S871,242,870.68,244s23,7.86,23,7.86-18.94-4.1-20.82-1.71,29.7,13.91,29.7,13.91Z"/><path class="n" d="M750.68,267s10.35-5.84,13.09-4-8.88,10.58-8.88,10.58l1.39,3.2S748.86,271.05,750.68,267Z"/></svg>