<svg xmlns="http://www.w3.org/2000/svg" viewBox="0 0 655.92 433.18"><defs><style>.a,.f,.g{fill:#c1eee6;}.b,.u,.v{fill:#27374f;}.b,.p{opacity:0.1;}.c{fill:#88d2d0;}.d{fill:#76b7b3;}.e{fill:#4b6590;}.f,.i,.u{opacity:0.2;}.g{opacity:0.3;}.h{fill:#ffc330;}.i,.o,.p{fill:#2f3f5c;}.j{fill:#b54a31;}.k{fill:#de7356;}.l{fill:#fff;}.m{fill:#fff8f1;}.n{fill:#f4e9e1;}.q{fill:#ffa398;}.r{fill:#ffdc8d;}.s{fill:#e8928b;}.t{fill:#7a8db5;}.w{fill:#cc624a;}.x{fill:#b24f3f;}.y{fill:#889cbf;}.z{fill:none;stroke:#fff;stroke-linecap:round;stroke-miterlimit:10;stroke-width:2px;opacity:0.4;}</style></defs><path class="a" d="M167.86,84.45s44.06,10,81.41-37.32,117.81-40,169.53,2.73,159,8.19,145.58,94.65,76.48,34.31,43,135.33S426.46,447.57,285.67,377.5s-159,32.76-243.28-37.32-21.07-131,3.83-164.72S77.83,84.45,167.86,84.45Z"/><path class="b" d="M409.28,421.47c0,3.6-33.39,6.52-74.57,6.52s-74.57-2.92-74.57-6.52S293.52,415,334.71,415,409.28,417.87,409.28,421.47Z"/><path class="c" d="M333.18,411.12s-3.89-24.66,7.79-38.29-29.2-24.65-22.71-44.12c13.05-39.15-31.15-22.06-33.1-43.47s-9.08-28.55-23.35-26,13,38.94.64,57.75,33.75,11,24.66,46.07S312.42,377.38,317,404,333.18,411.12,333.18,411.12Z"/><path class="d" d="M287.68,401.45s-7.07-2.81-8.86-13.73-22.91,3.78-29.86-6.81c-16.51-25.14-15.23,1.81-37.82-9.76-11.81-6-22.58.75-19.7,8.29,3.19,8.36,15.8,8.44,20.82,25.58,3.91,13.32,27.63-13.95,40.57,4.26S269.62,403,284,411.43,287.68,401.45,287.68,401.45Z"/><path class="e" d="M174.39,318.21c3.07,8.9,6.67,17.94,14.19,24,8.7,7,21,6.55,29.44,13.55,7.84,6.55,9.75,18.06,16.23,25.8,9,10.71,23.51,11.67,36.42,11,1.41-.07,1.41-2.27,0-2.2-14.32.75-28.81-1-37.44-13.79-4.93-7.32-7-16.21-13.66-22.36-7.1-6.56-18.22-6.77-26.48-11.56-9.21-5.34-13.27-15.46-16.58-25.05-.46-1.33-2.59-.76-2.12.59Z"/><path class="e" d="M177.85,323.64s-15.79-1.93-5.73-21.06C172.12,302.58,186.88,312.35,177.85,323.64Z"/><path class="e" d="M227,364.67s-11.88-10.59,7.28-20.58C234.29,344.09,240.86,360.52,227,364.67Z"/><path class="e" d="M235.1,379.83s-7.34-14.11,14.12-16.63C249.22,363.2,249.51,380.89,235.1,379.83Z"/><path class="e" d="M237.84,384.36s8.45,13.48-12.74,17.71C225.1,402.07,223.39,384.46,237.84,384.36Z"/><path class="e" d="M229.55,374.13s-1.64,15.82-21,6.12C208.6,380.25,218.09,365.31,229.55,374.13Z"/><path class="e" d="M218.39,355.46s2.06,15.78-19,10.8C199.42,366.26,205.21,349.53,218.39,355.46Z"/><path class="e" d="M205.3,348.18s-11.25-9,5.58-18.95C210.88,329.23,217.62,343.76,205.3,348.18Z"/><path class="e" d="M192.14,344.73s10.4,12-9.91,19.44C182.23,364.17,177.87,347,192.14,344.73Z"/><path class="e" d="M179.75,330.67s-5.48,14.94-21.81.8C157.94,331.47,170.8,319.32,179.75,330.67Z"/><path class="e" d="M187.5,338.62s-8.73-13.3,12.37-18C199.87,320.64,202,338.21,187.5,338.62Z"/><path class="d" d="M306.09,410.47s11.68-53.21-15.57-57.75c-32.95-5.49-10.27-35.58-37-40.23S243,275,223.21,265.74s-18.59,19.16-5.81,36-18,29,17.42,51.11-12.19,38.34,47.63,58.67S306.09,410.47,306.09,410.47Z"/><path class="f" d="M307.6,419.16c-.7-.94-1.41-1.88-2.16-2.85-54.42-70.63-92-151.6-92.13-151.83-8.82,3.63-5.95,24,4.09,37.27,12.78,16.84-18,29,17.42,51.11s-12.19,38.34,47.63,58.67C294.22,415.52,302.26,417.9,307.6,419.16Z"/><path class="e" d="M460.61,353.71c-7.34,8.64-15.23,16.86-26.73,19.2-11.09,2.25-22.59-2.48-33.3,1.67-8.89,3.44-14.78,11.79-22.3,17.26-13.64,9.94-29.85,5.61-44-.76-1.42-.64-2.66,1.46-1.23,2.1,13,5.88,26.65,10,40.49,4.18,10.23-4.32,16.35-14.46,26-19.66,6-3.22,12.3-2.45,18.78-1.93a61.23,61.23,0,0,0,17.2-.73c11.34-2.3,19.6-11.16,26.77-19.61,1-1.18-.7-2.91-1.72-1.72Z"/><path class="e" d="M456.69,359.51s17.06,4.36,14.38-19.41C471.07,340.1,451.92,344.24,456.69,359.51Z"/><path class="e" d="M402.09,376s-8.47,15.44,15.22,18.76C417.31,394.77,418.07,375.2,402.09,376Z"/><path class="e" d="M418.52,373.77S433.73,369,420.39,352C420.39,352,407.59,364.26,418.52,373.77Z"/><path class="e" d="M433.47,375.51s-15.56,8.24,2.4,24C435.87,399.54,447.27,383.61,433.47,375.51Z"/><path class="e" d="M451.91,366s-.37,17.6,22.16,9.59C474.07,375.59,465.7,357.88,451.91,366Z"/><path class="e" d="M440.71,371.07s14.36-10.2-5.51-23.51C435.2,347.56,426,364.84,440.71,371.07Z"/><path class="e" d="M364.42,300.16c2.9,9,5.09,18,1.24,27.09-3.46,8.12-11,13.78-12.27,22.82-1.09,7.95,2.6,15.85,2.52,23.8-.12,12-9.69,20.07-18.77,26.19-1,.68-.06,2.34,1,1.65,7.2-4.86,14.72-10.51,17.82-19,3.63-9.91.07-18.56-.73-28.55-.9-11.19,9.37-18.57,13.09-28.38,3.24-8.54.64-17.84-2-26.13-.38-1.17-2.22-.67-1.85.5Z"/><path class="e" d="M366.67,305.15s10-9.61-7-17.64C359.64,287.51,354.48,302,366.67,305.15Z"/><path class="e" d="M360.42,336.57s3.13-12.13-13.79-10.25C346.63,326.32,349.55,340,360.42,336.57Z"/><path class="e" d="M367.77,327.29s-.93,13.82,17.06,8.33C384.83,335.62,378.89,321.42,367.77,327.29Z"/><path class="e" d="M369,311s11.62,7.53,15.58-10.86C384.61,300.17,369.31,298.45,369,311Z"/><path class="e" d="M367.8,320.62s-.89-13.82-18-6C349.79,314.58,357.54,327.89,367.8,320.62Z"/><path class="d" d="M346,407.9s54.37-3.29,51.3-30.74c-3.71-33.2,31.43-19.59,28.61-46.56s33.16-20.4,36.71-41.94S439.12,276,426.41,292.9s-32.86-9.39-44.42,30.72-40.21-1.28-43.44,61.83S346,407.9,346,407.9Z"/><path class="g" d="M460.91,278.53c-7.54,4.44-72,44-123,126.38-.05,33.87,8.08,3,8.08,3s54.37-3.29,51.3-30.74c-3.71-33.2,31.43-19.59,28.61-46.56s33.16-20.4,36.71-41.94C463.43,283.84,462.68,280.55,460.91,278.53Z"/><rect class="h" x="324.01" y="269.91" width="18.86" height="147.31"/><path class="i" d="M342.87,306V269.91H324v40.63C330.28,309,336.57,307.48,342.87,306Z"/><rect class="h" x="300.38" y="257.42" width="66.12" height="26.76" rx="11.81"/><path class="h" d="M377.52,422.73v-3.15a11.81,11.81,0,0,0-11.81-11.81H301.16a11.8,11.8,0,0,0-11.8,11.81v3.15Z"/><path class="h" d="M377.52,422.73v-3.15a11.81,11.81,0,0,0-11.81-11.81H301.16a11.8,11.8,0,0,0-11.8,11.81v3.15Z"/><rect class="i" x="289.36" y="419.58" width="88.16" height="3.15"/><path class="j" d="M284.33,174.75c14.87-1.52,30.4-1.73,47.75-1.48,17.35-.25,36.82,0,51.69,1.48,34.52,3.55,30.09,45.59,30.09,45.59v49.57H254.23V220.34S249.81,178.3,284.33,174.75Z"/><path class="k" d="M415.19,271.24H252.9V220.41c-.15-1.61-1.93-22,9.08-35.61,5.35-6.58,12.82-10.4,22.21-11.37a322.9,322.9,0,0,1,35.86-1.58c4.07,0,8.11,0,12.05.09s7.93-.09,12-.09c16.18,0,29.57.53,39.79,1.58,9.4,1,16.87,4.79,22.21,11.37,11,13.57,9.24,34,9.08,35.61Zm-159.63-2.66h157V220.2c0-.2,2-20.77-8.5-33.73-4.88-6-11.75-9.51-20.41-10.39-10.13-1-23.43-1.57-39.52-1.57-4.06,0-8.09,0-12,.09s-8-.09-12.05-.09a320.35,320.35,0,0,0-35.59,1.57c-8.66.88-15.53,4.38-20.41,10.4-10.54,13-8.52,33.52-8.5,33.72v48.38Z"/><path class="j" d="M284.25,357.46c3.24.33,2.77.6,6.37.81,3.61-.21,7.07-.48,10.31-.81,34.52-3.54,30.1-45.59,30.1-45.59V271.76H254.16v40.11S249.73,353.92,284.25,357.46Z"/><path class="k" d="M290.62,359.6h-.08c-3.77-.23-3.32-.5-6.42-.82-9.39-1-16.87-4.79-22.21-11.37-11-13.57-9.24-34-9.08-35.6V270.43h79.52v41.38c.16,1.6,1.94,22-9.08,35.6-5.34,6.58-12.81,10.41-22.2,11.37-3.1.32-6.59.59-10.37.82Zm-35.13-86.52V312c0,.21-2,20.77,8.5,33.74,4.88,6,11.75,9.5,20.41,10.39,3,.31,2.52.58,6.23.8,3.71-.22,7.13-.49,10.18-.8,8.66-.89,15.52-4.39,20.4-10.39,10.54-13,8.53-33.53,8.51-33.74V273.08Z"/><path class="i" d="M332.35,311.81V270.43H252.83v41.38c-.16,1.6-1.93,22,9.08,35.6,5.34,6.58,12.82,10.41,22.21,11.37,3.1.32,2.65.59,6.42.82h.16c3.78-.23,7.27-.5,10.37-.82,9.39-1,16.86-4.79,22.2-11.37C334.29,333.84,332.51,313.41,332.35,311.81Z"/><polygon class="l" points="310.86 282.18 220.57 238.84 251.75 171.21 344 214.33 310.86 282.18"/><polygon class="m" points="310.86 282.18 220.57 238.84 251.75 171.21 280.22 228.37 344 214.33 310.86 282.18"/><polygon class="n" points="276.28 232.53 251.01 172.41 251.75 171.21 280.22 228.37 344 214.33 276.28 232.53"/><path class="k" d="M301,174.75c-3.24-.33-6.71-.59-10.31-.81,12.95-.78,27.81-.87,41.38-.67,17.35-.25,36.82,0,51.69,1.48,34.52,3.55,30.09,45.59,30.09,45.59v49.57H331.1V220.34S335.53,178.3,301,174.75Z"/><circle class="j" cx="345.48" cy="218.13" r="8.41"/><path class="k" d="M345.48,227.86a9.74,9.74,0,1,1,9.74-9.73A9.74,9.74,0,0,1,345.48,227.86Zm0-16.81a7.08,7.08,0,1,0,7.09,7.08A7.09,7.09,0,0,0,345.48,211.05Z"/><path class="h" d="M345.2,125.19l24.29,5.31v4.42l-20.24,6v77.39a3.77,3.77,0,0,1-7.53,0V129C341.72,126.91,342.88,124.81,345.2,125.19Z"/><ellipse class="b" cx="539.98" cy="424.06" rx="109.19" ry="9.11"/><path class="o" d="M620.14,407.87v14.6s66.67,10.71,18-5.35l-1-8.76Z"/><path class="k" d="M651.77,245.66s-8.43,117.28-13.62,164.65l-19,2.92L613.49,282l-7.14,1.3L564.82,406.58l-20.76.64L583,248.9Z"/><path class="p" d="M577.46,271.42l-33.4,135.8,20.76-.64,41.53-123.29S588,274.41,577.46,271.42Z"/><polygon class="q" points="617.71 413.71 641.55 413.71 643.34 404.79 616.73 406.41 617.71 413.71"/><polygon class="h" points="581.9 320.9 446.38 319.66 453.87 421.17 483.91 425.88 580.4 421.17 581.9 320.9"/><polygon class="i" points="477.04 319.94 446.38 319.66 453.87 421.17 483.91 425.88 477.04 319.94"/><polygon class="r" points="477.04 319.94 492.79 343.28 593.92 341.21 581.9 320.9 477.04 319.94"/><polygon class="r" points="446.38 319.66 477.04 319.94 465.02 342.04 431.87 339.13 446.38 319.66"/><path class="s" d="M580.43,121.73l4,32,10.08,2.06s-10.35,12.59-22.35,14-18.22-10.78-18.22-10.78l9-1.24-7-26.62Z"/><path class="q" d="M548.68,88.35s-18.23,55.56-2.59,57.94c14.71,2.23,31.49,8.14,36-18.65s2.9-30-4.34-34.69S551.9,75.29,548.68,88.35Z"/><path class="q" d="M582,121s5.88-8.62,8.55-4.47-1.13,17.19-9.62,14.47S582,121,582,121Z"/><path class="o" d="M583.54,120.61s-2.31,25.31-9.9,30.76-32.89,2.7-35-6.88,1.65-20.39,1.65-20.39-1.77,13.74,1.47,13.47-1.24-10,7.44-11.06,19.29,2,19.75,5.92-4,10.76,2.07,11,8.66-23.06,9.07-31.45-5.25-7.54-4.39-16.33c0,0-8.57,3.24-21.06-1.24l5.92-2.09a20.89,20.89,0,0,1-19.5-11.08l7.94.61A16.93,16.93,0,0,1,545.89,66s8.8,9.48,15.92,9.39a10.34,10.34,0,0,1-5.69-7s9.36,2.4,15.14,7.64l-3.07-7.69s21.68,10.54,23.67,18.18-2.89,28.9-2.89,28.9S584.87,115.5,583.54,120.61Z"/><path class="l" d="M546.36,130.83l20,2.34S557.41,141.69,546.36,130.83Z"/><path class="k" d="M554.62,125.49c-.65-.38-1.28-.79-1.9-1.21s-1.22-.85-1.81-1.3l-.3-.22.13-.46c.37-1.27.78-2.53,1.22-3.78s.93-2.47,1.43-3.7,1.06-2.42,1.65-3.61a36.47,36.47,0,0,1,2-3.49,36.86,36.86,0,0,1-.88,3.91c-.36,1.27-.76,2.53-1.19,3.78s-.9,2.49-1.41,3.71-1,2.43-1.62,3.62l-.17-.68c.51.54,1,1.1,1.49,1.66S554.18,124.87,554.62,125.49Z"/><path class="o" d="M545.21,110.8a4.29,4.29,0,0,1,0-.71,6.41,6.41,0,0,1,.38-1.86,5,5,0,0,1,.58-1.19,4.07,4.07,0,0,1,1.09-1.15,3.43,3.43,0,0,1,.78-.42l.43-.16.45-.07a4,4,0,0,1,.92,0l.23,0,.23,0,.37.07a8,8,0,0,1,.84.27,7.16,7.16,0,0,1,.78.4,4.31,4.31,0,0,1,1.26,1.18,4.11,4.11,0,0,1,.64,1.45,4.64,4.64,0,0,1,.13,1.35,5.48,5.48,0,0,1-.45,1.87,3.89,3.89,0,0,1-.24.47l-.1.16v-.7a8.16,8.16,0,0,0-.2-1.72,6.47,6.47,0,0,0-.35-1,4.37,4.37,0,0,0-.62-.92,3.9,3.9,0,0,0-.91-.69l-.55-.25c-.21,0-.33-.12-.59-.17l-.37-.08s-.17,0-.13,0h-.14a1.84,1.84,0,0,0-.57,0,2.52,2.52,0,0,0-1,.28,4.27,4.27,0,0,0-.89.66,7,7,0,0,0-.71.85,12.8,12.8,0,0,0-.92,1.5Z"/><path class="o" d="M563.63,113.21a5,5,0,0,1,0-.71,6.9,6.9,0,0,1,.38-1.87,4.7,4.7,0,0,1,.59-1.19,4.3,4.3,0,0,1,1.08-1.15,4.13,4.13,0,0,1,.78-.41l.43-.16a3.4,3.4,0,0,1,.46-.07,3.09,3.09,0,0,1,.91,0l.23,0,.24,0,.36.07a7.33,7.33,0,0,1,.84.27,7.09,7.09,0,0,1,.78.39,4.48,4.48,0,0,1,1.26,1.19,4,4,0,0,1,.65,1.45,4.29,4.29,0,0,1,.12,1.35,5.1,5.1,0,0,1-.45,1.87,4.85,4.85,0,0,1-.24.47l-.09.16s0-.25,0-.7a8.2,8.2,0,0,0-.19-1.73,5.82,5.82,0,0,0-.36-1,3.44,3.44,0,0,0-1.53-1.61,3.87,3.87,0,0,0-.55-.25,4.31,4.31,0,0,0-.59-.17l-.36-.09s-.18,0-.14,0l-.14,0a2.11,2.11,0,0,0-.56,0,2.51,2.51,0,0,0-1,.27,4.42,4.42,0,0,0-.89.67,7.72,7.72,0,0,0-.71.84,14.66,14.66,0,0,0-.93,1.51C563.74,113,563.63,113.21,563.63,113.21Z"/><path class="o" d="M545.23,100.59a3,3,0,0,1,.44-.53A6.49,6.49,0,0,1,547.05,99a7.59,7.59,0,0,1,2.32-.85,9.25,9.25,0,0,1,1.42-.13,7.53,7.53,0,0,1,1.49.15l.75.18c.24.08.47.18.7.28a5.78,5.78,0,0,1,1.29.72,5.94,5.94,0,0,1,1,.91,4.46,4.46,0,0,1,.72,1,5.28,5.28,0,0,1,.44.9,5.68,5.68,0,0,1,.22.74,3.89,3.89,0,0,1,.11.67s-.25-.09-.62-.27a6.1,6.1,0,0,1-.64-.31c-.22-.13-.53-.21-.8-.35a6.46,6.46,0,0,0-.88-.37,7,7,0,0,0-.94-.34,10.14,10.14,0,0,0-1-.3,4.1,4.1,0,0,1-.5-.14l-.52-.09c-.33-.11-.7-.11-1-.2l-1.06-.14c-.71-.08-1.41-.14-2-.19l-1.6-.15Z"/><path class="o" d="M563.18,103.84a3.21,3.21,0,0,1,.43-.53,6.49,6.49,0,0,1,1.38-1.07,7.53,7.53,0,0,1,2.32-.85,8.14,8.14,0,0,1,1.42-.14,8.59,8.59,0,0,1,1.5.16l.74.18a7,7,0,0,1,.71.28,5.35,5.35,0,0,1,1.28.72,5.23,5.23,0,0,1,1,.91,4.23,4.23,0,0,1,.72,1,4.13,4.13,0,0,1,.44.9,4.9,4.9,0,0,1,.22.74,4.67,4.67,0,0,1,.12.66s-.26-.09-.63-.26c-.18-.09-.41-.19-.63-.32s-.53-.21-.8-.34a5.81,5.81,0,0,0-.88-.37,9.75,9.75,0,0,0-.95-.35,10.11,10.11,0,0,0-1-.29l-.5-.14-.52-.1c-.33-.1-.7-.11-1-.19l-1.07-.14c-.71-.08-1.41-.14-2-.2l-1.59-.15Z"/><path class="t" d="M555.94,158.57s-18,1.93-20.52,12.3,45.63,89.71,45.63,89.71,57.33,9.29,73.39-18.62c0,0-23.9-66.4-43.11-82.1-10-8.16-24.33-5.73-24.33-5.73s.54,14.21-14.56,15.09C560.8,169.9,555.94,158.57,555.94,158.57Z"/><path class="u" d="M632.61,207.26c-15.66,0-31.34.66-47-.09a184.68,184.68,0,0,1-22.75-2.26c-5-.86-9.86-2.47-14.75-3.78,15.73,29.24,32.94,59.45,32.94,59.45s57.33,9.29,73.39-18.62c0,0-5.84-16.23-14.07-34.53Q636.5,207.27,632.61,207.26Z"/><path class="q" d="M535,183.85l-16.07,36.51-46,4.83c-11.17-15-3.95.25-3.95.25-29.72-3.92-3.35,3.21-3.35,3.21-31.22-4.67-1.23,3.42-1.23,3.42-30.14-1.52-2.41,3.33-2.41,3.33-4.78-.82-18.13,1,2.32,3.7,13.83,1.82,57.47,3.92,64.55,1.6,5.68-1.87,13.56-15.9,19.4-27.88C543.61,203.27,539.51,193.45,535,183.85Z"/><path class="s" d="M535,183.85l-11.62,26.41A163.74,163.74,0,0,0,543,223c1.86-3.35,3.64-6.85,5.27-10.19C543.61,203.27,539.51,193.45,535,183.85Z"/><path class="t" d="M535.42,170.87l-14.27,34.4s13.32,10.8,26.68,12.94l7.38-16.49Z"/><path class="q" d="M589.23,215.56c-3.4-1.21-6.78-2.41-10.23-3.35l-30.87,96.55c-20.39,4.11-1.62,4.08-1.62,4.08-18,28,1.64,4.89,1.64,4.89-19.45,29.15,2.86,2.85,2.86,2.85-15.78,29.56,2.21,4,2.21,4-3.1,4.41-7.56,18.7,4.81-.58,7.65-11.93,39.73-85.36,45.88-104C599,218.71,594.07,217.3,589.23,215.56Z"/><path class="s" d="M601.15,227.6c1.17-3.06,2.11-5.64,2.76-7.61-4.95-1.28-9.84-2.69-14.68-4.43-3.4-1.21-6.78-2.41-10.23-3.35l-1.74,5.43C585,220.74,593,224.37,601.15,227.6Z"/><path class="t" d="M582,188.43l-6.34,25.1L609.57,223S620.1,189.93,620.52,174,582,188.43,582,188.43Z"/><ellipse class="b" cx="100.37" cy="420.49" rx="60.93" ry="6.52"/><path class="o" d="M77.61,81s-.8-10.52-13-10.52C57,70.47,52.32,76.13,49.48,83c-2.71,6.59-13.55-1-18.61,7.08s4.86,8.1.4,14.17-7.49,10-2,17.2c5.67,7.48,10.52-2.43,15.38,8.7s18.61,7.69,28.12-3.85S77.61,81,77.61,81Z"/><path class="v" d="M53.13,123.64c-4.86-11.13-9.71-1.21-15.38-8.7-5.47-7.23-2.43-11.13,2-17.2,3.95-5.38-3.38-6-1.58-11.7-2.76.21-5.44,1-7.32,4-5.06,8.1,4.85,8.1.4,14.17s-7.49,10-2,17.2c5.67,7.48,10.52-2.43,15.38,8.7,4.56,10.46,17,8,26.38-1.87C68.63,122.09,56.4,131.13,53.13,123.64Z"/><path class="v" d="M111.81,119.84c-10.73,1.42-5.47,16.59-21.25,13.56s8.7-29.75,8.7-29.75S122.53,118.42,111.81,119.84Z"/><path class="k" d="M58.39,113s5.26,24.28,2.83,27.32-16-1-20.23,7.89,49.57,7.48,55.44-.61-6.48-4.65-14-6.27-4-16-4-16Z"/><path class="w" d="M79,138.79c-2.75-4.57-.62-13.49-.62-13.49L58.39,113s3.17,14.65,3.45,22.62C67.08,138,73.32,138.52,79,138.79Z"/><path class="k" d="M78.22,82s14.67-.81,19.83,9.51c6.67,13.36,1.41,46.14-17.4,45.33-13.76-.6-20.24-12.75-21.45-22.87,0,0-4.05,2.83-5.67-3.44-1.36-5.27,1.22-13.76,7.49-8.9C61,101.63,64.05,81.39,78.22,82Z"/><path class="o" d="M75.17,82.09S73,90,79.61,90.8,88,91.74,89.55,101s11.1,2.82,10.93,11.74c-.2,10.09-.2,16.15,7.88,18.17,9.64,2.41,9.84-8.42,18.17-5.77,13.56,4.33,18.79-9.2,15.87-17-2.58-6.88-11.54-8.45-10.18-14.44s.58-16.63-9.87-14.31-4.06-2.71-11.41-9.09-15.08-3.68-19.53,2.51S78.07,68.56,75.17,82.09Z"/><path class="o" d="M75.79,85S73.36,101.43,63,103.45c0,0,1.42,7.28-1,7.28s.2-9.51-3.44-10.32-5.26-22.25,3.24-23.47S77,76.33,75.79,85Z"/><path class="v" d="M87.91,109.88s0,.3,0,.82a15,15,0,0,0,.27,2.1,7.74,7.74,0,0,0,.39,1.31,3.54,3.54,0,0,0,.31.65,3.62,3.62,0,0,0,.41.61,4.1,4.1,0,0,0,.5.52l.62.41a4.66,4.66,0,0,0,.71.26,6.29,6.29,0,0,0,.74.14,6,6,0,0,0,.84,0,3.41,3.41,0,0,0,.69-.15,2.66,2.66,0,0,0,.66-.31,2.75,2.75,0,0,0,.59-.44,6.21,6.21,0,0,0,.94-1.12,12.16,12.16,0,0,0,.65-1.22,17.86,17.86,0,0,0,.74-2c.15-.5.23-.79.23-.79s0,.3,0,.83a9.65,9.65,0,0,1-.32,2.18l-.21.7-.31.73a5.84,5.84,0,0,1-1,1.44,4,4,0,0,1-.72.63c-.14.09-.27.19-.42.27l-.47.19a3.86,3.86,0,0,1-1,.24,5.84,5.84,0,0,1-.93,0,5.46,5.46,0,0,1-2-.58,6,6,0,0,1-.81-.59,4.77,4.77,0,0,1-.62-.74,4.68,4.68,0,0,1-.72-1.61,6.48,6.48,0,0,1-.22-1.5,8.76,8.76,0,0,1,.19-2.21A5,5,0,0,1,87.91,109.88Z"/><path class="v" d="M69.72,107.43s0,.3,0,.82a14.79,14.79,0,0,0,.26,2.1,7.74,7.74,0,0,0,.39,1.31,3.54,3.54,0,0,0,.31.65,4.22,4.22,0,0,0,.92,1.14l.61.4a6.09,6.09,0,0,0,.71.27c.25,0,.55.13.74.13a4.88,4.88,0,0,0,.85,0,2.87,2.87,0,0,0,.68-.15,2.66,2.66,0,0,0,.66-.31,2.7,2.7,0,0,0,.59-.43,6.27,6.27,0,0,0,.94-1.13,11.16,11.16,0,0,0,.65-1.22,15.48,15.48,0,0,0,.74-2c.15-.5.23-.79.23-.79a6.72,6.72,0,0,1,0,.83,9.8,9.8,0,0,1-.32,2.19l-.21.69-.31.73a5.61,5.61,0,0,1-1,1.44,4,4,0,0,1-.73.63c-.14.09-.27.19-.42.27l-.47.19a3.51,3.51,0,0,1-1,.24,4.86,4.86,0,0,1-.93,0,5.46,5.46,0,0,1-2-.58,6,6,0,0,1-.81-.59,4.95,4.95,0,0,1-1.34-2.35,6.48,6.48,0,0,1-.22-1.5,8.76,8.76,0,0,1,.19-2.21A6.84,6.84,0,0,1,69.72,107.43Z"/><path class="x" d="M85.37,114.58a12.25,12.25,0,0,1,.77,1.42,15.69,15.69,0,0,1,.61,1.47,24.45,24.45,0,0,1,.92,3l.11.43-.33.2c-.54.33-1.09.65-1.65.93a13.41,13.41,0,0,1-1.78.76,13.65,13.65,0,0,1,1.32-1.41c.47-.43,1-.83,1.45-1.22l-.22.63a26.43,26.43,0,0,1-.84-3c-.1-.52-.2-1-.26-1.57A10.71,10.71,0,0,1,85.37,114.58Z"/><path class="v" d="M68.77,102.44a3.29,3.29,0,0,1,.4-.49,6.41,6.41,0,0,1,1.29-1,7.67,7.67,0,0,1,2.16-.89,7,7,0,0,1,1.31-.22,7.92,7.92,0,0,1,1.38,0,8.92,8.92,0,0,1,1.36.2,10.43,10.43,0,0,1,1.27.4A9.4,9.4,0,0,1,79,101a5.72,5.72,0,0,1,.9.63,6.17,6.17,0,0,1,1.15,1.16,5.06,5.06,0,0,1,.37.51l-.62-.1-.67-.14a7.88,7.88,0,0,0-.84-.16c-.3,0-.61-.16-1-.2l-1-.18c-.36,0-.72-.11-1.08-.15s-.74-.1-1.12-.1c-.75-.06-1.5-.07-2.22-.06s-1.41,0-2,.1-1.14.09-1.52.12Z"/><path class="v" d="M88.45,105.63a4.31,4.31,0,0,1,.45-.44,6.5,6.5,0,0,1,1.4-.86,8,8,0,0,1,2.25-.64,8.18,8.18,0,0,1,1.32-.06,7.86,7.86,0,0,1,1.37.14,10.18,10.18,0,0,1,1.34.36,9.46,9.46,0,0,1,1.21.54,10.17,10.17,0,0,1,1,.67,6.75,6.75,0,0,1,.83.73,6.47,6.47,0,0,1,1,1.29,4.24,4.24,0,0,1,.3.54s-.23-.05-.6-.16c-.18-.06-.41-.13-.64-.22s-.53-.16-.82-.26-.58-.23-.92-.3l-1-.3c-.35-.08-.7-.19-1.06-.28s-.73-.19-1.1-.22a21.21,21.21,0,0,0-2.2-.32c-.71-.07-1.4-.12-2-.14s-1.14,0-1.52,0Z"/><path class="l" d="M73.09,123.75l16,2.29S82.13,132.11,73.09,123.75Z"/><path class="k" d="M101.27,313.23s10.16,52.28,38.67,99.47c0,0,35.3-8.53,8.2-6.15,0,0-12.62-74.32-20.61-93S101.27,313.23,101.27,313.23Z"/><path class="w" d="M140.9,367.41c-4.17-21-9.35-44.45-13.37-53.83-8-18.66-26.26-.35-26.26-.35a350.49,350.49,0,0,0,21.31,65.64A84.44,84.44,0,0,0,140.9,367.41Z"/><path class="o" d="M148.14,406.55s14-2.26,12.27-.12-20.09,7.34-20.09,7.34l-.75-1.77S159.32,406.6,148.14,406.55Z"/><path class="k" d="M75,311.89s12.64,51.74,6.47,106.52c0,0-35.63,7-10-2.15,0,0-26.39-84.58-26.93-104.87S75,311.89,75,311.89Z"/><path class="w" d="M60,377.83a198.68,198.68,0,0,0,22.81-6,345.54,345.54,0,0,0-7.82-60s-31-20.79-30.47-.5C44.83,322.46,52.82,352.67,60,377.83Z"/><path class="o" d="M71.47,416.26s-13.62,3.78-11.2,5,21.32-1.73,21.32-1.73l-.06-1.93S61.33,421,71.47,416.26Z"/><path class="t" d="M36.5,204S25.07,221,25.12,247.35C25.17,269.18,42,363.63,42,363.63s23.54,12,45.7,1.72L78.21,259.81l28.54,105.27s26.24,2.78,42.74-7.67c0,0-25.94-124.35-40.2-149.45S36.5,204,36.5,204Z"/><path class="u" d="M121.84,242.77c-4.79,2.26-33.38,16-43.58,18.18l28.49,104.13s26.24,2.78,42.74-7.67C149.49,357.41,135.08,288.35,121.84,242.77Z"/><path class="u" d="M109.29,208C95,182.85,36.5,204,36.5,204a63.64,63.64,0,0,0-5.78,12c13,6.37,54.8,24.61,86.93,13.09C114.64,219.79,111.79,212.35,109.29,208Z"/><path class="y" d="M40.29,360.13s24.09,7.37,48.46-1.7l.57,8.5S61.83,378,42,367.78Z"/><path class="y" d="M148.83,351.06s-20.14,11.74-45.19,7l2.4,10s24.93,6.23,43.07-9.64Z"/><path class="h" d="M46.25,142.1s-12.43,1.69-10.93,17c1.29,13.16,12.14,32,12.14,32S33.7,205.23,30.87,212.92c0,0,56.55,23.35,86.5,3.11,0,0-10.6-25.29-13.89-47.4-.53-3.5,8.33-6.43,8.33-6.43s-5.4-16.46-15.38-19.7c0,0-8.5,11.33-25.5,10.52S46.25,142.1,46.25,142.1Z"/><path class="b" d="M103.48,168.63c-.53-3.5,8.33-6.43,8.33-6.43a51.7,51.7,0,0,0-3.13-7.15c-20.22,12.5-42.79,22.4-66.28,26.11,2.67,5.76,5.06,9.9,5.06,9.9S33.7,205.23,30.87,212.92c0,0,56.55,23.35,86.5,3.11C117.37,216,106.77,190.74,103.48,168.63Z"/><polygon class="l" points="89.38 257.68 208.12 233.27 191.35 144.7 70.36 168.27 89.38 257.68"/><polygon class="m" points="89.38 257.68 208.12 233.27 191.35 144.7 141.15 203.47 70.36 168.27 89.38 257.68"/><polygon class="n" points="144.54 209.52 191.86 146.33 191.35 144.7 141.15 203.47 70.36 168.27 144.54 209.52"/><polygon class="l" points="89.38 257.68 208.12 233.27 191.35 144.7 70.36 168.27 89.38 257.68"/><polygon class="m" points="89.38 257.68 208.12 233.27 191.35 144.7 141.15 203.47 70.36 168.27 89.38 257.68"/><polygon class="n" points="144.54 209.52 191.86 146.33 191.35 144.7 141.15 203.47 70.36 168.27 144.54 209.52"/><path class="k" d="M140.92,154.3s10.55-5.94,14.92-5.47,8.68,19,.52,3.36c0,0,4.76,23.35-3.08.48,0,0,1.81,24.67-3.12.2,0,0,.17,17.75-2.8.43Z"/><path class="k" d="M41.71,179.48l22.53-8.93,20,63.34,5.56,6.72s-4.24,3.77-9.37,3.77S41.71,179.48,41.71,179.48Z"/><path class="k" d="M83.83,233.75s16.46,1.94,2.86,3.2c0,0,17.71,16.34,1.6,5.49,0,0,14.74,17.25-2.4,1.82,0,0,11.31,16.58-2.86,1.26,0,0,7.66,16.12-3.77-.68C67.18,227.07,71.14,228,71.14,228Z"/><path class="w" d="M65.82,175.56l-1.58-5-22.53,8.93s.93,1.79,2.5,4.78C51.33,181.16,58.48,178.1,65.82,175.56Z"/><polygon class="l" points="487.91 191.98 398.77 169.6 414.37 103.07 505.24 124.88 487.91 191.98"/><polygon class="m" points="487.91 191.98 398.77 169.6 414.37 103.07 450.48 149.23 505.24 124.88 487.91 191.98"/><polygon class="n" points="447.7 153.7 413.93 104.29 414.37 103.07 450.48 149.23 505.24 124.88 447.7 153.7"/><polygon class="m" points="307.71 115.89 227.32 160.44 196.45 109.61 219.14 56.03 277.71 63.46 307.71 115.89"/><polygon class="q" points="193.32 69.18 246.66 37.18 271.32 77.18 254.35 118.65 219.99 112.51 193.32 69.18"/><polygon class="p" points="307.71 115.89 227.32 160.44 196.45 109.61 253.21 112.48 277.71 63.46 307.71 115.89"/><polygon class="l" points="307.71 115.89 227.32 160.44 196.45 109.61 254.35 118.65 277.71 63.46 307.71 115.89"/><line class="z" x1="213.16" y1="78.18" x2="247.66" y2="55.68"/><line class="z" x1="225.16" y1="100.18" x2="259.66" y2="77.68"/><line class="z" x1="218.66" y1="88.68" x2="253.16" y2="66.18"/><polygon class="q" points="372.76 0 419.32 11.85 381.99 81.18 372.76 0"/><polygon class="u" points="372.76 0 419.32 11.85 381.99 81.18 372.76 0"/><polygon class="q" points="372.76 0 422.23 26.95 387.18 90.64 338.55 65.12 372.76 0"/></svg>