<svg xmlns="http://www.w3.org/2000/svg" xmlns:xlink="http://www.w3.org/1999/xlink" viewBox="0 0 479.21 349"><defs><style>.a{fill:none;}.b{clip-path:url(#a);}.c{opacity:0.75;}.d{fill:#00a9e0;}.e{fill:#97d700;}.f{fill:#80225f;}</style><clipPath id="a" transform="translate(0 0.07)"><rect class="a" width="479.21" height="348.93"/></clipPath></defs><g class="b"><g class="c"><path class="d" d="M0,348.93c48.21-81.2,122-113.62,196.53-134.3a5.47,5.47,0,0,0,1.6-9.79C146.48,169.69,79.3,148.84,0,147.26Z" transform="translate(0 0.07)"/><path class="e" d="M243.3,199.53C360.55,171.81,479.21,132.14,479.21,0H228.32c27.91,53.75,29,120.7,8.46,192.72a5.47,5.47,0,0,0,3.78,6.75,5.53,5.53,0,0,0,2.74.06" transform="translate(0 0.07)"/><path class="f" d="M223.21,198.93c3.63-69.24-7.79-145.67-58.45-199H0V111.64c102.84,0,179.85,52.28,213.65,90.7a5.46,5.46,0,0,0,9.56-3.41" transform="translate(0 0.07)"/></g></g></svg>